<svg width="11" height="10" viewBox="0 0 11 10"  xmlns="http://www.w3.org/2000/svg">
<path d="M0.774981 8.97497C0.637481 8.83747 0.568731 8.66248 0.568731 8.44998C0.568731 8.23748 0.637481 8.06248 0.774981 7.92498L3.68123 4.99998L0.774981 2.07498C0.637481 1.93748 0.565731 1.76548 0.559731 1.55898C0.553231 1.35298 0.624981 1.17498 0.774981 1.02498C0.912481 0.887475 1.08748 0.818726 1.29998 0.818726C1.51248 0.818726 1.68748 0.887475 1.82498 1.02498L5.27498 4.47498C5.34998 4.54998 5.40323 4.63123 5.43473 4.71873C5.46573 4.80623 5.48123 4.89998 5.48123 4.99998C5.48123 5.09998 5.46573 5.19373 5.43473 5.28123C5.40323 5.36873 5.34998 5.44998 5.27498 5.52498L1.82498 8.97497C1.68748 9.11247 1.51548 9.18423 1.30898 9.19023C1.10298 9.19673 0.924981 9.12497 0.774981 8.97497ZM5.72498 8.97497C5.58748 8.83747 5.51873 8.66248 5.51873 8.44998C5.51873 8.23748 5.58748 8.06248 5.72498 7.92498L8.63123 4.99998L5.72498 2.07498C5.58748 1.93748 5.51548 1.76548 5.50898 1.55898C5.50298 1.35298 5.57498 1.17498 5.72498 1.02498C5.86248 0.887475 6.03748 0.818726 6.24998 0.818726C6.46248 0.818726 6.63748 0.887475 6.77498 1.02498L10.225 4.47498C10.3 4.54998 10.353 4.63123 10.384 4.71873C10.4155 4.80623 10.4312 4.89998 10.4312 4.99998C10.4312 5.09998 10.4155 5.19373 10.384 5.28123C10.353 5.36873 10.3 5.44998 10.225 5.52498L6.77498 8.97497C6.63748 9.11247 6.46573 9.18423 6.25973 9.19023C6.05323 9.19673 5.87498 9.12497 5.72498 8.97497Z"/>
</svg>
