<svg width="18" height="18" viewBox="0 0 18 18" xmlns="http://www.w3.org/2000/svg">

  <path fill-rule="evenodd" clip-rule="evenodd"
        d="M8.62499 13.3781C8.73749 13.4594 8.86249 13.5 8.99999 13.5C9.13749 13.5 9.26249 13.4594 9.37499 13.3781C9.48749 13.2969 9.56874 13.1875 9.61874 13.05C9.90624 12.1625 10.2719 11.4187 10.7156 10.8188C10.9448 10.5089 11.1681 10.2057 11.3856 9.90917C11.5893 9.63152 11.7878 9.35971 11.9812 9.09375C12.3937 8.54375 12.7437 7.975 13.0312 7.3875C13.3187 6.8 13.4625 6.075 13.4625 5.2125C13.4625 3.9625 13.0312 2.90625 12.1687 2.04375C11.3062 1.18125 10.25 0.75 8.99999 0.75C7.74999 0.75 6.69374 1.18125 5.83124 2.04375C4.96874 2.90625 4.53749 3.9625 4.53749 5.2125C4.53749 6.075 4.68437 6.8 4.97812 7.3875C5.27187 7.975 5.61874 8.54375 6.01874 9.09375C6.21787 9.35925 6.41991 9.63058 6.62486 9.90774C6.63219 9.91765 6.63953 9.92757 6.64687 9.9375C6.85937 10.225 7.07499 10.5188 7.29374 10.8188C7.73124 11.4187 8.09374 12.1625 8.38124 13.05C8.43124 13.1875 8.51249 13.2969 8.62499 13.3781ZM10.125 6.3375C9.81249 6.65 9.43749 6.80625 8.99999 6.80625C8.56249 6.80625 8.18749 6.65 7.87499 6.3375C7.56249 6.025 7.40624 5.65 7.40624 5.2125C7.40624 4.775 7.56249 4.4 7.87499 4.0875C8.18749 3.775 8.56249 3.61875 8.99999 3.61875C9.43749 3.61875 9.81249 3.775 10.125 4.0875C10.4375 4.4 10.5937 4.775 10.5937 5.2125C10.5937 5.65 10.4375 6.025 10.125 6.3375ZM7.67185 13.2938L7.66774 13.2811C7.39872 12.4507 7.06827 11.7825 6.68774 11.2606C6.38304 10.8428 6.08455 10.4372 5.79225 10.044C2.82933 10.6129 0.75 11.9461 0.75 13.5C0.75 15.5711 4.44365 17.25 9 17.25C13.5563 17.25 17.25 15.5711 17.25 13.5C17.25 11.9474 15.1743 10.6152 12.2154 10.0455C11.927 10.4399 11.6281 10.8463 11.3186 11.2647C10.9334 11.7856 10.6007 12.4523 10.3322 13.2811L10.3281 13.2938L10.3236 13.3063C10.2252 13.5769 10.0552 13.812 9.81411 13.9861C9.57507 14.1588 9.29671 14.25 8.99999 14.25C8.70327 14.25 8.42491 14.1588 8.18587 13.9861C7.94477 13.812 7.7748 13.5769 7.6764 13.3063L7.67185 13.2938Z"/>

</svg>
