<svg width="18" height="18" viewBox="0 0 18 18"  xmlns="http://www.w3.org/2000/svg">
<path d="M13.4987 15.1475C14.7417 15.1475 15.7494 14.1398 15.7494 12.8968C15.7494 11.6537 14.7417 10.646 13.4987 10.646C12.2556 10.646 11.2479 11.6537 11.2479 12.8968C11.2479 14.1398 12.2556 15.1475 13.4987 15.1475Z" />
<path d="M8.84951 2.85609C8.45964 2.88227 8.08331 3.00947 7.7575 3.22518C7.4317 3.44089 7.16765 3.7377 6.99133 4.08639C6.815 4.43509 6.73247 4.82368 6.75186 5.21394C6.77124 5.6042 6.89187 5.98271 7.10188 6.31222C7.20906 6.48465 7.26694 6.68316 7.26923 6.88618C7.27151 7.08919 7.21812 7.28896 7.11485 7.46376L5.60139 10.0852C5.49617 10.2634 5.34459 10.4097 5.16279 10.5086C4.98099 10.6074 4.77577 10.6551 4.56901 10.6465C4.46808 10.6435 4.36706 10.6468 4.26656 10.6566C3.77985 10.7069 3.32284 10.9146 2.96487 11.2482C2.60691 11.5818 2.36752 12.023 2.28304 12.505C2.19856 12.9869 2.27359 13.4833 2.49676 13.9187C2.71993 14.3542 3.07904 14.7049 3.51962 14.9178C3.96019 15.1307 4.45818 15.194 4.93801 15.0982C5.41785 15.0024 5.85334 14.7527 6.1784 14.387C6.50347 14.0213 6.70038 13.5595 6.73924 13.0718C6.77809 12.584 6.65679 12.0969 6.39372 11.6843C6.28654 11.5119 6.22866 11.3134 6.22638 11.1104C6.22409 10.9073 6.27748 10.7076 6.38075 10.5328L7.89789 7.90985C8.00275 7.73177 8.1541 7.58559 8.3357 7.48696C8.51731 7.38833 8.72234 7.34098 8.9288 7.34998C9.03022 7.35307 9.13173 7.34971 9.23272 7.33994C9.81406 7.27254 10.3463 6.98141 10.7166 6.52824C11.087 6.07507 11.2663 5.4955 11.2165 4.91238C11.1668 4.32926 10.8919 3.78843 10.4502 3.40452C10.0085 3.02062 9.4346 2.82383 8.85024 2.85585L8.84951 2.85609Z" />
</svg>
