<svg width="18" height="18" viewBox="0 0 18 18" xmlns="http://www.w3.org/2000/svg">

<path fill-rule="evenodd" clip-rule="evenodd" d="M8.62499 13.3776C8.73749 13.4589 8.86249 13.4995 8.99999 13.4995C9.13749 13.4995 9.26249 13.4589 9.37499 13.3776C9.48749 13.2964 9.56874 13.187 9.61874 13.0495C9.90624 12.162 10.2719 11.4183 10.7156 10.8183C11.1594 10.2183 11.5812 9.64326 11.9812 9.09326C12.3937 8.54326 12.7437 7.97451 13.0312 7.38701C13.3187 6.79951 13.4625 6.07451 13.4625 5.21201C13.4625 3.96201 13.0312 2.90576 12.1687 2.04326C11.3062 1.18076 10.25 0.749512 8.99999 0.749512C7.74999 0.749512 6.69374 1.18076 5.83124 2.04326C4.96874 2.90576 4.53749 3.96201 4.53749 5.21201C4.53749 6.07451 4.68437 6.79951 4.97812 7.38701C5.27187 7.97451 5.61874 8.54326 6.01874 9.09326C6.43124 9.64326 6.85624 10.2183 7.29374 10.8183C7.73124 11.4183 8.09374 12.162 8.38124 13.0495C8.43124 13.187 8.51249 13.2964 8.62499 13.3776ZM10.125 6.33701C9.81249 6.64951 9.43749 6.80576 8.99999 6.80576C8.56249 6.80576 8.18749 6.64951 7.87499 6.33701C7.56249 6.02451 7.40624 5.64951 7.40624 5.21201C7.40624 4.77451 7.56249 4.39951 7.87499 4.08701C8.18749 3.77451 8.56249 3.61826 8.99999 3.61826C9.43749 3.61826 9.81249 3.77451 10.125 4.08701C10.4375 4.39951 10.5937 4.77451 10.5937 5.21201C10.5937 5.64951 10.4375 6.02451 10.125 6.33701ZM7.67194 13.2926L7.66783 13.2799C7.53627 12.8738 7.39002 12.5065 7.2304 12.1761C6.05169 12.4289 5.25006 12.9265 5.25006 13.4989C5.25006 14.3273 6.92899 14.9989 9.00006 14.9989C11.0711 14.9989 12.7501 14.3273 12.7501 13.4989C12.7501 12.9268 11.9494 12.4295 10.7718 12.1765C10.6108 12.5067 10.4639 12.8738 10.3323 13.2799L10.3282 13.2926L10.3237 13.3051C10.2253 13.5757 10.0553 13.8108 9.8142 13.9849C9.57516 14.1575 9.2968 14.2488 9.00008 14.2488C8.70336 14.2488 8.425 14.1575 8.18596 13.9849C7.94486 13.8108 7.77489 13.5757 7.67649 13.3051L7.67194 13.2926ZM5.41228 9.53365C5.37592 9.48366 5.33997 9.43351 5.30442 9.3832C5.27089 9.38604 5.23716 9.39117 5.2034 9.39871C4.2918 9.60229 3.45627 9.87943 2.73496 10.2201C2.36042 10.397 2.20018 10.844 2.37707 11.2185C2.55395 11.5931 3.00097 11.7533 3.37552 11.5764C3.98006 11.2909 4.70751 11.0464 5.53032 10.8627C5.78136 10.8066 5.97466 10.6307 6.06351 10.4087C5.84525 10.1133 5.63036 9.82456 5.41883 9.54253L5.41552 9.53811L5.41228 9.53365ZM12.5847 9.53806C12.3759 9.82506 12.1613 10.1188 11.9408 10.4192C12.0315 10.6363 12.2226 10.8075 12.4697 10.8627C13.2925 11.0464 14.0199 11.2909 14.6245 11.5764C14.999 11.7533 15.446 11.5931 15.6229 11.2185C15.7998 10.844 15.6396 10.397 15.265 10.2201C14.5437 9.87943 13.7082 9.60229 12.7966 9.39871C12.7639 9.3914 12.7312 9.38636 12.6986 9.38346C12.6611 9.43517 12.6232 9.48671 12.5847 9.53806ZM1.75069 12.7912C1.98804 12.4517 1.90525 11.9841 1.56578 11.7467C1.22631 11.5094 0.758713 11.5922 0.521367 11.9317C0.198487 12.3935 0 12.9226 0 13.4984C0 14.0742 0.198487 14.6034 0.521367 15.0652C0.758713 15.4046 1.22631 15.4874 1.56578 15.2501C1.90525 15.0127 1.98804 14.5451 1.75069 14.2057C1.5721 13.9502 1.5 13.7154 1.5 13.4984C1.5 13.2814 1.5721 13.0466 1.75069 12.7912ZM17.4786 11.9317C17.2413 11.5922 16.7737 11.5094 16.4342 11.7467C16.0947 11.9841 16.012 12.4517 16.2493 12.7912C16.4279 13.0466 16.5 13.2814 16.5 13.4984C16.5 13.7154 16.4279 13.9502 16.2493 14.2057C16.012 14.5451 16.0947 15.0127 16.4342 15.2501C16.7737 15.4874 17.2413 15.4046 17.4786 15.0652C17.8015 14.6034 18 14.0742 18 13.4984C18 12.9226 17.8015 12.3935 17.4786 11.9317ZM3.37552 15.4204C3.00097 15.2435 2.55395 15.4037 2.37707 15.7783C2.20018 16.1528 2.36042 16.5999 2.73496 16.7767C3.45627 17.1174 4.2918 17.3945 5.2034 17.5981C5.60766 17.6884 6.00856 17.4339 6.09883 17.0296C6.18911 16.6253 5.93458 16.2244 5.53032 16.1342C4.70751 15.9504 3.98006 15.7059 3.37552 15.4204ZM15.265 16.7767C15.6396 16.5999 15.7998 16.1528 15.6229 15.7783C15.446 15.4038 14.999 15.2435 14.6245 15.4204C14.0199 15.7059 13.2925 15.9504 12.4697 16.1342C12.0654 16.2244 11.8109 16.6253 11.9012 17.0296C11.9914 17.4339 12.3923 17.6884 12.7966 17.5981C13.7082 17.3945 14.5437 17.1174 15.265 16.7767ZM7.83108 16.4594C7.41781 16.4316 7.06022 16.7441 7.03239 17.1573C7.00456 17.5706 7.31703 17.9282 7.73031 17.956C8.14505 17.984 8.569 17.9984 9 17.9984C9.43099 17.9984 9.85494 17.984 10.2697 17.956C10.683 17.9282 10.9954 17.5706 10.9676 17.1573C10.9398 16.7441 10.5822 16.4316 10.1689 16.4594C9.78789 16.4851 9.39755 16.4984 9 16.4984C8.60244 16.4984 8.2121 16.4851 7.83108 16.4594Z"/>
</svg>
