<!--<svg id="Layer_1" data-name="Layer 1" xmlns="http://www.w3.org/2000/svg" viewBox="0 0 35.843 35.8431"><defs><style>.cls-1{fill:#fff}</style></defs><title>NEWT</title><g id="NEW_PB" data-name="NEW PB"><path id="NEWT" class="cls-1" d="M36.3552,17.6051A17.9372,17.9372,0,0,0,29.2381,19.25c-1.6688.75-3.39,2.7078-3.39,4.0143,0,.9467.0283,3.27.0283,3.27a4.0358,4.0358,0,0,0,.2329,1.2968,2.6963,2.6963,0,1,1-4.7143-.71,3.3689,3.3689,0,0,0,.612-1.256s.4835-2.1454.563-2.5226c.1433-.68-.5028-.9519-.8161-1.0777a1.45,1.45,0,0,0-1.39.161c-1.7083,1.3186-4.6741,3.4852-5.1393,4.8318a3.191,3.191,0,0,1-4.2315,1.7115,3.086,3.086,0,0,1-1.7768-2.0017,3.203,3.203,0,0,1,3.06-4.1364,5.3811,5.3811,0,0,0,2.6521-.2672A36.2407,36.2407,0,0,0,19.1259,19.89a.702.702,0,0,0,.345-.7358c-.0549-.2821-.2218-.4418-.6-.441a25.2315,25.2315,0,0,0-5.0956.2606,9.6462,9.6462,0,0,0-1.0779.584,2.4393,2.4393,0,0,1-.9963.1976,2.3888,2.3888,0,1,1,1.64-4.1265c1.0508.9111,4.15.9064,6.4452,1.0306a.91.91,0,0,0,.7452-.3437c.25-.2951.82-.9229-.05-1.3582a14.7922,14.7922,0,0,0-4.5624-1.5406,2.11,2.11,0,1,1,1.6766-3.3885,22.0105,22.0105,0,0,0,4.953,3.6086,4.74,4.74,0,0,0,2.1232.4724h2.0591a4.0767,4.0767,0,0,0,1.95-.4968S32.819,11.401,33.6968,10.88a1.4089,1.4089,0,0,0,.3112-2.0444A17.9111,17.9111,0,1,0,37.9215,20c0-.3505-.0136-.6976-.0374-1.0419C37.8533,18.5113,37.7343,17.58,36.3552,17.6051Z" transform="translate(-2.0785 -2.0785)"/></g></svg>-->


<svg id="Layer_1" data-name="Layer 1" xmlns="http://www.w3.org/2000/svg" viewBox="0 0 35.843 35.8431">
  <title>NEWT</title>
  <g id="NEW_PB" data-name="NEW PB">
    <path id="NEWT" fill="currentColor" d="M36.3552,17.6051A17.9372,17.9372,0,0,0,29.2381,19.25c-1.6688.75-3.39,2.7078-3.39,4.0143,0,.9467.0283,3.27.0283,3.27a4.0358,4.0358,0,0,0,.2329,1.2968,2.6963,2.6963,0,1,1-4.7143-.71,3.3689,3.3689,0,0,0,.612-1.256s.4835-2.1454.563-2.5226c.1433-.68-.5028-.9519-.8161-1.0777a1.45,1.45,0,0,0-1.39.161c-1.7083,1.3186-4.6741,3.4852-5.1393,4.8318a3.191,3.191,0,0,1-4.2315,1.7115,3.086,3.086,0,0,1-1.7768-2.0017,3.203,3.203,0,0,1,3.06-4.1364,5.3811,5.3811,0,0,0,2.6521-.2672A36.2407,36.2407,0,0,0,19.1259,19.89a.702.702,0,0,0,.345-.7358c-.0549-.2821-.2218-.4418-.6-.441a25.2315,25.2315,0,0,0-5.0956.2606,9.6462,9.6462,0,0,0-1.0779.584,2.4393,2.4393,0,0,1-.9963.1976,2.3888,2.3888,0,1,1,1.64-4.1265c1.0508.9111,4.15.9064,6.4452,1.0306a.91.91,0,0,0,.7452-.3437c.25-.2951.82-.9229-.05-1.3582a14.7922,14.7922,0,0,0-4.5624-1.5406,2.11,2.11,0,1,1,1.6766-3.3885,22.0105,22.0105,0,0,0,4.953,3.6086,4.74,4.74,0,0,0,2.1232.4724h2.0591a4.0767,4.0767,0,0,0,1.95-.4968S32.819,11.401,33.6968,10.88a1.4089,1.4089,0,0,0,.3112-2.0444A17.9111,17.9111,0,1,0,37.9215,20c0-.3505-.0136-.6976-.0374-1.0419C37.8533,18.5113,37.7343,17.58,36.3552,17.6051Z" transform="translate(-2.0785 -2.0785)"/>
  </g>
</svg>
