<svg width="16" height="16" viewBox="0 0 16 16"  xmlns="http://www.w3.org/2000/svg">
<path d="M7.8 12C6.73333 11.9444 5.83333 11.5333 5.1 10.7667C4.36667 10 4 9.07778 4 8C4 6.88889 4.38889 5.94444 5.16667 5.16667C5.94444 4.38889 6.88889 4 8 4C9.07778 4 10 4.36667 10.7667 5.1C11.5333 5.83333 11.9444 6.73333 12 7.8L10.6 7.38333C10.4556 6.78333 10.1444 6.29178 9.66667 5.90867C9.18889 5.52511 8.63333 5.33333 8 5.33333C7.26667 5.33333 6.63889 5.59444 6.11667 6.11667C5.59444 6.63889 5.33333 7.26667 5.33333 8C5.33333 8.63333 5.52511 9.18889 5.90867 9.66667C6.29178 10.1444 6.78333 10.4556 7.38333 10.6L7.8 12ZM10.8333 12.15L10.3333 13.6667C10.2778 13.8222 10.1722 13.8971 10.0167 13.8913C9.86111 13.886 9.75556 13.8056 9.7 13.65L8.18333 8.6C8.13889 8.47778 8.16667 8.36667 8.26667 8.26667C8.36667 8.16667 8.47778 8.13889 8.6 8.18333L13.65 9.7C13.8056 9.75556 13.8862 9.86111 13.892 10.0167C13.8973 10.1722 13.8222 10.2778 13.6667 10.3333L12.15 10.8333L14.35 13.0333C14.5389 13.2222 14.6333 13.4389 14.6333 13.6833C14.6333 13.9278 14.5389 14.1444 14.35 14.3333C14.1611 14.5222 13.9418 14.6167 13.692 14.6167C13.4418 14.6167 13.2222 14.5222 13.0333 14.3333L10.8333 12.15Z" />
</svg>
