<svg viewBox="0 0 434 159" fill="none" xmlns="http://www.w3.org/2000/svg">
  <path opacity="0.4" d="M326.5 29V116.5C292 111 264 111 254.5 111V88.9999C254.5 88.9999 308.5 91.5 326.5 29Z"
        fill="var(--surface-variant, #E9F2F6)"/>
  <path
    d="M58.834 132H60.1816V128.139H64.3242V132H65.6719V123.469H64.3242V127.061H60.1816V123.469H58.834V132ZM67.9297 129.691C67.9297 130.562 68.123 131.186 68.5098 131.561C68.9004 131.932 69.416 132.117 70.0566 132.117C70.4551 132.117 70.8203 132.039 71.1523 131.883C71.4844 131.723 71.7598 131.5 71.9785 131.215H72.0137L72.0547 132H73.2617V125.754H71.9551V130.084C71.8105 130.369 71.6094 130.604 71.3516 130.787C71.0977 130.971 70.8027 131.062 70.4668 131.062C70.0762 131.062 69.7734 130.959 69.5586 130.752C69.3438 130.545 69.2363 130.199 69.2363 129.715V125.754H67.9297V129.691ZM75.4492 132H76.7559V127.67C76.9004 127.377 77.0938 127.141 77.3359 126.961C77.5781 126.781 77.8633 126.691 78.1914 126.691C78.5664 126.691 78.8555 126.797 79.0586 127.008C79.2617 127.215 79.3633 127.557 79.3633 128.033V132H80.6758V127.67C80.8203 127.377 81.0137 127.141 81.2559 126.961C81.502 126.781 81.7871 126.691 82.1113 126.691C82.4902 126.691 82.7793 126.797 82.9785 127.008C83.1816 127.215 83.2832 127.555 83.2832 128.027V132H84.5898V128.062C84.5898 127.188 84.4004 126.564 84.0215 126.193C83.6465 125.818 83.1309 125.631 82.4746 125.631C82.0566 125.631 81.6777 125.717 81.3379 125.889C80.998 126.061 80.7012 126.33 80.4473 126.697H80.418C80.2617 126.334 80.0254 126.066 79.709 125.895C79.3965 125.719 79.0234 125.631 78.5898 125.631C78.207 125.631 77.8555 125.711 77.5352 125.871C77.2188 126.031 76.9512 126.252 76.7324 126.533H76.6973L76.6504 125.754H75.4492V132ZM86.3848 130.16C86.3848 130.797 86.5957 131.283 87.0176 131.619C87.4434 131.951 87.959 132.117 88.5645 132.117C89.0879 132.117 89.5176 132.021 89.8535 131.83C90.1934 131.635 90.4336 131.41 90.5742 131.156C90.5898 131.309 90.6191 131.463 90.6621 131.619C90.7051 131.775 90.752 131.902 90.8027 132H92.0801V131.906C92.0059 131.738 91.9473 131.543 91.9043 131.32C91.8652 131.094 91.8457 130.854 91.8457 130.6V127.699C91.8457 126.988 91.625 126.457 91.1836 126.105C90.7461 125.754 90.1328 125.578 89.3438 125.578C88.5547 125.578 87.9238 125.764 87.4512 126.135C86.9785 126.506 86.7422 126.947 86.7422 127.459V127.506H88.0371V127.459C88.0371 127.217 88.1348 127.006 88.3301 126.826C88.5254 126.643 88.8496 126.551 89.3027 126.551C89.7559 126.551 90.0742 126.658 90.2578 126.873C90.4453 127.084 90.5391 127.357 90.5391 127.693V128.127H89.1621C88.3574 128.127 87.6934 128.305 87.1699 128.66C86.6465 129.012 86.3848 129.512 86.3848 130.16ZM87.6914 130.084C87.6914 129.748 87.8262 129.484 88.0957 129.293C88.3691 129.098 88.7734 129 89.3086 129H90.5391V129.809C90.5391 130.137 90.373 130.441 90.041 130.723C89.709 131 89.3301 131.139 88.9043 131.139C88.4863 131.139 88.1797 131.045 87.9844 130.857C87.7891 130.67 87.6914 130.412 87.6914 130.084ZM94.0273 132H95.334V127.664C95.4785 127.375 95.6797 127.141 95.9375 126.961C96.1953 126.781 96.4922 126.691 96.8281 126.691C97.2188 126.691 97.5195 126.793 97.7305 126.996C97.9453 127.199 98.0527 127.539 98.0527 128.016V132H99.3594V128.039C99.3594 127.164 99.1641 126.545 98.7734 126.182C98.3867 125.814 97.8691 125.631 97.2207 125.631C96.8223 125.631 96.457 125.711 96.125 125.871C95.7969 126.031 95.5254 126.252 95.3105 126.533H95.2754L95.2344 125.754H94.0273V132ZM50.2129 144H51.5664V135.469H50.2129V144ZM53.543 140.971C53.543 141.885 53.7852 142.639 54.2695 143.232C54.7578 143.822 55.4121 144.117 56.2324 144.117C56.6621 144.117 57.041 144.029 57.3691 143.854C57.6973 143.678 57.9375 143.465 58.0898 143.215H58.1191L58.166 144H59.373V135.006H58.0664V138.457C57.8906 138.211 57.6484 138.014 57.3398 137.865C57.0312 137.713 56.6602 137.637 56.2266 137.637C55.418 137.637 54.7676 137.932 54.2754 138.521C53.7871 139.111 53.543 139.865 53.543 140.783V140.971ZM54.8789 140.988V140.76C54.8789 140.166 55.0137 139.67 55.2832 139.271C55.5527 138.869 55.9668 138.668 56.5254 138.668C56.9082 138.668 57.2305 138.77 57.4922 138.973C57.7578 139.176 57.9492 139.41 58.0664 139.676V142.072C57.9492 142.338 57.7578 142.572 57.4922 142.775C57.2266 142.979 56.9043 143.08 56.5254 143.08C55.9629 143.08 55.5469 142.881 55.2773 142.482C55.0117 142.084 54.8789 141.586 54.8789 140.988ZM61.2031 140.971C61.2031 141.916 61.4727 142.688 62.0117 143.285C62.5547 143.879 63.3262 144.176 64.3262 144.176C64.9434 144.176 65.4707 144.051 65.9082 143.801C66.3457 143.551 66.6621 143.268 66.8574 142.951L65.9961 142.301C65.8203 142.531 65.5938 142.732 65.3164 142.904C65.0391 143.072 64.707 143.156 64.3203 143.156C63.7109 143.156 63.2578 142.949 62.9609 142.535C62.668 142.121 62.5215 141.605 62.5215 140.988V140.76C62.5215 140.139 62.6602 139.621 62.9375 139.207C63.2188 138.793 63.6309 138.586 64.1738 138.586C64.6621 138.586 65.0254 138.738 65.2637 139.043C65.5059 139.344 65.627 139.709 65.627 140.139V140.232H62.0469V141.188H66.9336V140.678C66.9336 139.721 66.6914 138.965 66.207 138.41C65.7266 137.852 65.043 137.572 64.1562 137.572C63.2734 137.572 62.5605 137.871 62.0176 138.469C61.4746 139.062 61.2031 139.834 61.2031 140.783V140.971ZM68.7109 144H70.0176V139.664C70.1621 139.375 70.3633 139.141 70.6211 138.961C70.8789 138.781 71.1758 138.691 71.5117 138.691C71.9023 138.691 72.2031 138.793 72.4141 138.996C72.6289 139.199 72.7363 139.539 72.7363 140.016V144H74.043V140.039C74.043 139.164 73.8477 138.545 73.457 138.182C73.0703 137.814 72.5527 137.631 71.9043 137.631C71.5059 137.631 71.1406 137.711 70.8086 137.871C70.4805 138.031 70.209 138.252 69.9941 138.533H69.959L69.918 137.754H68.7109V144ZM75.3281 138.732H79.0195V137.754H75.3281V138.732ZM76.4062 142.365C76.4062 142.99 76.5566 143.449 76.8574 143.742C77.1582 144.031 77.5586 144.176 78.0586 144.176C78.2578 144.176 78.4395 144.158 78.6035 144.123C78.7715 144.088 78.9043 144.047 79.002 144V142.986C78.9004 143.025 78.7969 143.057 78.6914 143.08C78.5898 143.104 78.4863 143.115 78.3809 143.115C78.1543 143.115 77.9863 143.059 77.877 142.945C77.7676 142.828 77.7129 142.631 77.7129 142.354V136.324H76.4062V138.141V138.316V142.365ZM80.6914 144H81.998V137.754H80.6914V144ZM80.5566 135.949C80.5566 136.156 80.623 136.332 80.7559 136.477C80.8926 136.617 81.0879 136.688 81.3418 136.688C81.5957 136.688 81.7891 136.617 81.9219 136.477C82.0586 136.336 82.127 136.16 82.127 135.949C82.127 135.742 82.0586 135.568 81.9219 135.428C81.7891 135.283 81.5957 135.211 81.3418 135.211C81.0879 135.211 80.8926 135.283 80.7559 135.428C80.623 135.568 80.5566 135.742 80.5566 135.949ZM84.5078 144H85.8145V138.293V138.164V137.109C85.8145 136.719 85.9062 136.426 86.0898 136.23C86.2773 136.035 86.543 135.938 86.8867 135.938C86.9844 135.938 87.082 135.943 87.1797 135.955C87.2773 135.967 87.3672 135.98 87.4492 135.996L87.5078 134.982C87.3906 134.951 87.2656 134.928 87.1328 134.912C87 134.896 86.8672 134.889 86.7344 134.889C86.0586 134.889 85.5176 135.076 85.1113 135.451C84.709 135.826 84.5078 136.377 84.5078 137.104V144ZM83.5293 138.732H87.1152V137.754H85.2695H85.0059H83.5293V138.732ZM87.9531 144H89.2598V137.754H87.9531V144ZM87.8184 135.949C87.8184 136.156 87.8848 136.332 88.0176 136.477C88.1543 136.617 88.3496 136.688 88.6035 136.688C88.8574 136.688 89.0508 136.617 89.1836 136.477C89.3203 136.336 89.3887 136.16 89.3887 135.949C89.3887 135.742 89.3203 135.568 89.1836 135.428C89.0508 135.283 88.8574 135.211 88.6035 135.211C88.3496 135.211 88.1543 135.283 88.0176 135.428C87.8848 135.568 87.8184 135.742 87.8184 135.949ZM91.125 140.971C91.125 141.916 91.3945 142.688 91.9336 143.285C92.4766 143.879 93.248 144.176 94.248 144.176C94.8652 144.176 95.3926 144.051 95.8301 143.801C96.2676 143.551 96.584 143.268 96.7793 142.951L95.918 142.301C95.7422 142.531 95.5156 142.732 95.2383 142.904C94.9609 143.072 94.6289 143.156 94.2422 143.156C93.6328 143.156 93.1797 142.949 92.8828 142.535C92.5898 142.121 92.4434 141.605 92.4434 140.988V140.76C92.4434 140.139 92.582 139.621 92.8594 139.207C93.1406 138.793 93.5527 138.586 94.0957 138.586C94.584 138.586 94.9473 138.738 95.1855 139.043C95.4277 139.344 95.5488 139.709 95.5488 140.139V140.232H91.9688V141.188H96.8555V140.678C96.8555 139.721 96.6133 138.965 96.1289 138.41C95.6484 137.852 94.9648 137.572 94.0781 137.572C93.1953 137.572 92.4824 137.871 91.9395 138.469C91.3965 139.062 91.125 139.834 91.125 140.783V140.971ZM98.6328 144H99.9395V139.729C100.057 139.459 100.236 139.236 100.479 139.061C100.721 138.881 101.012 138.791 101.352 138.791C101.453 138.791 101.545 138.795 101.627 138.803C101.713 138.811 101.795 138.822 101.873 138.838V137.66C101.834 137.645 101.768 137.627 101.674 137.607C101.584 137.588 101.496 137.578 101.41 137.578C101.07 137.578 100.773 137.672 100.52 137.859C100.27 138.047 100.068 138.268 99.916 138.521H99.8867L99.8398 137.754H98.6328V144ZM103 142.125V142.166C103 142.779 103.23 143.268 103.691 143.631C104.152 143.994 104.816 144.176 105.684 144.176C106.555 144.176 107.209 143.996 107.646 143.637C108.088 143.277 108.309 142.811 108.309 142.236C108.309 141.689 108.127 141.266 107.764 140.965C107.4 140.66 106.865 140.434 106.158 140.285C105.451 140.133 104.992 139.992 104.781 139.863C104.574 139.73 104.471 139.553 104.471 139.33C104.471 139.111 104.562 138.93 104.746 138.785C104.934 138.637 105.234 138.562 105.648 138.562C106.066 138.562 106.373 138.645 106.568 138.809C106.768 138.973 106.867 139.197 106.867 139.482V139.541H108.162V139.5C108.162 138.914 107.934 138.447 107.477 138.1C107.02 137.748 106.412 137.572 105.654 137.572C104.896 137.572 104.293 137.744 103.844 138.088C103.398 138.432 103.176 138.871 103.176 139.406C103.176 139.918 103.363 140.324 103.738 140.625C104.117 140.922 104.662 141.145 105.373 141.293C106.072 141.445 106.52 141.59 106.715 141.727C106.914 141.859 107.014 142.057 107.014 142.318C107.014 142.576 106.896 142.785 106.662 142.945C106.428 143.105 106.102 143.186 105.684 143.186C105.266 143.186 104.93 143.102 104.676 142.934C104.426 142.766 104.301 142.512 104.301 142.172V142.125H103Z"
    fill="var(--primary, #006782)"/>
  <path d="M54 28H104" stroke="var(--primary, #006782)" stroke-width="4" stroke-linecap="round"/>
  <path d="M54 38.5H104" stroke="var(--primary, #006782)" stroke-width="4" stroke-linecap="round"/>
  <path d="M54 49H104" stroke="var(--primary, #006782)" stroke-width="4" stroke-linecap="round"/>
  <path d="M54 59.5H104" stroke="var(--primary, #006782)" stroke-width="4" stroke-linecap="round"/>
  <path d="M54 70H104" stroke="var(--primary, #006782)" stroke-width="4" stroke-linecap="round"/>
  <path d="M54 80.5H104" stroke="var(--primary, #006782)" stroke-width="4" stroke-linecap="round"/>
  <path d="M54 91H104" stroke="var(--primary, #006782)" stroke-width="4" stroke-linecap="round"/>
  <path d="M54 101.5H104" stroke="var(--primary, #006782)" stroke-width="4" stroke-linecap="round"/>
  <path d="M54 112H104" stroke="var(--primary, #006782)" stroke-width="4" stroke-linecap="round"/>
  <path
    d="M336.418 132H337.766V128.777H339.424C340.404 128.777 341.156 128.537 341.68 128.057C342.207 127.572 342.471 126.924 342.471 126.111C342.471 125.299 342.207 124.656 341.68 124.184C341.156 123.707 340.404 123.469 339.424 123.469H336.418V132ZM337.766 127.717V124.535H339.389C340.033 124.535 340.482 124.684 340.736 124.98C340.994 125.277 341.123 125.654 341.123 126.111C341.123 126.568 340.994 126.951 340.736 127.26C340.482 127.564 340.033 127.717 339.389 127.717H337.766ZM343.75 130.16C343.75 130.797 343.961 131.283 344.383 131.619C344.809 131.951 345.324 132.117 345.93 132.117C346.453 132.117 346.883 132.021 347.219 131.83C347.559 131.635 347.799 131.41 347.939 131.156C347.955 131.309 347.984 131.463 348.027 131.619C348.07 131.775 348.117 131.902 348.168 132H349.445V131.906C349.371 131.738 349.312 131.543 349.27 131.32C349.23 131.094 349.211 130.854 349.211 130.6V127.699C349.211 126.988 348.99 126.457 348.549 126.105C348.111 125.754 347.498 125.578 346.709 125.578C345.92 125.578 345.289 125.764 344.816 126.135C344.344 126.506 344.107 126.947 344.107 127.459V127.506H345.402V127.459C345.402 127.217 345.5 127.006 345.695 126.826C345.891 126.643 346.215 126.551 346.668 126.551C347.121 126.551 347.439 126.658 347.623 126.873C347.811 127.084 347.904 127.357 347.904 127.693V128.127H346.527C345.723 128.127 345.059 128.305 344.535 128.66C344.012 129.012 343.75 129.512 343.75 130.16ZM345.057 130.084C345.057 129.748 345.191 129.484 345.461 129.293C345.734 129.098 346.139 129 346.674 129H347.904V129.809C347.904 130.137 347.738 130.441 347.406 130.723C347.074 131 346.695 131.139 346.27 131.139C345.852 131.139 345.545 131.045 345.35 130.857C345.154 130.67 345.057 130.412 345.057 130.084ZM350.549 126.732H354.24V125.754H350.549V126.732ZM351.627 130.365C351.627 130.99 351.777 131.449 352.078 131.742C352.379 132.031 352.779 132.176 353.279 132.176C353.479 132.176 353.66 132.158 353.824 132.123C353.992 132.088 354.125 132.047 354.223 132V130.986C354.121 131.025 354.018 131.057 353.912 131.08C353.811 131.104 353.707 131.115 353.602 131.115C353.375 131.115 353.207 131.059 353.098 130.945C352.988 130.828 352.934 130.631 352.934 130.354V124.324H351.627V126.141V126.316V130.365ZM355.865 132H357.172V127.682C357.312 127.385 357.51 127.146 357.764 126.967C358.018 126.783 358.312 126.691 358.648 126.691C359.039 126.691 359.342 126.795 359.557 127.002C359.775 127.209 359.885 127.553 359.885 128.033V132H361.191V128.021C361.191 127.166 361 126.555 360.617 126.188C360.234 125.816 359.734 125.631 359.117 125.631C358.699 125.631 358.324 125.713 357.992 125.877C357.66 126.041 357.387 126.264 357.172 126.545V123.006H355.865V132ZM362.617 125.754L364.527 132H365.676L366.947 128.086C366.998 127.934 367.045 127.779 367.088 127.623C367.131 127.467 367.17 127.312 367.205 127.16H367.24C367.275 127.312 367.314 127.467 367.357 127.623C367.4 127.779 367.447 127.934 367.498 128.086L368.781 132H369.924L371.834 125.754H370.662L369.602 129.662C369.559 129.818 369.523 129.959 369.496 130.084C369.469 130.205 369.441 130.344 369.414 130.5H369.379C369.352 130.344 369.322 130.205 369.291 130.084C369.264 129.959 369.223 129.818 369.168 129.662L367.879 125.754H366.684L365.418 129.662C365.367 129.818 365.328 129.959 365.301 130.084C365.273 130.205 365.246 130.344 365.219 130.5H365.184C365.156 130.344 365.127 130.205 365.096 130.084C365.068 129.959 365.033 129.818 364.99 129.662L363.912 125.754H362.617ZM372.984 130.16C372.984 130.797 373.195 131.283 373.617 131.619C374.043 131.951 374.559 132.117 375.164 132.117C375.688 132.117 376.117 132.021 376.453 131.83C376.793 131.635 377.033 131.41 377.174 131.156C377.189 131.309 377.219 131.463 377.262 131.619C377.305 131.775 377.352 131.902 377.402 132H378.68V131.906C378.605 131.738 378.547 131.543 378.504 131.32C378.465 131.094 378.445 130.854 378.445 130.6V127.699C378.445 126.988 378.225 126.457 377.783 126.105C377.346 125.754 376.732 125.578 375.943 125.578C375.154 125.578 374.523 125.764 374.051 126.135C373.578 126.506 373.342 126.947 373.342 127.459V127.506H374.637V127.459C374.637 127.217 374.734 127.006 374.93 126.826C375.125 126.643 375.449 126.551 375.902 126.551C376.355 126.551 376.674 126.658 376.857 126.873C377.045 127.084 377.139 127.357 377.139 127.693V128.127H375.762C374.957 128.127 374.293 128.305 373.77 128.66C373.246 129.012 372.984 129.512 372.984 130.16ZM374.291 130.084C374.291 129.748 374.426 129.484 374.695 129.293C374.969 129.098 375.373 129 375.908 129H377.139V129.809C377.139 130.137 376.973 130.441 376.641 130.723C376.309 131 375.93 131.139 375.504 131.139C375.086 131.139 374.779 131.045 374.584 130.857C374.389 130.67 374.291 130.412 374.291 130.084ZM380.082 134.438C380.191 134.477 380.311 134.506 380.439 134.525C380.568 134.549 380.715 134.561 380.879 134.561C381.383 134.561 381.807 134.406 382.15 134.098C382.498 133.793 382.775 133.361 382.982 132.803L385.578 125.754H384.354L383.006 129.709C382.951 129.865 382.902 130.014 382.859 130.154C382.816 130.295 382.779 130.432 382.748 130.564H382.713C382.682 130.432 382.645 130.295 382.602 130.154C382.562 130.01 382.514 129.861 382.455 129.709L381.02 125.754H379.725L382.109 131.959L382.139 131.965C381.924 132.621 381.717 133.039 381.518 133.219C381.322 133.402 381.084 133.494 380.803 133.494C380.686 133.494 380.562 133.484 380.434 133.465C380.305 133.445 380.188 133.42 380.082 133.389V134.438ZM339.244 144H344.893V142.934H340.586V140.139H344.289V139.066H340.586V136.541H344.834V135.469H339.244V144ZM346.641 144H347.947V139.664C348.092 139.375 348.293 139.141 348.551 138.961C348.809 138.781 349.105 138.691 349.441 138.691C349.832 138.691 350.133 138.793 350.344 138.996C350.559 139.199 350.666 139.539 350.666 140.016V144H351.973V140.039C351.973 139.164 351.777 138.545 351.387 138.182C351 137.814 350.482 137.631 349.834 137.631C349.436 137.631 349.07 137.711 348.738 137.871C348.41 138.031 348.139 138.252 347.924 138.533H347.889L347.848 137.754H346.641V144ZM353.258 138.732H356.949V137.754H353.258V138.732ZM354.336 142.365C354.336 142.99 354.486 143.449 354.787 143.742C355.088 144.031 355.488 144.176 355.988 144.176C356.188 144.176 356.369 144.158 356.533 144.123C356.701 144.088 356.834 144.047 356.932 144V142.986C356.83 143.025 356.727 143.057 356.621 143.08C356.52 143.104 356.416 143.115 356.311 143.115C356.084 143.115 355.916 143.059 355.807 142.945C355.697 142.828 355.643 142.631 355.643 142.354V136.324H354.336V138.141V138.316V142.365ZM358.621 144H359.928V137.754H358.621V144ZM358.486 135.949C358.486 136.156 358.553 136.332 358.686 136.477C358.822 136.617 359.018 136.688 359.271 136.688C359.525 136.688 359.719 136.617 359.852 136.477C359.988 136.336 360.057 136.16 360.057 135.949C360.057 135.742 359.988 135.568 359.852 135.428C359.719 135.283 359.525 135.211 359.271 135.211C359.018 135.211 358.822 135.283 358.686 135.428C358.553 135.568 358.486 135.742 358.486 135.949ZM361.312 138.732H365.004V137.754H361.312V138.732ZM362.391 142.365C362.391 142.99 362.541 143.449 362.842 143.742C363.143 144.031 363.543 144.176 364.043 144.176C364.242 144.176 364.424 144.158 364.588 144.123C364.756 144.088 364.889 144.047 364.986 144V142.986C364.885 143.025 364.781 143.057 364.676 143.08C364.574 143.104 364.471 143.115 364.365 143.115C364.139 143.115 363.971 143.059 363.861 142.945C363.752 142.828 363.697 142.631 363.697 142.354V136.324H362.391V138.141V138.316V142.365ZM366.676 144H367.982V137.754H366.676V144ZM366.541 135.949C366.541 136.156 366.607 136.332 366.74 136.477C366.877 136.617 367.072 136.688 367.326 136.688C367.58 136.688 367.773 136.617 367.906 136.477C368.043 136.336 368.111 136.16 368.111 135.949C368.111 135.742 368.043 135.568 367.906 135.428C367.773 135.283 367.58 135.211 367.326 135.211C367.072 135.211 366.877 135.283 366.74 135.428C366.607 135.568 366.541 135.742 366.541 135.949ZM369.848 140.971C369.848 141.916 370.117 142.688 370.656 143.285C371.199 143.879 371.971 144.176 372.971 144.176C373.588 144.176 374.115 144.051 374.553 143.801C374.99 143.551 375.307 143.268 375.502 142.951L374.641 142.301C374.465 142.531 374.238 142.732 373.961 142.904C373.684 143.072 373.352 143.156 372.965 143.156C372.355 143.156 371.902 142.949 371.605 142.535C371.312 142.121 371.166 141.605 371.166 140.988V140.76C371.166 140.139 371.305 139.621 371.582 139.207C371.863 138.793 372.275 138.586 372.818 138.586C373.307 138.586 373.67 138.738 373.908 139.043C374.15 139.344 374.271 139.709 374.271 140.139V140.232H370.691V141.188H375.578V140.678C375.578 139.721 375.336 138.965 374.852 138.41C374.371 137.852 373.688 137.572 372.801 137.572C371.918 137.572 371.205 137.871 370.662 138.469C370.119 139.062 369.848 139.834 369.848 140.783V140.971ZM376.957 142.125V142.166C376.957 142.779 377.188 143.268 377.648 143.631C378.109 143.994 378.773 144.176 379.641 144.176C380.512 144.176 381.166 143.996 381.604 143.637C382.045 143.277 382.266 142.811 382.266 142.236C382.266 141.689 382.084 141.266 381.721 140.965C381.357 140.66 380.822 140.434 380.115 140.285C379.408 140.133 378.949 139.992 378.738 139.863C378.531 139.73 378.428 139.553 378.428 139.33C378.428 139.111 378.52 138.93 378.703 138.785C378.891 138.637 379.191 138.562 379.605 138.562C380.023 138.562 380.33 138.645 380.525 138.809C380.725 138.973 380.824 139.197 380.824 139.482V139.541H382.119V139.5C382.119 138.914 381.891 138.447 381.434 138.1C380.977 137.748 380.369 137.572 379.611 137.572C378.854 137.572 378.25 137.744 377.801 138.088C377.355 138.432 377.133 138.871 377.133 139.406C377.133 139.918 377.32 140.324 377.695 140.625C378.074 140.922 378.619 141.145 379.33 141.293C380.029 141.445 380.477 141.59 380.672 141.727C380.871 141.859 380.971 142.057 380.971 142.318C380.971 142.576 380.854 142.785 380.619 142.945C380.385 143.105 380.059 143.186 379.641 143.186C379.223 143.186 378.887 143.102 378.633 142.934C378.383 142.766 378.258 142.512 378.258 142.172V142.125H376.957Z"
    fill="var(--primary, #006782)"/>
  <path d="M335 29C333.895 29 333 29.8954 333 31C333 32.1046 333.895 33 335 33V29ZM335 33H361V29H335V33Z"
        fill="var(--primary, #006782)"/>
  <path
    d="M335 45.7998C333.895 45.7998 333 46.6952 333 47.7998C333 48.9044 333.895 49.7998 335 49.7998V45.7998ZM335 49.7998H361V45.7998H335V49.7998Z"
    fill="var(--primary, #006782)"/>
  <path
    d="M335 62.6001C333.895 62.6001 333 63.4955 333 64.6001C333 65.7047 333.895 66.6001 335 66.6001V62.6001ZM335 66.6001H361V62.6001H335V66.6001Z"
    fill="var(--primary, #006782)"/>
  <path
    d="M335 79.3999C333.895 79.3999 333 80.2953 333 81.3999C333 82.5045 333.895 83.3999 335 83.3999V79.3999ZM335 83.3999H348V79.3999H335V83.3999ZM348 83.3999H361V79.3999H348V83.3999Z"
    fill="var(--surface-variant, #E9F2F6)"/>
  <path opacity="0.8"
        d="M113.5 39.7041C114.536 41.0995 115.96 42.4764 117.668 43.8232C119.978 45.6447 122.838 47.4353 126.035 49.166C132.429 52.6274 140.211 55.8715 147.735 58.6562C155.263 61.4421 162.546 63.7735 167.946 65.4082C170.647 66.2256 172.877 66.8694 174.433 67.3086C175.21 67.5282 175.819 67.6968 176.234 67.8105C176.334 67.8379 176.423 67.8618 176.5 67.8828V72.3125C176.1 72.1844 175.524 72.0027 174.795 71.7783C173.287 71.3143 171.123 70.6684 168.497 69.9404C163.246 68.4848 156.138 66.699 148.724 65.3828C141.315 64.0677 133.572 63.2159 127.059 63.6416C121.275 64.0196 116.32 65.4152 113.5 68.5342V39.7041Z"
        fill="var(--primary, #006782)" stroke="#001F24" stroke-linecap="round"/>
  <path opacity="0.8"
        d="M113.5 28.959C114.571 29.6044 116.06 30.1842 117.835 30.7109C120.141 31.3955 122.996 32.0101 126.188 32.5625C132.571 33.6676 140.345 34.5288 147.865 35.1855C155.388 35.8424 162.667 36.2957 168.064 36.585C170.763 36.7296 172.992 36.8339 174.547 36.9014C175.324 36.9351 175.932 36.9593 176.347 36.9756C176.401 36.9777 176.452 36.9796 176.5 36.9814V41.4434C176.473 41.4406 176.446 41.4384 176.417 41.4355C176.001 41.3937 175.389 41.3357 174.609 41.2705C173.051 41.1401 170.817 40.9808 168.112 40.8672C162.704 40.64 155.407 40.5928 147.861 41.3145C140.322 42.0356 132.503 43.5272 126.069 46.3945C120.503 48.8752 115.928 52.4093 113.5 57.4043V28.959Z"
        fill="var(--primary, #006782)" stroke="#001F24" stroke-linecap="square" stroke-linejoin="round"/>
  <path opacity="0.8"
        d="M113.5 72.7002C116.125 78.5763 120.847 83.0527 126.54 86.46C133.026 90.3421 140.803 92.8571 148.269 94.4883C155.738 96.1202 162.921 96.873 168.233 97.2178C170.891 97.3902 173.082 97.4608 174.61 97.4883C175.374 97.502 175.973 97.5044 176.381 97.5039C176.423 97.5039 176.462 97.503 176.5 97.5029V101.972C176.459 101.97 176.416 101.967 176.371 101.965C175.942 101.943 175.313 101.911 174.51 101.877C172.904 101.808 170.605 101.727 167.828 101.672C162.275 101.562 154.807 101.563 147.153 102.001C139.505 102.439 131.648 103.317 125.328 104.97C122.168 105.796 119.371 106.822 117.17 108.097C115.649 108.978 114.391 109.99 113.5 111.157V72.7002Z"
        fill="var(--primary, #006782)" stroke="#001F24" stroke-linecap="round"/>
  <path
    d="M189.029 132H190.377V128.648H191.965C192.926 128.648 193.668 128.412 194.191 127.939C194.719 127.463 194.982 126.83 194.982 126.041C194.982 125.256 194.719 124.631 194.191 124.166C193.668 123.701 192.926 123.469 191.965 123.469H189.029V132ZM190.377 127.594V124.523H191.953C192.578 124.523 193.014 124.668 193.26 124.957C193.51 125.242 193.635 125.604 193.635 126.041C193.635 126.482 193.51 126.852 193.26 127.148C193.014 127.445 192.578 127.594 191.953 127.594H190.377ZM193.893 132H195.41L193.195 127.922L191.812 128.062L193.893 132ZM196.602 128.971C196.602 129.916 196.871 130.688 197.41 131.285C197.953 131.879 198.725 132.176 199.725 132.176C200.342 132.176 200.869 132.051 201.307 131.801C201.744 131.551 202.061 131.268 202.256 130.951L201.395 130.301C201.219 130.531 200.992 130.732 200.715 130.904C200.438 131.072 200.105 131.156 199.719 131.156C199.109 131.156 198.656 130.949 198.359 130.535C198.066 130.121 197.92 129.605 197.92 128.988V128.76C197.92 128.139 198.059 127.621 198.336 127.207C198.617 126.793 199.029 126.586 199.572 126.586C200.061 126.586 200.424 126.738 200.662 127.043C200.904 127.344 201.025 127.709 201.025 128.139V128.232H197.445V129.188H202.332V128.678C202.332 127.721 202.09 126.965 201.605 126.41C201.125 125.852 200.441 125.572 199.555 125.572C198.672 125.572 197.959 125.871 197.416 126.469C196.873 127.062 196.602 127.834 196.602 128.783V128.971ZM203.775 130.16C203.775 130.797 203.986 131.283 204.408 131.619C204.834 131.951 205.35 132.117 205.955 132.117C206.479 132.117 206.908 132.021 207.244 131.83C207.584 131.635 207.824 131.41 207.965 131.156C207.98 131.309 208.01 131.463 208.053 131.619C208.096 131.775 208.143 131.902 208.193 132H209.471V131.906C209.396 131.738 209.338 131.543 209.295 131.32C209.256 131.094 209.236 130.854 209.236 130.6V127.699C209.236 126.988 209.016 126.457 208.574 126.105C208.137 125.754 207.523 125.578 206.734 125.578C205.945 125.578 205.314 125.764 204.842 126.135C204.369 126.506 204.133 126.947 204.133 127.459V127.506H205.428V127.459C205.428 127.217 205.525 127.006 205.721 126.826C205.916 126.643 206.24 126.551 206.693 126.551C207.146 126.551 207.465 126.658 207.648 126.873C207.836 127.084 207.93 127.357 207.93 127.693V128.127H206.553C205.748 128.127 205.084 128.305 204.561 128.66C204.037 129.012 203.775 129.512 203.775 130.16ZM205.082 130.084C205.082 129.748 205.217 129.484 205.486 129.293C205.76 129.098 206.164 129 206.699 129H207.93V129.809C207.93 130.137 207.764 130.441 207.432 130.723C207.1 131 206.721 131.139 206.295 131.139C205.877 131.139 205.57 131.045 205.375 130.857C205.18 130.67 205.082 130.412 205.082 130.084ZM211.055 128.971C211.055 129.92 211.324 130.691 211.863 131.285C212.406 131.879 213.145 132.176 214.078 132.176C214.949 132.176 215.611 131.949 216.064 131.496C216.521 131.043 216.75 130.531 216.75 129.961V129.926H215.479V129.961C215.479 130.273 215.367 130.551 215.145 130.793C214.926 131.031 214.568 131.15 214.072 131.15C213.498 131.15 213.074 130.945 212.801 130.535C212.527 130.121 212.391 129.605 212.391 128.988V128.76C212.391 128.143 212.527 127.629 212.801 127.219C213.078 126.805 213.502 126.598 214.072 126.598C214.561 126.598 214.916 126.717 215.139 126.955C215.365 127.193 215.48 127.471 215.484 127.787V127.828H216.756L216.75 127.781C216.742 127.211 216.512 126.701 216.059 126.252C215.609 125.799 214.949 125.572 214.078 125.572C213.145 125.572 212.406 125.869 211.863 126.463C211.324 127.057 211.055 127.83 211.055 128.783V128.971ZM217.637 126.732H221.328V125.754H217.637V126.732ZM218.715 130.365C218.715 130.99 218.865 131.449 219.166 131.742C219.467 132.031 219.867 132.176 220.367 132.176C220.566 132.176 220.748 132.158 220.912 132.123C221.08 132.088 221.213 132.047 221.311 132V130.986C221.209 131.025 221.105 131.057 221 131.08C220.898 131.104 220.795 131.115 220.689 131.115C220.463 131.115 220.295 131.059 220.186 130.945C220.076 130.828 220.021 130.631 220.021 130.354V124.324H218.715V126.141V126.316V130.365ZM222.473 128.971C222.473 129.92 222.752 130.691 223.311 131.285C223.873 131.879 224.619 132.176 225.549 132.176C226.479 132.176 227.223 131.879 227.781 131.285C228.344 130.691 228.625 129.92 228.625 128.971V128.783C228.625 127.83 228.344 127.057 227.781 126.463C227.223 125.869 226.479 125.572 225.549 125.572C224.619 125.572 223.873 125.869 223.311 126.463C222.752 127.057 222.473 127.83 222.473 128.783V128.971ZM223.809 128.76C223.809 128.139 223.955 127.625 224.248 127.219C224.545 126.812 224.979 126.609 225.549 126.609C226.119 126.609 226.551 126.812 226.844 127.219C227.141 127.625 227.289 128.139 227.289 128.76V128.988C227.289 129.609 227.141 130.123 226.844 130.529C226.551 130.936 226.119 131.139 225.549 131.139C224.979 131.139 224.545 130.936 224.248 130.529C223.955 130.123 223.809 129.609 223.809 128.988V128.76ZM230.449 132H231.756V127.67C231.9 127.377 232.094 127.141 232.336 126.961C232.578 126.781 232.863 126.691 233.191 126.691C233.566 126.691 233.855 126.797 234.059 127.008C234.262 127.215 234.363 127.557 234.363 128.033V132H235.676V127.67C235.82 127.377 236.014 127.141 236.256 126.961C236.502 126.781 236.787 126.691 237.111 126.691C237.49 126.691 237.779 126.797 237.979 127.008C238.182 127.215 238.283 127.555 238.283 128.027V132H239.59V128.062C239.59 127.188 239.4 126.564 239.021 126.193C238.646 125.818 238.131 125.631 237.475 125.631C237.057 125.631 236.678 125.717 236.338 125.889C235.998 126.061 235.701 126.33 235.447 126.697H235.418C235.262 126.334 235.025 126.066 234.709 125.895C234.396 125.719 234.023 125.631 233.59 125.631C233.207 125.631 232.855 125.711 232.535 125.871C232.219 126.031 231.951 126.252 231.732 126.533H231.697L231.65 125.754H230.449V132ZM241.355 128.971C241.355 129.916 241.625 130.688 242.164 131.285C242.707 131.879 243.479 132.176 244.479 132.176C245.096 132.176 245.623 132.051 246.061 131.801C246.498 131.551 246.814 131.268 247.01 130.951L246.148 130.301C245.973 130.531 245.746 130.732 245.469 130.904C245.191 131.072 244.859 131.156 244.473 131.156C243.863 131.156 243.41 130.949 243.113 130.535C242.82 130.121 242.674 129.605 242.674 128.988V128.76C242.674 128.139 242.812 127.621 243.09 127.207C243.371 126.793 243.783 126.586 244.326 126.586C244.814 126.586 245.178 126.738 245.416 127.043C245.658 127.344 245.779 127.709 245.779 128.139V128.232H242.199V129.188H247.086V128.678C247.086 127.721 246.844 126.965 246.359 126.41C245.879 125.852 245.195 125.572 244.309 125.572C243.426 125.572 242.713 125.871 242.17 126.469C241.627 127.062 241.355 127.834 241.355 128.783V128.971ZM192.057 144H193.404V140.777H195.062C196.043 140.777 196.795 140.537 197.318 140.057C197.846 139.572 198.109 138.924 198.109 138.111C198.109 137.299 197.846 136.656 197.318 136.184C196.795 135.707 196.043 135.469 195.062 135.469H192.057V144ZM193.404 139.717V136.535H195.027C195.672 136.535 196.121 136.684 196.375 136.98C196.633 137.277 196.762 137.654 196.762 138.111C196.762 138.568 196.633 138.951 196.375 139.26C196.121 139.564 195.672 139.717 195.027 139.717H193.404ZM199.389 142.16C199.389 142.797 199.6 143.283 200.021 143.619C200.447 143.951 200.963 144.117 201.568 144.117C202.092 144.117 202.521 144.021 202.857 143.83C203.197 143.635 203.438 143.41 203.578 143.156C203.594 143.309 203.623 143.463 203.666 143.619C203.709 143.775 203.756 143.902 203.807 144H205.084V143.906C205.01 143.738 204.951 143.543 204.908 143.32C204.869 143.094 204.85 142.854 204.85 142.6V139.699C204.85 138.988 204.629 138.457 204.188 138.105C203.75 137.754 203.137 137.578 202.348 137.578C201.559 137.578 200.928 137.764 200.455 138.135C199.982 138.506 199.746 138.947 199.746 139.459V139.506H201.041V139.459C201.041 139.217 201.139 139.006 201.334 138.826C201.529 138.643 201.854 138.551 202.307 138.551C202.76 138.551 203.078 138.658 203.262 138.873C203.449 139.084 203.543 139.357 203.543 139.693V140.127H202.166C201.361 140.127 200.697 140.305 200.174 140.66C199.65 141.012 199.389 141.512 199.389 142.16ZM200.695 142.084C200.695 141.748 200.83 141.484 201.1 141.293C201.373 141.098 201.777 141 202.312 141H203.543V141.809C203.543 142.137 203.377 142.441 203.045 142.723C202.713 143 202.334 143.139 201.908 143.139C201.49 143.139 201.184 143.045 200.988 142.857C200.793 142.67 200.695 142.412 200.695 142.084ZM206.188 138.732H209.879V137.754H206.188V138.732ZM207.266 142.365C207.266 142.99 207.416 143.449 207.717 143.742C208.018 144.031 208.418 144.176 208.918 144.176C209.117 144.176 209.299 144.158 209.463 144.123C209.631 144.088 209.764 144.047 209.861 144V142.986C209.76 143.025 209.656 143.057 209.551 143.08C209.449 143.104 209.346 143.115 209.24 143.115C209.014 143.115 208.846 143.059 208.736 142.945C208.627 142.828 208.572 142.631 208.572 142.354V136.324H207.266V138.141V138.316V142.365ZM211.504 144H212.811V139.682C212.951 139.385 213.148 139.146 213.402 138.967C213.656 138.783 213.951 138.691 214.287 138.691C214.678 138.691 214.98 138.795 215.195 139.002C215.414 139.209 215.523 139.553 215.523 140.033V144H216.83V140.021C216.83 139.166 216.639 138.555 216.256 138.188C215.873 137.816 215.373 137.631 214.756 137.631C214.338 137.631 213.963 137.713 213.631 137.877C213.299 138.041 213.025 138.264 212.811 138.545V135.006H211.504V144ZM218.256 137.754L220.166 144H221.314L222.586 140.086C222.637 139.934 222.684 139.779 222.727 139.623C222.77 139.467 222.809 139.312 222.844 139.16H222.879C222.914 139.312 222.953 139.467 222.996 139.623C223.039 139.779 223.086 139.934 223.137 140.086L224.42 144H225.562L227.473 137.754H226.301L225.24 141.662C225.197 141.818 225.162 141.959 225.135 142.084C225.107 142.205 225.08 142.344 225.053 142.5H225.018C224.99 142.344 224.961 142.205 224.93 142.084C224.902 141.959 224.861 141.818 224.807 141.662L223.518 137.754H222.322L221.057 141.662C221.006 141.818 220.967 141.959 220.939 142.084C220.912 142.205 220.885 142.344 220.857 142.5H220.822C220.795 142.344 220.766 142.205 220.734 142.084C220.707 141.959 220.672 141.818 220.629 141.662L219.551 137.754H218.256ZM228.623 142.16C228.623 142.797 228.834 143.283 229.256 143.619C229.682 143.951 230.197 144.117 230.803 144.117C231.326 144.117 231.756 144.021 232.092 143.83C232.432 143.635 232.672 143.41 232.812 143.156C232.828 143.309 232.857 143.463 232.9 143.619C232.943 143.775 232.99 143.902 233.041 144H234.318V143.906C234.244 143.738 234.186 143.543 234.143 143.32C234.104 143.094 234.084 142.854 234.084 142.6V139.699C234.084 138.988 233.863 138.457 233.422 138.105C232.984 137.754 232.371 137.578 231.582 137.578C230.793 137.578 230.162 137.764 229.689 138.135C229.217 138.506 228.98 138.947 228.98 139.459V139.506H230.275V139.459C230.275 139.217 230.373 139.006 230.568 138.826C230.764 138.643 231.088 138.551 231.541 138.551C231.994 138.551 232.312 138.658 232.496 138.873C232.684 139.084 232.777 139.357 232.777 139.693V140.127H231.4C230.596 140.127 229.932 140.305 229.408 140.66C228.885 141.012 228.623 141.512 228.623 142.16ZM229.93 142.084C229.93 141.748 230.064 141.484 230.334 141.293C230.607 141.098 231.012 141 231.547 141H232.777V141.809C232.777 142.137 232.611 142.441 232.279 142.723C231.947 143 231.568 143.139 231.143 143.139C230.725 143.139 230.418 143.045 230.223 142.857C230.027 142.67 229.93 142.412 229.93 142.084ZM235.721 146.438C235.83 146.477 235.949 146.506 236.078 146.525C236.207 146.549 236.354 146.561 236.518 146.561C237.021 146.561 237.445 146.406 237.789 146.098C238.137 145.793 238.414 145.361 238.621 144.803L241.217 137.754H239.992L238.645 141.709C238.59 141.865 238.541 142.014 238.498 142.154C238.455 142.295 238.418 142.432 238.387 142.564H238.352C238.32 142.432 238.283 142.295 238.24 142.154C238.201 142.01 238.152 141.861 238.094 141.709L236.658 137.754H235.363L237.748 143.959L237.777 143.965C237.562 144.621 237.355 145.039 237.156 145.219C236.961 145.402 236.723 145.494 236.441 145.494C236.324 145.494 236.201 145.484 236.072 145.465C235.943 145.445 235.826 145.42 235.721 145.389V146.438ZM242.145 142.125V142.166C242.145 142.779 242.375 143.268 242.836 143.631C243.297 143.994 243.961 144.176 244.828 144.176C245.699 144.176 246.354 143.996 246.791 143.637C247.232 143.277 247.453 142.811 247.453 142.236C247.453 141.689 247.271 141.266 246.908 140.965C246.545 140.66 246.01 140.434 245.303 140.285C244.596 140.133 244.137 139.992 243.926 139.863C243.719 139.73 243.615 139.553 243.615 139.33C243.615 139.111 243.707 138.93 243.891 138.785C244.078 138.637 244.379 138.562 244.793 138.562C245.211 138.562 245.518 138.645 245.713 138.809C245.912 138.973 246.012 139.197 246.012 139.482V139.541H247.307V139.5C247.307 138.914 247.078 138.447 246.621 138.1C246.164 137.748 245.557 137.572 244.799 137.572C244.041 137.572 243.438 137.744 242.988 138.088C242.543 138.432 242.32 138.871 242.32 139.406C242.32 139.918 242.508 140.324 242.883 140.625C243.262 140.922 243.807 141.145 244.518 141.293C245.217 141.445 245.664 141.59 245.859 141.727C246.059 141.859 246.158 142.057 246.158 142.318C246.158 142.576 246.041 142.785 245.807 142.945C245.572 143.105 245.246 143.186 244.828 143.186C244.41 143.186 244.074 143.102 243.82 142.934C243.57 142.766 243.445 142.512 243.445 142.172V142.125H242.145Z"
    fill="var(--primary, #006782)"/>
  <rect x="185" y="29" width="73" height="22" rx="4" fill="var(--surface-variant, #E9F2F6)"/>
  <rect x="185" y="29" width="48" height="22" rx="4" fill="var(--primary, #006782)"/>
  <rect x="185" y="29" width="24" height="22" rx="4" fill="var(--primary, #006782)" stroke="var(--on-primary, #FFF)"/>
  <mask id="mask0_1206_100884" style="mask-type:alpha" maskUnits="userSpaceOnUse" x="185" y="28" width="24" height="24">
    <rect x="185" y="28" width="24" height="24" fill="#D9D9D9"/>
  </mask>
  <g mask="url(#mask0_1206_100884)">
    <path
      d="M204 49C203.35 49 202.767 48.8127 202.25 48.438C201.733 48.0627 201.375 47.5833 201.175 47H196C194.9 47 193.958 46.6083 193.175 45.825C192.392 45.0417 192 44.1 192 43C192 41.9 192.392 40.9583 193.175 40.175C193.958 39.3917 194.9 39 196 39H198C198.55 39 199.021 38.804 199.413 38.412C199.804 38.0207 200 37.55 200 37C200 36.45 199.804 35.979 199.413 35.587C199.021 35.1957 198.55 35 198 35H192.825C192.608 35.5833 192.246 36.0627 191.738 36.438C191.229 36.8127 190.65 37 190 37C189.167 37 188.458 36.7083 187.875 36.125C187.292 35.5417 187 34.8333 187 34C187 33.1667 187.292 32.4583 187.875 31.875C188.458 31.2917 189.167 31 190 31C190.65 31 191.229 31.1873 191.738 31.562C192.246 31.9373 192.608 32.4167 192.825 33H198C199.1 33 200.042 33.3917 200.825 34.175C201.608 34.9583 202 35.9 202 37C202 38.1 201.608 39.0417 200.825 39.825C200.042 40.6083 199.1 41 198 41H196C195.45 41 194.979 41.1957 194.588 41.587C194.196 41.979 194 42.45 194 43C194 43.55 194.196 44.021 194.588 44.413C194.979 44.8043 195.45 45 196 45H201.175C201.392 44.4167 201.754 43.9373 202.263 43.562C202.771 43.1873 203.35 43 204 43C204.833 43 205.542 43.2917 206.125 43.875C206.708 44.4583 207 45.1667 207 46C207 46.8333 206.708 47.5417 206.125 48.125C205.542 48.7083 204.833 49 204 49ZM190 35C190.283 35 190.521 34.9043 190.713 34.713C190.904 34.521 191 34.2833 191 34C191 33.7167 190.904 33.479 190.713 33.287C190.521 33.0957 190.283 33 190 33C189.717 33 189.479 33.0957 189.287 33.287C189.096 33.479 189 33.7167 189 34C189 34.2833 189.096 34.521 189.287 34.713C189.479 34.9043 189.717 35 190 35Z"
      fill="var(--on-primary, #FFF)"/>
  </g>
  <rect x="185" y="59" width="73" height="22" rx="4" fill="var(--surface-variant, #E9F2F6)"/>
  <rect x="185" y="59" width="38" height="22" rx="4" fill="var(--primary, #006782)"/>
  <rect x="185" y="59" width="24" height="22" rx="4" fill="var(--primary, #006782)" stroke="var(--on-primary, #FFF)"/>
  <mask id="mask1_1206_100884" style="mask-type:alpha" maskUnits="userSpaceOnUse" x="185" y="58" width="24" height="24">
    <rect x="185" y="58" width="24" height="24" fill="#D9D9D9"/>
  </mask>
  <g mask="url(#mask1_1206_100884)">
    <path
      d="M204 79C203.35 79 202.767 78.8127 202.25 78.438C201.733 78.0627 201.375 77.5833 201.175 77H196C194.9 77 193.958 76.6083 193.175 75.825C192.392 75.0417 192 74.1 192 73C192 71.9 192.392 70.9583 193.175 70.175C193.958 69.3917 194.9 69 196 69H198C198.55 69 199.021 68.804 199.413 68.412C199.804 68.0207 200 67.55 200 67C200 66.45 199.804 65.979 199.413 65.587C199.021 65.1957 198.55 65 198 65H192.825C192.608 65.5833 192.246 66.0627 191.738 66.438C191.229 66.8127 190.65 67 190 67C189.167 67 188.458 66.7083 187.875 66.125C187.292 65.5417 187 64.8333 187 64C187 63.1667 187.292 62.4583 187.875 61.875C188.458 61.2917 189.167 61 190 61C190.65 61 191.229 61.1873 191.738 61.562C192.246 61.9373 192.608 62.4167 192.825 63H198C199.1 63 200.042 63.3917 200.825 64.175C201.608 64.9583 202 65.9 202 67C202 68.1 201.608 69.0417 200.825 69.825C200.042 70.6083 199.1 71 198 71H196C195.45 71 194.979 71.1957 194.588 71.587C194.196 71.979 194 72.45 194 73C194 73.55 194.196 74.021 194.588 74.413C194.979 74.8043 195.45 75 196 75H201.175C201.392 74.4167 201.754 73.9373 202.263 73.562C202.771 73.1873 203.35 73 204 73C204.833 73 205.542 73.2917 206.125 73.875C206.708 74.4583 207 75.1667 207 76C207 76.8333 206.708 77.5417 206.125 78.125C205.542 78.7083 204.833 79 204 79ZM190 65C190.283 65 190.521 64.9043 190.713 64.713C190.904 64.521 191 64.2833 191 64C191 63.7167 190.904 63.479 190.713 63.287C190.521 63.0957 190.283 63 190 63C189.717 63 189.479 63.0957 189.287 63.287C189.096 63.479 189 63.7167 189 64C189 64.2833 189.096 64.521 189.287 64.713C189.479 64.9043 189.717 65 190 65Z"
      fill="var(--on-primary, #FFF)"/>
  </g>
  <rect x="185" y="89" width="73" height="22" rx="4" fill="var(--surface-variant, #E9F2F6)"/>
  <rect x="185" y="89" width="66" height="22" rx="4" fill="var(--primary, #006782)"/>
  <rect x="185" y="89" width="24" height="22" rx="4" fill="var(--primary, #006782)" stroke="var(--on-primary, #FFF)"/>
  <mask id="mask2_1206_100884" style="mask-type:alpha" maskUnits="userSpaceOnUse" x="185" y="88" width="24" height="24">
    <rect x="185" y="88" width="24" height="24" fill="#D9D9D9"/>
  </mask>
  <g mask="url(#mask2_1206_100884)">
    <path
      d="M204 109C203.35 109 202.767 108.813 202.25 108.438C201.733 108.063 201.375 107.583 201.175 107H196C194.9 107 193.958 106.608 193.175 105.825C192.392 105.042 192 104.1 192 103C192 101.9 192.392 100.958 193.175 100.175C193.958 99.3917 194.9 99 196 99H198C198.55 99 199.021 98.804 199.413 98.412C199.804 98.0207 200 97.55 200 97C200 96.45 199.804 95.979 199.413 95.587C199.021 95.1957 198.55 95 198 95H192.825C192.608 95.5833 192.246 96.0627 191.738 96.438C191.229 96.8127 190.65 97 190 97C189.167 97 188.458 96.7083 187.875 96.125C187.292 95.5417 187 94.8333 187 94C187 93.1667 187.292 92.4583 187.875 91.875C188.458 91.2917 189.167 91 190 91C190.65 91 191.229 91.1873 191.738 91.562C192.246 91.9373 192.608 92.4167 192.825 93H198C199.1 93 200.042 93.3917 200.825 94.175C201.608 94.9583 202 95.9 202 97C202 98.1 201.608 99.0417 200.825 99.825C200.042 100.608 199.1 101 198 101H196C195.45 101 194.979 101.196 194.588 101.587C194.196 101.979 194 102.45 194 103C194 103.55 194.196 104.021 194.588 104.413C194.979 104.804 195.45 105 196 105H201.175C201.392 104.417 201.754 103.937 202.263 103.562C202.771 103.187 203.35 103 204 103C204.833 103 205.542 103.292 206.125 103.875C206.708 104.458 207 105.167 207 106C207 106.833 206.708 107.542 206.125 108.125C205.542 108.708 204.833 109 204 109ZM190 95C190.283 95 190.521 94.9043 190.713 94.713C190.904 94.521 191 94.2833 191 94C191 93.7167 190.904 93.479 190.713 93.287C190.521 93.0957 190.283 93 190 93C189.717 93 189.479 93.0957 189.287 93.287C189.096 93.479 189 93.7167 189 94C189 94.2833 189.096 94.521 189.287 94.713C189.479 94.9043 189.717 95 190 95Z"
      fill="var(--on-primary, #FFF)"/>
  </g>
  <path opacity="0.25"
        d="M347 5.09209V6.40654L341.862 9.37292C341.688 9.47347 341.544 9.61791 341.443 9.79178C341.343 9.96565 341.29 10.1629 341.29 10.3636V16.2964L340.152 16.9542C339.978 17.0544 339.78 17.1071 339.58 17.1071C339.379 17.107 339.182 17.0541 339.008 16.9537C338.834 16.8534 338.69 16.709 338.589 16.5352C338.489 16.3614 338.436 16.1642 338.436 15.9635V8.71627C338.435 8.51542 338.488 8.31807 338.589 8.14413C338.689 7.97019 338.834 7.82582 339.008 7.72557L345.284 4.10138C345.457 4.00103 345.655 3.94822 345.855 3.94824C346.056 3.94827 346.254 4.00113 346.427 4.10152C346.601 4.20192 346.746 4.3463 346.846 4.52018C346.947 4.69405 346.999 4.8913 347 5.09209Z"
        fill="var(--primary, #006782)"/>
  <path opacity="0.5"
        d="M349.854 6.74079V8.05639L347 9.70374V6.40674L348.138 5.75009C348.312 5.64962 348.509 5.59671 348.71 5.59668C348.911 5.59665 349.108 5.6495 349.282 5.74991C349.456 5.85033 349.601 5.99477 349.701 6.16871C349.801 6.34265 349.854 6.53995 349.854 6.74079Z"
        fill="var(--primary, #006782)"/>
  <path opacity="0.5"
        d="M344.144 14.6489V17.9448L343.006 18.6014C342.832 18.7019 342.635 18.7548 342.434 18.7548C342.233 18.7549 342.036 18.702 341.862 18.6016C341.688 18.5012 341.544 18.3568 341.443 18.1828C341.343 18.0089 341.29 17.8116 341.29 17.6107V16.2962L344.144 14.6489Z"
        fill="var(--primary, #006782)"/>
  <path opacity="0.63"
        d="M347 6.40674V9.70374L344.716 11.0216C344.543 11.1222 344.398 11.2666 344.298 11.4405C344.197 11.6144 344.144 11.8116 344.144 12.0123V14.6492L341.29 16.2966V10.3638C341.29 10.1631 341.343 9.96585 341.444 9.79198C341.544 9.61811 341.688 9.47367 341.862 9.37312L347 6.40674Z"
        fill="var(--primary, #006782)"/>
  <path opacity="0.75"
        d="M352.71 13.0005V15.6363C352.71 15.837 352.657 16.0342 352.556 16.2081C352.456 16.382 352.312 16.5264 352.138 16.627L349.854 17.9448V15.309C349.854 15.1082 349.907 14.9109 350.008 14.737C350.108 14.563 350.253 14.4186 350.426 14.3183L352.71 13.0005Z"
        fill="var(--primary, #006782)"/>
  <path opacity="0.75"
        d="M352.71 8.38908V9.70354L349.854 11.352V8.05618L350.994 7.39838C351.168 7.29798 351.365 7.24512 351.566 7.24512C351.767 7.24512 351.964 7.29797 352.138 7.39837C352.312 7.49878 352.456 7.64319 352.557 7.81709C352.657 7.991 352.71 8.18827 352.71 8.38908Z"
        fill="var(--primary, #006782)"/>
  <path opacity="0.75"
        d="M347 16.2964V19.5922L345.861 20.25C345.687 20.3504 345.489 20.4033 345.289 20.4033C345.088 20.4033 344.89 20.3505 344.717 20.25C344.543 20.1496 344.398 20.0052 344.298 19.8313C344.197 19.6574 344.145 19.4602 344.145 19.2593V17.9449L347 16.2964Z"
        fill="var(--primary, #006782)"/>
  <path opacity="0.88"
        d="M349.854 8.05615V11.352L347.572 12.6699C347.398 12.7701 347.253 12.9145 347.153 13.0885C347.053 13.2624 347 13.4598 347 13.6606V16.2964L344.145 17.9449V14.649L346.428 13.33C346.602 13.2295 346.746 13.0851 346.847 12.9112C346.947 12.7373 347 12.5401 347 12.3393V9.70351L349.854 8.05615Z"
        fill="var(--primary, #006782)"/>
  <path
    d="M347 9.70361V12.3394C347 12.5402 346.947 12.7374 346.847 12.9113C346.746 13.0852 346.602 13.2296 346.428 13.3301L344.145 14.6491V12.0122C344.145 11.8114 344.198 11.6142 344.298 11.4404C344.398 11.2665 344.543 11.122 344.717 11.0215L347 9.70361Z"
    fill="var(--primary, #006782)"/>
  <path
    d="M355.564 10.0377V10.6909C355.564 10.8919 355.511 11.0893 355.411 11.2634C355.31 11.4374 355.166 11.5821 354.992 11.6828L352.71 13.0006L350.426 14.3185C350.252 14.4189 350.108 14.5632 350.007 14.7372C349.907 14.9111 349.854 15.1084 349.854 15.3092V20.5808C349.854 20.7816 349.801 20.9789 349.701 21.1528C349.601 21.3267 349.456 21.4711 349.282 21.5715L348.716 21.8987C348.542 21.999 348.345 22.0518 348.144 22.0518C347.943 22.0518 347.746 21.9989 347.572 21.8985C347.398 21.7981 347.254 21.6537 347.153 21.4799C347.053 21.306 347 21.1087 347 20.908V13.6607C347 13.4599 347.053 13.2625 347.153 13.0886C347.253 12.9147 347.398 12.7703 347.572 12.67L349.854 11.3521L352.71 9.70364L353.848 9.04584C354.022 8.94561 354.219 8.89292 354.42 8.89307C354.621 8.89322 354.818 8.94621 354.992 9.0467C355.166 9.1472 355.31 9.29168 355.411 9.46562C355.511 9.63957 355.564 9.83686 355.564 10.0377Z"
    fill="var(--primary, #006782)"/>
  <path
    d="M385 66.6001C386.105 66.6001 387 65.7047 387 64.6001C387 63.4955 386.105 62.6001 385 62.6001V66.6001ZM363.125 66.6001C364.23 66.6001 365.125 65.7047 365.125 64.6001C365.125 63.4955 364.23 62.6001 363.125 62.6001V66.6001ZM369.375 62.6001C368.27 62.6001 367.375 63.4955 367.375 64.6001C367.375 65.7047 368.27 66.6001 369.375 66.6001V62.6001ZM375.625 66.6001C376.73 66.6001 377.625 65.7047 377.625 64.6001C377.625 63.4955 376.73 62.6001 375.625 62.6001V66.6001ZM381.875 62.6001C380.77 62.6001 379.875 63.4955 379.875 64.6001C379.875 65.7047 380.77 66.6001 381.875 66.6001V62.6001ZM360 66.6001H363.125V62.6001H360V66.6001ZM369.375 66.6001H375.625V62.6001H369.375V66.6001ZM381.875 66.6001H385V62.6001H381.875V66.6001Z"
    fill="var(--primary, #006782)"/>
  <path
    d="M385 83.3999C386.105 83.3999 387 82.5045 387 81.3999C387 80.2953 386.105 79.3999 385 79.3999V83.3999ZM363.125 83.3999C364.23 83.3999 365.125 82.5045 365.125 81.3999C365.125 80.2953 364.23 79.3999 363.125 79.3999V83.3999ZM369.375 79.3999C368.27 79.3999 367.375 80.2953 367.375 81.3999C367.375 82.5045 368.27 83.3999 369.375 83.3999V79.3999ZM375.625 83.3999C376.73 83.3999 377.625 82.5045 377.625 81.3999C377.625 80.2953 376.73 79.3999 375.625 79.3999V83.3999ZM381.875 79.3999C380.77 79.3999 379.875 80.2953 379.875 81.3999C379.875 82.5045 380.77 83.3999 381.875 83.3999V79.3999ZM360 83.3999H363.125V79.3999H360V83.3999ZM369.375 83.3999H372.5V79.3999H369.375V83.3999ZM372.5 83.3999H375.625V79.3999H372.5V83.3999ZM381.875 83.3999H385V79.3999H381.875V83.3999Z"
    fill="var(--surface-variant, #E9F2F6)"/>
  <path
    d="M385 100.2C386.105 100.2 387 99.3048 387 98.2002C387 97.0956 386.105 96.2002 385 96.2002V100.2ZM363.125 100.2C364.23 100.2 365.125 99.3048 365.125 98.2002C365.125 97.0956 364.23 96.2002 363.125 96.2002V100.2ZM369.375 96.2002C368.27 96.2002 367.375 97.0956 367.375 98.2002C367.375 99.3048 368.27 100.2 369.375 100.2V96.2002ZM375.625 100.2C376.73 100.2 377.625 99.3048 377.625 98.2002C377.625 97.0956 376.73 96.2002 375.625 96.2002V100.2ZM381.875 96.2002C380.77 96.2002 379.875 97.0956 379.875 98.2002C379.875 99.3048 380.77 100.2 381.875 100.2V96.2002ZM360 100.2H363.125V96.2002H360V100.2ZM369.375 100.2H375.625V96.2002H369.375V100.2ZM381.875 100.2H385V96.2002H381.875V100.2Z"
    fill="var(--primary, #006782)"/>
  <path
    d="M385 117C386.105 117 387 116.105 387 115C387 113.895 386.105 113 385 113V117ZM363.125 117C364.23 117 365.125 116.105 365.125 115C365.125 113.895 364.23 113 363.125 113V117ZM369.375 113C368.27 113 367.375 113.895 367.375 115C367.375 116.105 368.27 117 369.375 117V113ZM375.625 117C376.73 117 377.625 116.105 377.625 115C377.625 113.895 376.73 113 375.625 113V117ZM381.875 113C380.77 113 379.875 113.895 379.875 115C379.875 116.105 380.77 117 381.875 117V113ZM360 117H363.125V113H360V117ZM369.375 117H375.625V113H369.375V117ZM381.875 117H385V113H381.875V117Z"
    fill="var(--primary, #006782)"/>
  <path
    d="M379.998 21.1968C381.655 21.1968 382.999 19.8532 382.999 18.1958C382.999 16.5384 381.655 15.1948 379.998 15.1948C378.341 15.1948 376.997 16.5384 376.997 18.1958C376.997 19.8532 378.341 21.1968 379.998 21.1968Z"
    fill="var(--tertiary, #1660A5)"/>
  <path
    d="M373.799 4.80804C373.28 4.84294 372.778 5.01254 372.343 5.30016C371.909 5.58778 371.557 5.98351 371.322 6.44844C371.087 6.91338 370.977 7.43149 371.002 7.95184C371.028 8.47219 371.189 8.97686 371.469 9.41621C371.612 9.64612 371.689 9.91079 371.692 10.1815C371.695 10.4522 371.624 10.7185 371.486 10.9516L369.469 14.4469C369.328 14.6845 369.126 14.8796 368.884 15.0114C368.641 15.1432 368.368 15.2067 368.092 15.1953C367.957 15.1912 367.823 15.1957 367.689 15.2087C367.04 15.2758 366.43 15.5527 365.953 15.9975C365.476 16.4423 365.157 17.0306 365.044 17.6732C364.931 18.3158 365.031 18.9776 365.329 19.5582C365.627 20.1388 366.105 20.6065 366.693 20.8903C367.28 21.1741 367.944 21.2586 368.584 21.1309C369.224 21.0031 369.804 20.6702 370.238 20.1826C370.671 19.695 370.934 19.0793 370.986 18.4289C371.037 17.7786 370.876 17.1291 370.525 16.579C370.382 16.3491 370.305 16.0844 370.302 15.8137C370.299 15.543 370.37 15.2767 370.508 15.0436L372.531 11.5464C372.67 11.3089 372.872 11.114 373.114 10.9825C373.356 10.851 373.63 10.7879 373.905 10.7999C374.04 10.804 374.176 10.7995 374.31 10.7865C375.085 10.6966 375.795 10.3085 376.289 9.70424C376.783 9.10001 377.022 8.32725 376.955 7.54976C376.889 6.77226 376.523 6.05115 375.934 5.53928C375.345 5.02741 374.579 4.76502 373.8 4.80773L373.799 4.80804Z"
    fill="var(--tertiary, #1660A5)"/>
</svg>
