<svg viewBox="0 0 434 159" fill="none" xmlns="http://www.w3.org/2000/svg">
  <g id="frame=0, animated=true">
    <g id="file">
      <g id="draft">
        <mask id="mask0_1196_97702" style="mask-type:alpha" maskUnits="userSpaceOnUse" x="10" y="51" width="24"
              height="24">
          <rect id="Bounding box" x="10" y="51" width="24" height="24" fill="var(--surface-variant, #E9F2F6)"/>
        </mask>
        <g mask="url(#mask0_1196_97702)">
          <path id="draft_2"
                d="M16 73C15.45 73 14.9792 72.8042 14.5875 72.4125C14.1958 72.0208 14 71.55 14 71V55C14 54.45 14.1958 53.9792 14.5875 53.5875C14.9792 53.1958 15.45 53 16 53H23.175C23.4417 53 23.6958 53.05 23.9375 53.15C24.1792 53.25 24.3917 53.3917 24.575 53.575L29.425 58.425C29.6083 58.6083 29.75 58.8208 29.85 59.0625C29.95 59.3042 30 59.5583 30 59.825V71C30 71.55 29.8042 72.0208 29.4125 72.4125C29.0208 72.8042 28.55 73 28 73H16ZM23 59C23 59.2833 23.0958 59.5208 23.2875 59.7125C23.4792 59.9042 23.7167 60 24 60H28L23 55V59Z"
                fill="var(--tertiary, #1660A5)"/>
        </g>
      </g>
      <path id="Your&#226;&#128;&#168;sample"
            d="M11.6875 125H13.041V121.854L16.0059 116.469H14.6113L12.7363 119.943C12.6738 120.057 12.6172 120.168 12.5664 120.277C12.5156 120.383 12.4688 120.488 12.4258 120.594H12.3789C12.3359 120.488 12.2891 120.383 12.2383 120.277C12.1875 120.168 12.1309 120.057 12.0684 119.943L10.2168 116.469H8.69922L11.6875 121.877V125ZM16.4824 121.971C16.4824 122.92 16.7617 123.691 17.3203 124.285C17.8828 124.879 18.6289 125.176 19.5586 125.176C20.4883 125.176 21.2324 124.879 21.791 124.285C22.3535 123.691 22.6348 122.92 22.6348 121.971V121.783C22.6348 120.83 22.3535 120.057 21.791 119.463C21.2324 118.869 20.4883 118.572 19.5586 118.572C18.6289 118.572 17.8828 118.869 17.3203 119.463C16.7617 120.057 16.4824 120.83 16.4824 121.783V121.971ZM17.8184 121.76C17.8184 121.139 17.9648 120.625 18.2578 120.219C18.5547 119.812 18.9883 119.609 19.5586 119.609C20.1289 119.609 20.5605 119.812 20.8535 120.219C21.1504 120.625 21.2988 121.139 21.2988 121.76V121.988C21.2988 122.609 21.1504 123.123 20.8535 123.529C20.5605 123.936 20.1289 124.139 19.5586 124.139C18.9883 124.139 18.5547 123.936 18.2578 123.529C17.9648 123.123 17.8184 122.609 17.8184 121.988V121.76ZM24.4004 122.691C24.4004 123.562 24.5938 124.186 24.9805 124.561C25.3711 124.932 25.8867 125.117 26.5273 125.117C26.9258 125.117 27.291 125.039 27.623 124.883C27.9551 124.723 28.2305 124.5 28.4492 124.215H28.4844L28.5254 125H29.7324V118.754H28.4258V123.084C28.2812 123.369 28.0801 123.604 27.8223 123.787C27.5684 123.971 27.2734 124.062 26.9375 124.062C26.5469 124.062 26.2441 123.959 26.0293 123.752C25.8145 123.545 25.707 123.199 25.707 122.715V118.754H24.4004V122.691ZM31.9199 125H33.2266V120.729C33.3438 120.459 33.5234 120.236 33.7656 120.061C34.0078 119.881 34.2988 119.791 34.6387 119.791C34.7402 119.791 34.832 119.795 34.9141 119.803C35 119.811 35.082 119.822 35.1602 119.838V118.66C35.1211 118.645 35.0547 118.627 34.9609 118.607C34.8711 118.588 34.7832 118.578 34.6973 118.578C34.3574 118.578 34.0605 118.672 33.8066 118.859C33.5566 119.047 33.3555 119.268 33.2031 119.521H33.1738L33.127 118.754H31.9199V125ZM0.857422 135.125V135.166C0.857422 135.779 1.08789 136.268 1.54883 136.631C2.00977 136.994 2.67383 137.176 3.54102 137.176C4.41211 137.176 5.06641 136.996 5.50391 136.637C5.94531 136.277 6.16602 135.811 6.16602 135.236C6.16602 134.689 5.98438 134.266 5.62109 133.965C5.25781 133.66 4.72266 133.434 4.01562 133.285C3.30859 133.133 2.84961 132.992 2.63867 132.863C2.43164 132.73 2.32812 132.553 2.32812 132.33C2.32812 132.111 2.41992 131.93 2.60352 131.785C2.79102 131.637 3.0918 131.562 3.50586 131.562C3.92383 131.562 4.23047 131.645 4.42578 131.809C4.625 131.973 4.72461 132.197 4.72461 132.482V132.541H6.01953V132.5C6.01953 131.914 5.79102 131.447 5.33398 131.1C4.87695 130.748 4.26953 130.572 3.51172 130.572C2.75391 130.572 2.15039 130.744 1.70117 131.088C1.25586 131.432 1.0332 131.871 1.0332 132.406C1.0332 132.918 1.2207 133.324 1.5957 133.625C1.97461 133.922 2.51953 134.145 3.23047 134.293C3.92969 134.445 4.37695 134.59 4.57227 134.727C4.77148 134.859 4.87109 135.057 4.87109 135.318C4.87109 135.576 4.75391 135.785 4.51953 135.945C4.28516 136.105 3.95898 136.186 3.54102 136.186C3.12305 136.186 2.78711 136.102 2.5332 135.934C2.2832 135.766 2.1582 135.512 2.1582 135.172V135.125H0.857422ZM7.64453 135.16C7.64453 135.797 7.85547 136.283 8.27734 136.619C8.70312 136.951 9.21875 137.117 9.82422 137.117C10.3477 137.117 10.7773 137.021 11.1133 136.83C11.4531 136.635 11.6934 136.41 11.834 136.156C11.8496 136.309 11.8789 136.463 11.9219 136.619C11.9648 136.775 12.0117 136.902 12.0625 137H13.3398V136.906C13.2656 136.738 13.207 136.543 13.1641 136.32C13.125 136.094 13.1055 135.854 13.1055 135.6V132.699C13.1055 131.988 12.8848 131.457 12.4434 131.105C12.0059 130.754 11.3926 130.578 10.6035 130.578C9.81445 130.578 9.18359 130.764 8.71094 131.135C8.23828 131.506 8.00195 131.947 8.00195 132.459V132.506H9.29688V132.459C9.29688 132.217 9.39453 132.006 9.58984 131.826C9.78516 131.643 10.1094 131.551 10.5625 131.551C11.0156 131.551 11.334 131.658 11.5176 131.873C11.7051 132.084 11.7988 132.357 11.7988 132.693V133.127H10.4219C9.61719 133.127 8.95312 133.305 8.42969 133.66C7.90625 134.012 7.64453 134.512 7.64453 135.16ZM8.95117 135.084C8.95117 134.748 9.08594 134.484 9.35547 134.293C9.62891 134.098 10.0332 134 10.5684 134H11.7988V134.809C11.7988 135.137 11.6328 135.441 11.3008 135.723C10.9688 136 10.5898 136.139 10.1641 136.139C9.74609 136.139 9.43945 136.045 9.24414 135.857C9.04883 135.67 8.95117 135.412 8.95117 135.084ZM15.2871 137H16.5938V132.67C16.7383 132.377 16.9316 132.141 17.1738 131.961C17.416 131.781 17.7012 131.691 18.0293 131.691C18.4043 131.691 18.6934 131.797 18.8965 132.008C19.0996 132.215 19.2012 132.557 19.2012 133.033V137H20.5137V132.67C20.6582 132.377 20.8516 132.141 21.0938 131.961C21.3398 131.781 21.625 131.691 21.9492 131.691C22.3281 131.691 22.6172 131.797 22.8164 132.008C23.0195 132.215 23.1211 132.555 23.1211 133.027V137H24.4277V133.062C24.4277 132.188 24.2383 131.564 23.8594 131.193C23.4844 130.818 22.9688 130.631 22.3125 130.631C21.8945 130.631 21.5156 130.717 21.1758 130.889C20.8359 131.061 20.5391 131.33 20.2852 131.697H20.2559C20.0996 131.334 19.8633 131.066 19.5469 130.895C19.2344 130.719 18.8613 130.631 18.4277 130.631C18.0449 130.631 17.6934 130.711 17.373 130.871C17.0566 131.031 16.7891 131.252 16.5703 131.533H16.5352L16.4883 130.754H15.2871V137ZM26.5566 139.438H27.8633V136.291C28.0391 136.545 28.2832 136.746 28.5957 136.895C28.9121 137.043 29.2871 137.117 29.7207 137.117C30.5254 137.117 31.1699 136.822 31.6543 136.232C32.1387 135.643 32.3809 134.889 32.3809 133.971V133.783C32.3809 132.861 32.1367 132.105 31.6484 131.516C31.1641 130.926 30.5176 130.631 29.709 130.631C29.2754 130.631 28.8926 130.719 28.5605 130.895C28.2285 131.07 27.9863 131.283 27.834 131.533H27.7988L27.7578 130.754H26.5566V139.438ZM27.8633 135.066V132.676C27.9805 132.414 28.1719 132.182 28.4375 131.979C28.7031 131.771 29.0273 131.668 29.4102 131.668C29.9727 131.668 30.3848 131.867 30.6465 132.266C30.9121 132.66 31.0449 133.158 31.0449 133.76V133.988C31.0449 134.594 30.9121 135.094 30.6465 135.488C30.3848 135.883 29.9727 136.08 29.4102 136.08C29.0312 136.08 28.707 135.979 28.4375 135.775C28.1719 135.568 27.9805 135.332 27.8633 135.066ZM34.2578 137H35.5645V128.006H34.2578V137ZM37.4238 133.971C37.4238 134.916 37.6934 135.688 38.2324 136.285C38.7754 136.879 39.5469 137.176 40.5469 137.176C41.1641 137.176 41.6914 137.051 42.1289 136.801C42.5664 136.551 42.8828 136.268 43.0781 135.951L42.2168 135.301C42.041 135.531 41.8145 135.732 41.5371 135.904C41.2598 136.072 40.9277 136.156 40.541 136.156C39.9316 136.156 39.4785 135.949 39.1816 135.535C38.8887 135.121 38.7422 134.605 38.7422 133.988V133.76C38.7422 133.139 38.8809 132.621 39.1582 132.207C39.4395 131.793 39.8516 131.586 40.3945 131.586C40.8828 131.586 41.2461 131.738 41.4844 132.043C41.7266 132.344 41.8477 132.709 41.8477 133.139V133.232H38.2676V134.188H43.1543V133.678C43.1543 132.721 42.9121 131.965 42.4277 131.41C41.9473 130.852 41.2637 130.572 40.377 130.572C39.4941 130.572 38.7812 130.871 38.2383 131.469C37.6953 132.062 37.4238 132.834 37.4238 133.783V133.971Z"
            fill="var(--tertiary, #1660A5)"/>
    </g>
    <g id="file-content">
      <path id="Vector 92" d="M70 105L39 74" stroke="var(--on-surface, #001F24)" stroke-width="2" stroke-linecap="round"/>
      <path id="Vector 105" d="M39 52L70 21" stroke="var(--on-surface, #001F24)" stroke-width="2" stroke-linecap="round"/>
    </g>
    <g id="species ids">
      <g id="identifiers">
        <path id="Vector 93" d="M79 21H129" stroke="var(--tertiary, #1660A5)" stroke-width="4" stroke-linecap="round"/>
        <path id="Vector 94" d="M79 31.5H129" stroke="var(--tertiary, #1660A5)" stroke-width="4" stroke-linecap="round"/>
        <path id="Vector 95" d="M79 42H129" stroke="var(--tertiary, #1660A5)" stroke-width="4" stroke-linecap="round"/>
        <path id="Vector 96" d="M79 52.5H129" stroke="var(--tertiary, #1660A5)" stroke-width="4" stroke-linecap="round"/>
        <path id="Vector 97" d="M79 63H129" stroke="var(--tertiary, #1660A5)" stroke-width="4" stroke-linecap="round"/>
        <path id="Vector 98" d="M79 73.5H129" stroke="var(--tertiary, #1660A5)" stroke-width="4" stroke-linecap="round"/>
        <path id="Vector 99" d="M79 84H129" stroke="var(--tertiary, #1660A5)" stroke-width="4" stroke-linecap="round"/>
        <path id="Vector 100" d="M79 94.5H129" stroke="var(--tertiary, #1660A5)" stroke-width="4" stroke-linecap="round"/>
        <path id="Vector 101" d="M79 105H129" stroke="var(--tertiary, #1660A5)" stroke-width="4" stroke-linecap="round"/>
      </g>
      <path id="Species A&#226;&#128;&#168;Identifiers"
            d="M75.2871 122.633C75.2871 123.426 75.5859 124.049 76.1836 124.502C76.7812 124.951 77.5684 125.176 78.5449 125.176C79.5254 125.176 80.3027 124.949 80.877 124.496C81.4551 124.043 81.7441 123.449 81.7441 122.715C81.7441 121.988 81.5156 121.426 81.0586 121.027C80.6055 120.629 79.9082 120.307 78.9668 120.061C78.084 119.822 77.502 119.605 77.2207 119.41C76.9434 119.215 76.8047 118.939 76.8047 118.584C76.8047 118.225 76.9414 117.938 77.2148 117.723C77.4883 117.504 77.9121 117.395 78.4863 117.395C79.0645 117.395 79.5 117.523 79.793 117.781C80.0859 118.039 80.2324 118.381 80.2324 118.807V118.895H81.5801V118.801C81.5801 118.078 81.2988 117.48 80.7363 117.008C80.1777 116.531 79.4277 116.293 78.4863 116.293C77.5449 116.293 76.8027 116.518 76.2598 116.967C75.7207 117.412 75.4512 117.98 75.4512 118.672C75.4551 119.352 75.6641 119.879 76.0781 120.254C76.4922 120.625 77.1738 120.938 78.123 121.191C79.041 121.434 79.6484 121.662 79.9453 121.877C80.2461 122.092 80.3965 122.385 80.3965 122.756C80.3965 123.15 80.2363 123.471 79.916 123.717C79.5996 123.959 79.1426 124.08 78.5449 124.08C77.9473 124.08 77.4805 123.959 77.1445 123.717C76.8125 123.475 76.6465 123.111 76.6465 122.627V122.539H75.2871V122.633ZM83.5449 127.438H84.8516V124.291C85.0273 124.545 85.2715 124.746 85.584 124.895C85.9004 125.043 86.2754 125.117 86.709 125.117C87.5137 125.117 88.1582 124.822 88.6426 124.232C89.127 123.643 89.3691 122.889 89.3691 121.971V121.783C89.3691 120.861 89.125 120.105 88.6367 119.516C88.1523 118.926 87.5059 118.631 86.6973 118.631C86.2637 118.631 85.8809 118.719 85.5488 118.895C85.2168 119.07 84.9746 119.283 84.8223 119.533H84.7871L84.7461 118.754H83.5449V127.438ZM84.8516 123.066V120.676C84.9688 120.414 85.1602 120.182 85.4258 119.979C85.6914 119.771 86.0156 119.668 86.3984 119.668C86.9609 119.668 87.373 119.867 87.6348 120.266C87.9004 120.66 88.0332 121.158 88.0332 121.76V121.988C88.0332 122.594 87.9004 123.094 87.6348 123.488C87.373 123.883 86.9609 124.08 86.3984 124.08C86.0195 124.08 85.6953 123.979 85.4258 123.775C85.1602 123.568 84.9688 123.332 84.8516 123.066ZM90.8418 121.971C90.8418 122.916 91.1113 123.688 91.6504 124.285C92.1934 124.879 92.9648 125.176 93.9648 125.176C94.582 125.176 95.1094 125.051 95.5469 124.801C95.9844 124.551 96.3008 124.268 96.4961 123.951L95.6348 123.301C95.459 123.531 95.2324 123.732 94.9551 123.904C94.6777 124.072 94.3457 124.156 93.959 124.156C93.3496 124.156 92.8965 123.949 92.5996 123.535C92.3066 123.121 92.1602 122.605 92.1602 121.988V121.76C92.1602 121.139 92.2988 120.621 92.5762 120.207C92.8574 119.793 93.2695 119.586 93.8125 119.586C94.3008 119.586 94.6641 119.738 94.9023 120.043C95.1445 120.344 95.2656 120.709 95.2656 121.139V121.232H91.6855V122.188H96.5723V121.678C96.5723 120.721 96.3301 119.965 95.8457 119.41C95.3652 118.852 94.6816 118.572 93.7949 118.572C92.9121 118.572 92.1992 118.871 91.6562 119.469C91.1133 120.062 90.8418 120.834 90.8418 121.783V121.971ZM97.9863 121.971C97.9863 122.92 98.2559 123.691 98.7949 124.285C99.3379 124.879 100.076 125.176 101.01 125.176C101.881 125.176 102.543 124.949 102.996 124.496C103.453 124.043 103.682 123.531 103.682 122.961V122.926H102.41V122.961C102.41 123.273 102.299 123.551 102.076 123.793C101.857 124.031 101.5 124.15 101.004 124.15C100.43 124.15 100.006 123.945 99.7324 123.535C99.459 123.121 99.3223 122.605 99.3223 121.988V121.76C99.3223 121.143 99.459 120.629 99.7324 120.219C100.01 119.805 100.434 119.598 101.004 119.598C101.492 119.598 101.848 119.717 102.07 119.955C102.297 120.193 102.412 120.471 102.416 120.787V120.828H103.688L103.682 120.781C103.674 120.211 103.443 119.701 102.99 119.252C102.541 118.799 101.881 118.572 101.01 118.572C100.076 118.572 99.3379 118.869 98.7949 119.463C98.2559 120.057 97.9863 120.83 97.9863 121.783V121.971ZM105.459 125H106.766V118.754H105.459V125ZM105.324 116.949C105.324 117.156 105.391 117.332 105.523 117.477C105.66 117.617 105.855 117.688 106.109 117.688C106.363 117.688 106.557 117.617 106.689 117.477C106.826 117.336 106.895 117.16 106.895 116.949C106.895 116.742 106.826 116.568 106.689 116.428C106.557 116.283 106.363 116.211 106.109 116.211C105.855 116.211 105.66 116.283 105.523 116.428C105.391 116.568 105.324 116.742 105.324 116.949ZM108.631 121.971C108.631 122.916 108.9 123.688 109.439 124.285C109.982 124.879 110.754 125.176 111.754 125.176C112.371 125.176 112.898 125.051 113.336 124.801C113.773 124.551 114.09 124.268 114.285 123.951L113.424 123.301C113.248 123.531 113.021 123.732 112.744 123.904C112.467 124.072 112.135 124.156 111.748 124.156C111.139 124.156 110.686 123.949 110.389 123.535C110.096 123.121 109.949 122.605 109.949 121.988V121.76C109.949 121.139 110.088 120.621 110.365 120.207C110.646 119.793 111.059 119.586 111.602 119.586C112.09 119.586 112.453 119.738 112.691 120.043C112.934 120.344 113.055 120.709 113.055 121.139V121.232H109.475V122.188H114.361V121.678C114.361 120.721 114.119 119.965 113.635 119.41C113.154 118.852 112.471 118.572 111.584 118.572C110.701 118.572 109.988 118.871 109.445 119.469C108.902 120.062 108.631 120.834 108.631 121.783V121.971ZM115.74 123.125V123.166C115.74 123.779 115.971 124.268 116.432 124.631C116.893 124.994 117.557 125.176 118.424 125.176C119.295 125.176 119.949 124.996 120.387 124.637C120.828 124.277 121.049 123.811 121.049 123.236C121.049 122.689 120.867 122.266 120.504 121.965C120.141 121.66 119.605 121.434 118.898 121.285C118.191 121.133 117.732 120.992 117.521 120.863C117.314 120.73 117.211 120.553 117.211 120.33C117.211 120.111 117.303 119.93 117.486 119.785C117.674 119.637 117.975 119.562 118.389 119.562C118.807 119.562 119.113 119.645 119.309 119.809C119.508 119.973 119.607 120.197 119.607 120.482V120.541H120.902V120.5C120.902 119.914 120.674 119.447 120.217 119.1C119.76 118.748 119.152 118.572 118.395 118.572C117.637 118.572 117.033 118.744 116.584 119.088C116.139 119.432 115.916 119.871 115.916 120.406C115.916 120.918 116.104 121.324 116.479 121.625C116.857 121.922 117.402 122.145 118.113 122.293C118.812 122.445 119.26 122.59 119.455 122.727C119.654 122.859 119.754 123.057 119.754 123.318C119.754 123.576 119.637 123.785 119.402 123.945C119.168 124.105 118.842 124.186 118.424 124.186C118.006 124.186 117.67 124.102 117.416 123.934C117.166 123.766 117.041 123.512 117.041 123.172V123.125H115.74ZM125.412 125H126.713L129.027 118.701C129.074 118.564 129.115 118.434 129.15 118.309C129.189 118.184 129.223 118.057 129.25 117.928H129.303C129.334 118.057 129.367 118.184 129.402 118.309C129.438 118.434 129.48 118.564 129.531 118.701L131.828 125H133.252L129.982 116.416H128.664L125.412 125ZM126.918 122.885L131.682 122.891L131.307 121.824L127.299 121.818L126.918 122.885ZM75.2129 137H76.5664V128.469H75.2129V137ZM78.543 133.971C78.543 134.885 78.7852 135.639 79.2695 136.232C79.7578 136.822 80.4121 137.117 81.2324 137.117C81.6621 137.117 82.041 137.029 82.3691 136.854C82.6973 136.678 82.9375 136.465 83.0898 136.215H83.1191L83.166 137H84.373V128.006H83.0664V131.457C82.8906 131.211 82.6484 131.014 82.3398 130.865C82.0312 130.713 81.6602 130.637 81.2266 130.637C80.418 130.637 79.7676 130.932 79.2754 131.521C78.7871 132.111 78.543 132.865 78.543 133.783V133.971ZM79.8789 133.988V133.76C79.8789 133.166 80.0137 132.67 80.2832 132.271C80.5527 131.869 80.9668 131.668 81.5254 131.668C81.9082 131.668 82.2305 131.77 82.4922 131.973C82.7578 132.176 82.9492 132.41 83.0664 132.676V135.072C82.9492 135.338 82.7578 135.572 82.4922 135.775C82.2266 135.979 81.9043 136.08 81.5254 136.08C80.9629 136.08 80.5469 135.881 80.2773 135.482C80.0117 135.084 79.8789 134.586 79.8789 133.988ZM86.2031 133.971C86.2031 134.916 86.4727 135.688 87.0117 136.285C87.5547 136.879 88.3262 137.176 89.3262 137.176C89.9434 137.176 90.4707 137.051 90.9082 136.801C91.3457 136.551 91.6621 136.268 91.8574 135.951L90.9961 135.301C90.8203 135.531 90.5938 135.732 90.3164 135.904C90.0391 136.072 89.707 136.156 89.3203 136.156C88.7109 136.156 88.2578 135.949 87.9609 135.535C87.668 135.121 87.5215 134.605 87.5215 133.988V133.76C87.5215 133.139 87.6602 132.621 87.9375 132.207C88.2188 131.793 88.6309 131.586 89.1738 131.586C89.6621 131.586 90.0254 131.738 90.2637 132.043C90.5059 132.344 90.627 132.709 90.627 133.139V133.232H87.0469V134.188H91.9336V133.678C91.9336 132.721 91.6914 131.965 91.207 131.41C90.7266 130.852 90.043 130.572 89.1562 130.572C88.2734 130.572 87.5605 130.871 87.0176 131.469C86.4746 132.062 86.2031 132.834 86.2031 133.783V133.971ZM93.7109 137H95.0176V132.664C95.1621 132.375 95.3633 132.141 95.6211 131.961C95.8789 131.781 96.1758 131.691 96.5117 131.691C96.9023 131.691 97.2031 131.793 97.4141 131.996C97.6289 132.199 97.7363 132.539 97.7363 133.016V137H99.043V133.039C99.043 132.164 98.8477 131.545 98.457 131.182C98.0703 130.814 97.5527 130.631 96.9043 130.631C96.5059 130.631 96.1406 130.711 95.8086 130.871C95.4805 131.031 95.209 131.252 94.9941 131.533H94.959L94.918 130.754H93.7109V137ZM100.328 131.732H104.02V130.754H100.328V131.732ZM101.406 135.365C101.406 135.99 101.557 136.449 101.857 136.742C102.158 137.031 102.559 137.176 103.059 137.176C103.258 137.176 103.439 137.158 103.604 137.123C103.771 137.088 103.904 137.047 104.002 137V135.986C103.9 136.025 103.797 136.057 103.691 136.08C103.59 136.104 103.486 136.115 103.381 136.115C103.154 136.115 102.986 136.059 102.877 135.945C102.768 135.828 102.713 135.631 102.713 135.354V129.324H101.406V131.141V131.316V135.365ZM105.691 137H106.998V130.754H105.691V137ZM105.557 128.949C105.557 129.156 105.623 129.332 105.756 129.477C105.893 129.617 106.088 129.688 106.342 129.688C106.596 129.688 106.789 129.617 106.922 129.477C107.059 129.336 107.127 129.16 107.127 128.949C107.127 128.742 107.059 128.568 106.922 128.428C106.789 128.283 106.596 128.211 106.342 128.211C106.088 128.211 105.893 128.283 105.756 128.428C105.623 128.568 105.557 128.742 105.557 128.949ZM109.508 137H110.814V131.293V131.164V130.109C110.814 129.719 110.906 129.426 111.09 129.23C111.277 129.035 111.543 128.938 111.887 128.938C111.984 128.938 112.082 128.943 112.18 128.955C112.277 128.967 112.367 128.98 112.449 128.996L112.508 127.982C112.391 127.951 112.266 127.928 112.133 127.912C112 127.896 111.867 127.889 111.734 127.889C111.059 127.889 110.518 128.076 110.111 128.451C109.709 128.826 109.508 129.377 109.508 130.104V137ZM108.529 131.732H112.115V130.754H110.27H110.006H108.529V131.732ZM112.953 137H114.26V130.754H112.953V137ZM112.818 128.949C112.818 129.156 112.885 129.332 113.018 129.477C113.154 129.617 113.35 129.688 113.604 129.688C113.857 129.688 114.051 129.617 114.184 129.477C114.32 129.336 114.389 129.16 114.389 128.949C114.389 128.742 114.32 128.568 114.184 128.428C114.051 128.283 113.857 128.211 113.604 128.211C113.35 128.211 113.154 128.283 113.018 128.428C112.885 128.568 112.818 128.742 112.818 128.949ZM116.125 133.971C116.125 134.916 116.395 135.688 116.934 136.285C117.477 136.879 118.248 137.176 119.248 137.176C119.865 137.176 120.393 137.051 120.83 136.801C121.268 136.551 121.584 136.268 121.779 135.951L120.918 135.301C120.742 135.531 120.516 135.732 120.238 135.904C119.961 136.072 119.629 136.156 119.242 136.156C118.633 136.156 118.18 135.949 117.883 135.535C117.59 135.121 117.443 134.605 117.443 133.988V133.76C117.443 133.139 117.582 132.621 117.859 132.207C118.141 131.793 118.553 131.586 119.096 131.586C119.584 131.586 119.947 131.738 120.186 132.043C120.428 132.344 120.549 132.709 120.549 133.139V133.232H116.969V134.188H121.855V133.678C121.855 132.721 121.613 131.965 121.129 131.41C120.648 130.852 119.965 130.572 119.078 130.572C118.195 130.572 117.482 130.871 116.939 131.469C116.396 132.062 116.125 132.834 116.125 133.783V133.971ZM123.633 137H124.939V132.729C125.057 132.459 125.236 132.236 125.479 132.061C125.721 131.881 126.012 131.791 126.352 131.791C126.453 131.791 126.545 131.795 126.627 131.803C126.713 131.811 126.795 131.822 126.873 131.838V130.66C126.834 130.645 126.768 130.627 126.674 130.607C126.584 130.588 126.496 130.578 126.41 130.578C126.07 130.578 125.773 130.672 125.52 130.859C125.27 131.047 125.068 131.268 124.916 131.521H124.887L124.84 130.754H123.633V137ZM128 135.125V135.166C128 135.779 128.23 136.268 128.691 136.631C129.152 136.994 129.816 137.176 130.684 137.176C131.555 137.176 132.209 136.996 132.646 136.637C133.088 136.277 133.309 135.811 133.309 135.236C133.309 134.689 133.127 134.266 132.764 133.965C132.4 133.66 131.865 133.434 131.158 133.285C130.451 133.133 129.992 132.992 129.781 132.863C129.574 132.73 129.471 132.553 129.471 132.33C129.471 132.111 129.562 131.93 129.746 131.785C129.934 131.637 130.234 131.562 130.648 131.562C131.066 131.562 131.373 131.645 131.568 131.809C131.768 131.973 131.867 132.197 131.867 132.482V132.541H133.162V132.5C133.162 131.914 132.934 131.447 132.477 131.1C132.02 130.748 131.412 130.572 130.654 130.572C129.896 130.572 129.293 130.744 128.844 131.088C128.398 131.432 128.176 131.871 128.176 132.406C128.176 132.918 128.363 133.324 128.738 133.625C129.117 133.922 129.662 134.145 130.373 134.293C131.072 134.445 131.52 134.59 131.715 134.727C131.914 134.859 132.014 135.057 132.014 135.318C132.014 135.576 131.896 135.785 131.662 135.945C131.428 136.105 131.102 136.186 130.684 136.186C130.266 136.186 129.93 136.102 129.676 135.934C129.426 135.766 129.301 135.512 129.301 135.172V135.125H128Z"
            fill="var(--tertiary, #1660A5)"/>
    </g>
    <g id="projection">
      <g id="human ids">
        <path id="Human&#226;&#128;&#168;Identifiers"
              d="M234.834 125H236.182V121.139H240.324V125H241.672V116.469H240.324V120.061H236.182V116.469H234.834V125ZM243.93 122.691C243.93 123.562 244.123 124.186 244.51 124.561C244.9 124.932 245.416 125.117 246.057 125.117C246.455 125.117 246.82 125.039 247.152 124.883C247.484 124.723 247.76 124.5 247.979 124.215H248.014L248.055 125H249.262V118.754H247.955V123.084C247.811 123.369 247.609 123.604 247.352 123.787C247.098 123.971 246.803 124.062 246.467 124.062C246.076 124.062 245.773 123.959 245.559 123.752C245.344 123.545 245.236 123.199 245.236 122.715V118.754H243.93V122.691ZM251.449 125H252.756V120.67C252.9 120.377 253.094 120.141 253.336 119.961C253.578 119.781 253.863 119.691 254.191 119.691C254.566 119.691 254.855 119.797 255.059 120.008C255.262 120.215 255.363 120.557 255.363 121.033V125H256.676V120.67C256.82 120.377 257.014 120.141 257.256 119.961C257.502 119.781 257.787 119.691 258.111 119.691C258.49 119.691 258.779 119.797 258.979 120.008C259.182 120.215 259.283 120.555 259.283 121.027V125H260.59V121.062C260.59 120.188 260.4 119.564 260.021 119.193C259.646 118.818 259.131 118.631 258.475 118.631C258.057 118.631 257.678 118.717 257.338 118.889C256.998 119.061 256.701 119.33 256.447 119.697H256.418C256.262 119.334 256.025 119.066 255.709 118.895C255.396 118.719 255.023 118.631 254.59 118.631C254.207 118.631 253.855 118.711 253.535 118.871C253.219 119.031 252.951 119.252 252.732 119.533H252.697L252.65 118.754H251.449V125ZM262.385 123.16C262.385 123.797 262.596 124.283 263.018 124.619C263.443 124.951 263.959 125.117 264.564 125.117C265.088 125.117 265.518 125.021 265.854 124.83C266.193 124.635 266.434 124.41 266.574 124.156C266.59 124.309 266.619 124.463 266.662 124.619C266.705 124.775 266.752 124.902 266.803 125H268.08V124.906C268.006 124.738 267.947 124.543 267.904 124.32C267.865 124.094 267.846 123.854 267.846 123.6V120.699C267.846 119.988 267.625 119.457 267.184 119.105C266.746 118.754 266.133 118.578 265.344 118.578C264.555 118.578 263.924 118.764 263.451 119.135C262.979 119.506 262.742 119.947 262.742 120.459V120.506H264.037V120.459C264.037 120.217 264.135 120.006 264.33 119.826C264.525 119.643 264.85 119.551 265.303 119.551C265.756 119.551 266.074 119.658 266.258 119.873C266.445 120.084 266.539 120.357 266.539 120.693V121.127H265.162C264.357 121.127 263.693 121.305 263.17 121.66C262.646 122.012 262.385 122.512 262.385 123.16ZM263.691 123.084C263.691 122.748 263.826 122.484 264.096 122.293C264.369 122.098 264.773 122 265.309 122H266.539V122.809C266.539 123.137 266.373 123.441 266.041 123.723C265.709 124 265.33 124.139 264.904 124.139C264.486 124.139 264.18 124.045 263.984 123.857C263.789 123.67 263.691 123.412 263.691 123.084ZM270.027 125H271.334V120.664C271.479 120.375 271.68 120.141 271.938 119.961C272.195 119.781 272.492 119.691 272.828 119.691C273.219 119.691 273.52 119.793 273.73 119.996C273.945 120.199 274.053 120.539 274.053 121.016V125H275.359V121.039C275.359 120.164 275.164 119.545 274.773 119.182C274.387 118.814 273.869 118.631 273.221 118.631C272.822 118.631 272.457 118.711 272.125 118.871C271.797 119.031 271.525 119.252 271.311 119.533H271.275L271.234 118.754H270.027V125ZM226.213 137H227.566V128.469H226.213V137ZM229.543 133.971C229.543 134.885 229.785 135.639 230.27 136.232C230.758 136.822 231.412 137.117 232.232 137.117C232.662 137.117 233.041 137.029 233.369 136.854C233.697 136.678 233.938 136.465 234.09 136.215H234.119L234.166 137H235.373V128.006H234.066V131.457C233.891 131.211 233.648 131.014 233.34 130.865C233.031 130.713 232.66 130.637 232.227 130.637C231.418 130.637 230.768 130.932 230.275 131.521C229.787 132.111 229.543 132.865 229.543 133.783V133.971ZM230.879 133.988V133.76C230.879 133.166 231.014 132.67 231.283 132.271C231.553 131.869 231.967 131.668 232.525 131.668C232.908 131.668 233.23 131.77 233.492 131.973C233.758 132.176 233.949 132.41 234.066 132.676V135.072C233.949 135.338 233.758 135.572 233.492 135.775C233.227 135.979 232.904 136.08 232.525 136.08C231.963 136.08 231.547 135.881 231.277 135.482C231.012 135.084 230.879 134.586 230.879 133.988ZM237.203 133.971C237.203 134.916 237.473 135.688 238.012 136.285C238.555 136.879 239.326 137.176 240.326 137.176C240.943 137.176 241.471 137.051 241.908 136.801C242.346 136.551 242.662 136.268 242.857 135.951L241.996 135.301C241.82 135.531 241.594 135.732 241.316 135.904C241.039 136.072 240.707 136.156 240.32 136.156C239.711 136.156 239.258 135.949 238.961 135.535C238.668 135.121 238.521 134.605 238.521 133.988V133.76C238.521 133.139 238.66 132.621 238.938 132.207C239.219 131.793 239.631 131.586 240.174 131.586C240.662 131.586 241.025 131.738 241.264 132.043C241.506 132.344 241.627 132.709 241.627 133.139V133.232H238.047V134.188H242.934V133.678C242.934 132.721 242.691 131.965 242.207 131.41C241.727 130.852 241.043 130.572 240.156 130.572C239.273 130.572 238.561 130.871 238.018 131.469C237.475 132.062 237.203 132.834 237.203 133.783V133.971ZM244.711 137H246.018V132.664C246.162 132.375 246.363 132.141 246.621 131.961C246.879 131.781 247.176 131.691 247.512 131.691C247.902 131.691 248.203 131.793 248.414 131.996C248.629 132.199 248.736 132.539 248.736 133.016V137H250.043V133.039C250.043 132.164 249.848 131.545 249.457 131.182C249.07 130.814 248.553 130.631 247.904 130.631C247.506 130.631 247.141 130.711 246.809 130.871C246.48 131.031 246.209 131.252 245.994 131.533H245.959L245.918 130.754H244.711V137ZM251.328 131.732H255.02V130.754H251.328V131.732ZM252.406 135.365C252.406 135.99 252.557 136.449 252.857 136.742C253.158 137.031 253.559 137.176 254.059 137.176C254.258 137.176 254.439 137.158 254.604 137.123C254.771 137.088 254.904 137.047 255.002 137V135.986C254.9 136.025 254.797 136.057 254.691 136.08C254.59 136.104 254.486 136.115 254.381 136.115C254.154 136.115 253.986 136.059 253.877 135.945C253.768 135.828 253.713 135.631 253.713 135.354V129.324H252.406V131.141V131.316V135.365ZM256.691 137H257.998V130.754H256.691V137ZM256.557 128.949C256.557 129.156 256.623 129.332 256.756 129.477C256.893 129.617 257.088 129.688 257.342 129.688C257.596 129.688 257.789 129.617 257.922 129.477C258.059 129.336 258.127 129.16 258.127 128.949C258.127 128.742 258.059 128.568 257.922 128.428C257.789 128.283 257.596 128.211 257.342 128.211C257.088 128.211 256.893 128.283 256.756 128.428C256.623 128.568 256.557 128.742 256.557 128.949ZM260.508 137H261.814V131.293V131.164V130.109C261.814 129.719 261.906 129.426 262.09 129.23C262.277 129.035 262.543 128.938 262.887 128.938C262.984 128.938 263.082 128.943 263.18 128.955C263.277 128.967 263.367 128.98 263.449 128.996L263.508 127.982C263.391 127.951 263.266 127.928 263.133 127.912C263 127.896 262.867 127.889 262.734 127.889C262.059 127.889 261.518 128.076 261.111 128.451C260.709 128.826 260.508 129.377 260.508 130.104V137ZM259.529 131.732H263.115V130.754H261.27H261.006H259.529V131.732ZM263.953 137H265.26V130.754H263.953V137ZM263.818 128.949C263.818 129.156 263.885 129.332 264.018 129.477C264.154 129.617 264.35 129.688 264.604 129.688C264.857 129.688 265.051 129.617 265.184 129.477C265.32 129.336 265.389 129.16 265.389 128.949C265.389 128.742 265.32 128.568 265.184 128.428C265.051 128.283 264.857 128.211 264.604 128.211C264.35 128.211 264.154 128.283 264.018 128.428C263.885 128.568 263.818 128.742 263.818 128.949ZM267.125 133.971C267.125 134.916 267.395 135.688 267.934 136.285C268.477 136.879 269.248 137.176 270.248 137.176C270.865 137.176 271.393 137.051 271.83 136.801C272.268 136.551 272.584 136.268 272.779 135.951L271.918 135.301C271.742 135.531 271.516 135.732 271.238 135.904C270.961 136.072 270.629 136.156 270.242 136.156C269.633 136.156 269.18 135.949 268.883 135.535C268.59 135.121 268.443 134.605 268.443 133.988V133.76C268.443 133.139 268.582 132.621 268.859 132.207C269.141 131.793 269.553 131.586 270.096 131.586C270.584 131.586 270.947 131.738 271.186 132.043C271.428 132.344 271.549 132.709 271.549 133.139V133.232H267.969V134.188H272.855V133.678C272.855 132.721 272.613 131.965 272.129 131.41C271.648 130.852 270.965 130.572 270.078 130.572C269.195 130.572 268.482 130.871 267.939 131.469C267.396 132.062 267.125 132.834 267.125 133.783V133.971ZM274.633 137H275.939V132.729C276.057 132.459 276.236 132.236 276.479 132.061C276.721 131.881 277.012 131.791 277.352 131.791C277.453 131.791 277.545 131.795 277.627 131.803C277.713 131.811 277.795 131.822 277.873 131.838V130.66C277.834 130.645 277.768 130.627 277.674 130.607C277.584 130.588 277.496 130.578 277.41 130.578C277.07 130.578 276.773 130.672 276.52 130.859C276.27 131.047 276.068 131.268 275.916 131.521H275.887L275.84 130.754H274.633V137ZM279 135.125V135.166C279 135.779 279.23 136.268 279.691 136.631C280.152 136.994 280.816 137.176 281.684 137.176C282.555 137.176 283.209 136.996 283.646 136.637C284.088 136.277 284.309 135.811 284.309 135.236C284.309 134.689 284.127 134.266 283.764 133.965C283.4 133.66 282.865 133.434 282.158 133.285C281.451 133.133 280.992 132.992 280.781 132.863C280.574 132.73 280.471 132.553 280.471 132.33C280.471 132.111 280.562 131.93 280.746 131.785C280.934 131.637 281.234 131.562 281.648 131.562C282.066 131.562 282.373 131.645 282.568 131.809C282.768 131.973 282.867 132.197 282.867 132.482V132.541H284.162V132.5C284.162 131.914 283.934 131.447 283.477 131.1C283.02 130.748 282.412 130.572 281.654 130.572C280.896 130.572 280.293 130.744 279.844 131.088C279.398 131.432 279.176 131.871 279.176 132.406C279.176 132.918 279.363 133.324 279.738 133.625C280.117 133.922 280.662 134.145 281.373 134.293C282.072 134.445 282.52 134.59 282.715 134.727C282.914 134.859 283.014 135.057 283.014 135.318C283.014 135.576 282.896 135.785 282.662 135.945C282.428 136.105 282.102 136.186 281.684 136.186C281.266 136.186 280.93 136.102 280.676 135.934C280.426 135.766 280.301 135.512 280.301 135.172V135.125H279Z"
              fill="var(--primary, #006782)"/>
        <g id="identifiers_2">
          <path id="Vector 93_2" d="M230 21H280" stroke="var(--primary, #006782)" stroke-width="4" stroke-linecap="round"/>
          <path id="Vector 94_2" d="M230 31.5H280" stroke="var(--primary, #006782)" stroke-width="4" stroke-linecap="round"/>
          <path id="Vector 95_2" d="M230 42H280" stroke="var(--primary, #006782)" stroke-width="4" stroke-linecap="round"/>
          <path id="Vector 96_2" d="M230 52.5H280" stroke="var(--primary, #006782)" stroke-width="4" stroke-linecap="round"/>
          <path id="Vector 97_2" d="M230 63H280" stroke="var(--primary, #006782)" stroke-width="4" stroke-linecap="round"/>
          <path id="Vector 98_2" d="M230 73.5H280" stroke="var(--primary, #006782)" stroke-width="4" stroke-linecap="round"/>
          <path id="Vector 99_2" d="M230 84H280" stroke="var(--primary, #006782)" stroke-width="4" stroke-linecap="round"/>
          <path id="Vector 100_2" d="M230 94.5H280" stroke="var(--primary, #006782)" stroke-width="4" stroke-linecap="round"/>
          <path id="Vector 101_2" d="M230 105H280" stroke="var(--primary, #006782)" stroke-width="4" stroke-linecap="round"/>
        </g>
      </g>
      <path id="Arrow 1"
            d="M138 62C137.448 62 137 62.4477 137 63C137 63.5523 137.448 64 138 64L138 62ZM221 63L211 57.2265L211 68.7735L221 63ZM138 64L212 64L212 62L138 62L138 64Z"
            fill="var(--on-surface, #001F24)"/>
      <path id="Orthology Projection"
            d="M145.639 74.3379C145.639 75.8874 146.038 77.0859 146.835 77.9336C147.637 78.7812 148.667 79.2051 149.925 79.2051C151.183 79.2051 152.213 78.7812 153.015 77.9336C153.822 77.0859 154.225 75.8874 154.225 74.3379V73.709C154.225 72.1595 153.822 70.9609 153.015 70.1133C152.213 69.2656 151.183 68.8418 149.925 68.8418C148.667 68.8418 147.637 69.2656 146.835 70.1133C146.038 70.9609 145.639 72.1595 145.639 73.709V74.3379ZM147.239 74.3994V73.6475C147.239 72.5264 147.482 71.6605 147.97 71.0498C148.462 70.4346 149.114 70.127 149.925 70.127C150.736 70.127 151.388 70.4346 151.88 71.0498C152.372 71.6605 152.619 72.5264 152.619 73.6475V74.3994C152.619 75.5205 152.372 76.3887 151.88 77.0039C151.388 77.6146 150.736 77.9199 149.925 77.9199C149.114 77.9199 148.462 77.6146 147.97 77.0039C147.482 76.3887 147.239 75.5205 147.239 74.3994ZM156.048 79H157.572V74.0781C157.704 73.7728 157.907 73.5176 158.18 73.3125C158.454 73.1074 158.777 73.0049 159.151 73.0049C159.27 73.0049 159.377 73.0117 159.472 73.0254C159.568 73.0345 159.659 73.0482 159.746 73.0664V71.6924C159.705 71.6742 159.63 71.6536 159.52 71.6309C159.415 71.6081 159.315 71.5967 159.22 71.5967C158.841 71.5967 158.511 71.7061 158.228 71.9248C157.946 72.139 157.72 72.3896 157.552 72.6768H157.511L157.456 71.8018H156.048V79ZM160.4 72.9434H164.611V71.8018H160.4V72.9434ZM161.616 77.0996C161.616 77.8242 161.787 78.3574 162.129 78.6992C162.475 79.0365 162.938 79.2051 163.517 79.2051C163.745 79.2051 163.954 79.1846 164.146 79.1436C164.337 79.1025 164.49 79.0547 164.604 79V77.8174C164.485 77.863 164.367 77.8994 164.248 77.9268C164.134 77.9541 164.016 77.9678 163.893 77.9678C163.642 77.9678 163.453 77.9017 163.325 77.7695C163.198 77.6328 163.134 77.4049 163.134 77.0859V70.0518H161.616V72.2461V72.4512V77.0996ZM166.009 79H167.534V74.0166C167.689 73.6794 167.905 73.4082 168.183 73.2031C168.466 72.998 168.796 72.8955 169.174 72.8955C169.607 72.8955 169.945 73.0117 170.186 73.2441C170.428 73.4766 170.548 73.8617 170.548 74.3994V79H172.073V74.3721C172.073 73.4014 171.854 72.7087 171.417 72.2939C170.984 71.8747 170.432 71.665 169.762 71.665C169.279 71.665 168.846 71.7607 168.463 71.9521C168.085 72.1436 167.775 72.3965 167.534 72.7109V68.5137H166.009V79ZM173.636 75.5068C173.636 76.6097 173.955 77.5029 174.593 78.1865C175.235 78.8656 176.083 79.2051 177.136 79.2051C178.188 79.2051 179.034 78.8656 179.672 78.1865C180.31 77.5029 180.629 76.6097 180.629 75.5068V75.2881C180.629 74.1898 180.31 73.3011 179.672 72.6221C179.034 71.9385 178.188 71.5967 177.136 71.5967C176.083 71.5967 175.235 71.9385 174.593 72.6221C173.955 73.3011 173.636 74.1898 173.636 75.2881V75.5068ZM175.194 75.2539C175.194 74.5339 175.358 73.946 175.687 73.4902C176.019 73.0299 176.502 72.7998 177.136 72.7998C177.765 72.7998 178.243 73.0299 178.571 73.4902C178.904 73.946 179.07 74.5339 179.07 75.2539V75.5479C179.07 76.2679 178.906 76.8558 178.578 77.3115C178.25 77.7673 177.769 77.9951 177.136 77.9951C176.498 77.9951 176.015 77.7673 175.687 77.3115C175.358 76.8558 175.194 76.2679 175.194 75.5479V75.2539ZM182.301 79H183.826V68.5137H182.301V79ZM185.498 75.5068C185.498 76.6097 185.817 77.5029 186.455 78.1865C187.097 78.8656 187.945 79.2051 188.998 79.2051C190.051 79.2051 190.896 78.8656 191.534 78.1865C192.172 77.5029 192.491 76.6097 192.491 75.5068V75.2881C192.491 74.1898 192.172 73.3011 191.534 72.6221C190.896 71.9385 190.051 71.5967 188.998 71.5967C187.945 71.5967 187.097 71.9385 186.455 72.6221C185.817 73.3011 185.498 74.1898 185.498 75.2881V75.5068ZM187.056 75.2539C187.056 74.5339 187.221 73.946 187.549 73.4902C187.881 73.0299 188.364 72.7998 188.998 72.7998C189.627 72.7998 190.105 73.0299 190.433 73.4902C190.766 73.946 190.932 74.5339 190.932 75.2539V75.5479C190.932 76.2679 190.768 76.8558 190.44 77.3115C190.112 77.7673 189.631 77.9951 188.998 77.9951C188.36 77.9951 187.877 77.7673 187.549 77.3115C187.221 76.8558 187.056 76.2679 187.056 75.5479V75.2539ZM194.027 80.9551C194.373 81.2513 194.801 81.4951 195.312 81.6865C195.822 81.8825 196.38 81.9805 196.987 81.9805C197.971 81.9805 198.775 81.7025 199.4 81.1465C200.024 80.5905 200.336 79.793 200.336 78.7539V71.8018H198.928L198.88 72.7041H198.839C198.666 72.4124 198.392 72.1663 198.019 71.9658C197.65 71.7653 197.224 71.665 196.74 71.665C195.824 71.665 195.088 72.0046 194.532 72.6836C193.981 73.3581 193.705 74.2262 193.705 75.2881V75.5068C193.705 76.5732 193.981 77.446 194.532 78.125C195.088 78.7995 195.824 79.1367 196.74 79.1367C197.228 79.1367 197.645 79.0524 197.991 78.8838C198.342 78.7106 198.616 78.4782 198.812 78.1865V78.7676C198.812 79.4056 198.641 79.8932 198.299 80.2305C197.962 80.5677 197.506 80.7363 196.932 80.7363C196.476 80.7363 196.064 80.6497 195.695 80.4766C195.325 80.3034 195.045 80.112 194.854 79.9023L194.027 80.9551ZM195.264 75.541V75.2607C195.264 74.5771 195.412 74.0075 195.708 73.5518C196.009 73.096 196.472 72.8682 197.096 72.8682C197.52 72.8682 197.877 72.9844 198.169 73.2168C198.465 73.4492 198.68 73.7227 198.812 74.0371V76.7783C198.684 77.0791 198.472 77.348 198.176 77.585C197.884 77.8174 197.529 77.9336 197.11 77.9336C196.476 77.9336 196.009 77.7057 195.708 77.25C195.412 76.7943 195.264 76.2246 195.264 75.541ZM201.865 81.8438C201.992 81.8893 202.127 81.9235 202.268 81.9463C202.414 81.9691 202.583 81.9805 202.774 81.9805C203.353 81.9805 203.84 81.8005 204.237 81.4404C204.638 81.085 204.957 80.5791 205.194 79.9229L208.127 71.8018H206.718L205.187 76.3545C205.132 76.5322 205.08 76.6986 205.03 76.8535C204.984 77.0085 204.943 77.1566 204.907 77.2979H204.866C204.829 77.1566 204.788 77.0085 204.743 76.8535C204.702 76.6986 204.649 76.5322 204.586 76.3545L202.965 71.8018H201.462L204.175 78.9658L204.203 78.9727C203.97 79.7064 203.736 80.1849 203.499 80.4082C203.266 80.6315 202.993 80.7432 202.678 80.7432C202.546 80.7432 202.407 80.7318 202.261 80.709C202.12 80.6862 201.99 80.6566 201.872 80.6201L201.865 81.8438ZM145.158 93H146.731V89.2402H148.617C149.734 89.2402 150.591 88.96 151.188 88.3994C151.789 87.8389 152.09 87.0824 152.09 86.1299C152.09 85.1774 151.789 84.4255 151.188 83.874C150.591 83.3226 149.734 83.0469 148.617 83.0469H145.158V93ZM146.731 87.9961V84.291H148.556C149.285 84.291 149.793 84.4642 150.08 84.8105C150.372 85.1523 150.518 85.5921 150.518 86.1299C150.518 86.6676 150.372 87.1143 150.08 87.4697C149.793 87.8206 149.285 87.9961 148.556 87.9961H146.731ZM153.509 93H155.034V88.0781C155.166 87.7728 155.369 87.5176 155.642 87.3125C155.916 87.1074 156.239 87.0049 156.613 87.0049C156.731 87.0049 156.838 87.0117 156.934 87.0254C157.03 87.0345 157.121 87.0482 157.208 87.0664V85.6924C157.167 85.6742 157.091 85.6536 156.982 85.6309C156.877 85.6081 156.777 85.5967 156.681 85.5967C156.303 85.5967 155.973 85.7061 155.69 85.9248C155.407 86.139 155.182 86.3896 155.013 86.6768H154.972L154.918 85.8018H153.509V93ZM157.937 89.5068C157.937 90.6097 158.256 91.5029 158.894 92.1865C159.536 92.8656 160.384 93.2051 161.437 93.2051C162.489 93.2051 163.335 92.8656 163.973 92.1865C164.611 91.5029 164.93 90.6097 164.93 89.5068V89.2881C164.93 88.1898 164.611 87.3011 163.973 86.6221C163.335 85.9385 162.489 85.5967 161.437 85.5967C160.384 85.5967 159.536 85.9385 158.894 86.6221C158.256 87.3011 157.937 88.1898 157.937 89.2881V89.5068ZM159.495 89.2539C159.495 88.5339 159.659 87.946 159.987 87.4902C160.32 87.0299 160.803 86.7998 161.437 86.7998C162.065 86.7998 162.544 87.0299 162.872 87.4902C163.205 87.946 163.371 88.5339 163.371 89.2539V89.5479C163.371 90.2679 163.207 90.8558 162.879 91.3115C162.551 91.7673 162.07 91.9951 161.437 91.9951C160.799 91.9951 160.315 91.7673 159.987 91.3115C159.659 90.8558 159.495 90.2679 159.495 89.5479V89.2539ZM164.975 95.8027C165.084 95.8438 165.258 95.8825 165.495 95.9189C165.732 95.96 165.939 95.9805 166.117 95.9805C166.773 95.9805 167.276 95.7845 167.627 95.3926C167.978 95.0007 168.154 94.39 168.154 93.5605V85.8018H166.629V93.7314C166.629 94.096 166.559 94.3581 166.417 94.5176C166.276 94.6771 166.073 94.7568 165.809 94.7568C165.672 94.7568 165.522 94.7409 165.358 94.709C165.189 94.6771 165.062 94.6475 164.975 94.6201V95.8027ZM166.465 83.6895C166.465 83.931 166.545 84.1361 166.704 84.3047C166.864 84.4733 167.094 84.5576 167.395 84.5576C167.691 84.5576 167.919 84.4733 168.079 84.3047C168.238 84.1361 168.318 83.931 168.318 83.6895C168.318 83.4434 168.238 83.236 168.079 83.0674C167.919 82.8988 167.691 82.8145 167.395 82.8145C167.094 82.8145 166.864 82.8988 166.704 83.0674C166.545 83.236 166.465 83.4434 166.465 83.6895ZM169.826 89.5068C169.826 90.6051 170.134 91.4961 170.749 92.1797C171.369 92.8633 172.246 93.2051 173.381 93.2051C174.082 93.2051 174.682 93.0592 175.179 92.7676C175.68 92.4759 176.044 92.1432 176.272 91.7695L175.247 91.0244C175.051 91.2887 174.796 91.5189 174.481 91.7148C174.171 91.9108 173.8 92.0088 173.367 92.0088C172.693 92.0088 172.189 91.7764 171.856 91.3115C171.528 90.8421 171.364 90.2542 171.364 89.5479V89.2539C171.364 88.5384 171.519 87.9482 171.829 87.4834C172.139 87.014 172.604 86.7793 173.223 86.7793C173.738 86.7793 174.135 86.9479 174.413 87.2852C174.691 87.6178 174.83 88.0234 174.83 88.502V88.6592H170.81V89.7598H176.347V89.165C176.347 88.0667 176.072 87.1986 175.52 86.5605C174.969 85.918 174.192 85.5967 173.189 85.5967C172.187 85.5967 171.375 85.9385 170.756 86.6221C170.136 87.3057 169.826 88.1943 169.826 89.2881V89.5068ZM177.5 89.5068C177.5 90.6097 177.808 91.5029 178.423 92.1865C179.043 92.8656 179.881 93.2051 180.939 93.2051C181.923 93.2051 182.675 92.943 183.195 92.4189C183.719 91.8949 183.981 91.3024 183.981 90.6416V90.5869H182.497V90.6348C182.497 90.9993 182.374 91.3206 182.128 91.5986C181.887 91.8721 181.488 92.0088 180.932 92.0088C180.289 92.0088 179.815 91.7764 179.51 91.3115C179.209 90.8421 179.059 90.2542 179.059 89.5479V89.2539C179.059 88.5475 179.211 87.9619 179.517 87.4971C179.827 87.0277 180.298 86.793 180.932 86.793C181.474 86.793 181.871 86.9297 182.121 87.2031C182.376 87.472 182.504 87.791 182.504 88.1602V88.2148H183.981V88.1465C183.967 87.4857 183.703 86.8955 183.188 86.376C182.673 85.8564 181.923 85.5967 180.939 85.5967C179.881 85.5967 179.043 85.9362 178.423 86.6152C177.808 87.2943 177.5 88.1852 177.5 89.2881V89.5068ZM184.511 86.9434H188.722V85.8018H184.511V86.9434ZM185.728 91.0996C185.728 91.8242 185.899 92.3574 186.241 92.6992C186.587 93.0365 187.05 93.2051 187.629 93.2051C187.856 93.2051 188.066 93.1846 188.257 93.1436C188.449 93.1025 188.601 93.0547 188.715 93V91.8174C188.597 91.863 188.478 91.8994 188.36 91.9268C188.246 91.9541 188.128 91.9678 188.004 91.9678C187.754 91.9678 187.565 91.9017 187.437 91.7695C187.31 91.6328 187.246 91.4049 187.246 91.0859V84.0518H185.728V86.2461V86.4512V91.0996ZM190.169 93H191.7V85.8018H190.169V93ZM190.005 83.6895C190.005 83.931 190.085 84.1361 190.244 84.3047C190.404 84.4733 190.634 84.5576 190.935 84.5576C191.231 84.5576 191.459 84.4733 191.618 84.3047C191.778 84.1361 191.857 83.931 191.857 83.6895C191.857 83.4434 191.778 83.236 191.618 83.0674C191.459 82.8988 191.231 82.8145 190.935 82.8145C190.634 82.8145 190.404 82.8988 190.244 83.0674C190.085 83.236 190.005 83.4434 190.005 83.6895ZM193.372 89.5068C193.372 90.6097 193.691 91.5029 194.329 92.1865C194.972 92.8656 195.82 93.2051 196.872 93.2051C197.925 93.2051 198.771 92.8656 199.409 92.1865C200.047 91.5029 200.366 90.6097 200.366 89.5068V89.2881C200.366 88.1898 200.047 87.3011 199.409 86.6221C198.771 85.9385 197.925 85.5967 196.872 85.5967C195.82 85.5967 194.972 85.9385 194.329 86.6221C193.691 87.3011 193.372 88.1898 193.372 89.2881V89.5068ZM194.931 89.2539C194.931 88.5339 195.095 87.946 195.423 87.4902C195.756 87.0299 196.239 86.7998 196.872 86.7998C197.501 86.7998 197.98 87.0299 198.308 87.4902C198.641 87.946 198.807 88.5339 198.807 89.2539V89.5479C198.807 90.2679 198.643 90.8558 198.315 91.3115C197.987 91.7673 197.506 91.9951 196.872 91.9951C196.234 91.9951 195.751 91.7673 195.423 91.3115C195.095 90.8558 194.931 90.2679 194.931 89.5479V89.2539ZM201.997 93H203.521V87.9961C203.681 87.6634 203.906 87.3968 204.198 87.1963C204.49 86.9958 204.818 86.8955 205.182 86.8955C205.62 86.8955 205.955 87.0094 206.187 87.2373C206.424 87.4606 206.543 87.8389 206.543 88.3721V93H208.067V88.3994C208.067 87.4059 207.846 86.7018 207.404 86.2871C206.962 85.8678 206.376 85.6582 205.647 85.6582C205.196 85.6582 204.784 85.7516 204.41 85.9385C204.036 86.1253 203.731 86.3737 203.494 86.6836H203.46L203.405 85.8018H201.997V93Z"
            fill="url(#paint0_linear_1196_97702)"/>
      <g id="enrichment">
        <path id="Vector 103" opacity="0.8"
              d="M289.5 32.7041C290.536 34.0995 291.96 35.4764 293.668 36.8232C295.978 38.6447 298.838 40.4353 302.035 42.166C308.429 45.6274 316.211 48.8715 323.735 51.6562C331.263 54.4421 338.546 56.7735 343.946 58.4082C346.647 59.2256 348.877 59.8694 350.433 60.3086C351.21 60.5282 351.819 60.6968 352.234 60.8105C352.334 60.8379 352.423 60.8618 352.5 60.8828V65.3125C352.1 65.1844 351.524 65.0027 350.795 64.7783C349.287 64.3143 347.123 63.6684 344.497 62.9404C339.246 61.4848 332.138 59.699 324.724 58.3828C317.315 57.0677 309.572 56.2159 303.059 56.6416C297.275 57.0196 292.32 58.4152 289.5 61.5342V32.7041Z"
              fill="var(--primary, #006782)" stroke="var(--on-surface, #001F24)" stroke-linecap="round"/>
        <path id="Vector 102" opacity="0.8"
              d="M289.5 21.959C290.571 22.6044 292.06 23.1842 293.835 23.7109C296.141 24.3955 298.996 25.0101 302.188 25.5625C308.571 26.6676 316.345 27.5288 323.865 28.1855C331.388 28.8424 338.667 29.2957 344.064 29.585C346.763 29.7296 348.992 29.8339 350.547 29.9014C351.324 29.9351 351.932 29.9593 352.347 29.9756C352.401 29.9777 352.452 29.9796 352.5 29.9814V34.4434C352.473 34.4406 352.446 34.4384 352.417 34.4355C352.001 34.3937 351.389 34.3357 350.609 34.2705C349.051 34.1401 346.817 33.9808 344.112 33.8672C338.704 33.64 331.407 33.5928 323.861 34.3145C316.322 35.0356 308.503 36.5272 302.069 39.3945C296.503 41.8752 291.928 45.4093 289.5 50.4043V21.959Z"
              fill="var(--primary, #006782)" stroke="var(--on-surface, #001F24)" stroke-linecap="square" stroke-linejoin="round"/>
        <path id="Vector 104" opacity="0.8"
              d="M289.5 84.1367C290.493 84.8831 291.885 85.5201 293.541 86.0723C295.791 86.8224 298.612 87.4442 301.783 87.9619C308.129 88.9976 315.938 89.6237 323.521 89.999C331.106 90.3745 338.478 90.5 343.952 90.5312C346.689 90.5469 348.953 90.5391 350.532 90.5273C351.322 90.5215 351.941 90.5142 352.362 90.5088C352.411 90.5082 352.457 90.5074 352.5 90.5068V94.9717C352.459 94.9695 352.416 94.9672 352.371 94.9648C351.942 94.9426 351.313 94.9112 350.51 94.877C348.904 94.8085 346.605 94.7266 343.828 94.6719C338.275 94.5623 330.807 94.5625 323.153 95.001C315.505 95.4392 307.648 96.3167 301.328 97.9697C298.168 98.7961 295.371 99.8215 293.17 101.097C291.649 101.978 290.391 102.99 289.5 104.157V84.1367Z"
              fill="var(--primary, #006782)" stroke="var(--on-surface, #001F24)" stroke-linecap="round"/>
      </g>
    </g>
    <g id="pathways">
      <path id="Reactome Pathways"
            d="M365.029 125H366.377V121.648H367.965C368.926 121.648 369.668 121.412 370.191 120.939C370.719 120.463 370.982 119.83 370.982 119.041C370.982 118.256 370.719 117.631 370.191 117.166C369.668 116.701 368.926 116.469 367.965 116.469H365.029V125ZM366.377 120.594V117.523H367.953C368.578 117.523 369.014 117.668 369.26 117.957C369.51 118.242 369.635 118.604 369.635 119.041C369.635 119.482 369.51 119.852 369.26 120.148C369.014 120.445 368.578 120.594 367.953 120.594H366.377ZM369.893 125H371.41L369.195 120.922L367.812 121.062L369.893 125ZM372.602 121.971C372.602 122.916 372.871 123.688 373.41 124.285C373.953 124.879 374.725 125.176 375.725 125.176C376.342 125.176 376.869 125.051 377.307 124.801C377.744 124.551 378.061 124.268 378.256 123.951L377.395 123.301C377.219 123.531 376.992 123.732 376.715 123.904C376.438 124.072 376.105 124.156 375.719 124.156C375.109 124.156 374.656 123.949 374.359 123.535C374.066 123.121 373.92 122.605 373.92 121.988V121.76C373.92 121.139 374.059 120.621 374.336 120.207C374.617 119.793 375.029 119.586 375.572 119.586C376.061 119.586 376.424 119.738 376.662 120.043C376.904 120.344 377.025 120.709 377.025 121.139V121.232H373.445V122.188H378.332V121.678C378.332 120.721 378.09 119.965 377.605 119.41C377.125 118.852 376.441 118.572 375.555 118.572C374.672 118.572 373.959 118.871 373.416 119.469C372.873 120.062 372.602 120.834 372.602 121.783V121.971ZM379.775 123.16C379.775 123.797 379.986 124.283 380.408 124.619C380.834 124.951 381.35 125.117 381.955 125.117C382.479 125.117 382.908 125.021 383.244 124.83C383.584 124.635 383.824 124.41 383.965 124.156C383.98 124.309 384.01 124.463 384.053 124.619C384.096 124.775 384.143 124.902 384.193 125H385.471V124.906C385.396 124.738 385.338 124.543 385.295 124.32C385.256 124.094 385.236 123.854 385.236 123.6V120.699C385.236 119.988 385.016 119.457 384.574 119.105C384.137 118.754 383.523 118.578 382.734 118.578C381.945 118.578 381.314 118.764 380.842 119.135C380.369 119.506 380.133 119.947 380.133 120.459V120.506H381.428V120.459C381.428 120.217 381.525 120.006 381.721 119.826C381.916 119.643 382.24 119.551 382.693 119.551C383.146 119.551 383.465 119.658 383.648 119.873C383.836 120.084 383.93 120.357 383.93 120.693V121.127H382.553C381.748 121.127 381.084 121.305 380.561 121.66C380.037 122.012 379.775 122.512 379.775 123.16ZM381.082 123.084C381.082 122.748 381.217 122.484 381.486 122.293C381.76 122.098 382.164 122 382.699 122H383.93V122.809C383.93 123.137 383.764 123.441 383.432 123.723C383.1 124 382.721 124.139 382.295 124.139C381.877 124.139 381.57 124.045 381.375 123.857C381.18 123.67 381.082 123.412 381.082 123.084ZM387.055 121.971C387.055 122.92 387.324 123.691 387.863 124.285C388.406 124.879 389.145 125.176 390.078 125.176C390.949 125.176 391.611 124.949 392.064 124.496C392.521 124.043 392.75 123.531 392.75 122.961V122.926H391.479V122.961C391.479 123.273 391.367 123.551 391.145 123.793C390.926 124.031 390.568 124.15 390.072 124.15C389.498 124.15 389.074 123.945 388.801 123.535C388.527 123.121 388.391 122.605 388.391 121.988V121.76C388.391 121.143 388.527 120.629 388.801 120.219C389.078 119.805 389.502 119.598 390.072 119.598C390.561 119.598 390.916 119.717 391.139 119.955C391.365 120.193 391.48 120.471 391.484 120.787V120.828H392.756L392.75 120.781C392.742 120.211 392.512 119.701 392.059 119.252C391.609 118.799 390.949 118.572 390.078 118.572C389.145 118.572 388.406 118.869 387.863 119.463C387.324 120.057 387.055 120.83 387.055 121.783V121.971ZM393.637 119.732H397.328V118.754H393.637V119.732ZM394.715 123.365C394.715 123.99 394.865 124.449 395.166 124.742C395.467 125.031 395.867 125.176 396.367 125.176C396.566 125.176 396.748 125.158 396.912 125.123C397.08 125.088 397.213 125.047 397.311 125V123.986C397.209 124.025 397.105 124.057 397 124.08C396.898 124.104 396.795 124.115 396.689 124.115C396.463 124.115 396.295 124.059 396.186 123.945C396.076 123.828 396.021 123.631 396.021 123.354V117.324H394.715V119.141V119.316V123.365ZM398.473 121.971C398.473 122.92 398.752 123.691 399.311 124.285C399.873 124.879 400.619 125.176 401.549 125.176C402.479 125.176 403.223 124.879 403.781 124.285C404.344 123.691 404.625 122.92 404.625 121.971V121.783C404.625 120.83 404.344 120.057 403.781 119.463C403.223 118.869 402.479 118.572 401.549 118.572C400.619 118.572 399.873 118.869 399.311 119.463C398.752 120.057 398.473 120.83 398.473 121.783V121.971ZM399.809 121.76C399.809 121.139 399.955 120.625 400.248 120.219C400.545 119.812 400.979 119.609 401.549 119.609C402.119 119.609 402.551 119.812 402.844 120.219C403.141 120.625 403.289 121.139 403.289 121.76V121.988C403.289 122.609 403.141 123.123 402.844 123.529C402.551 123.936 402.119 124.139 401.549 124.139C400.979 124.139 400.545 123.936 400.248 123.529C399.955 123.123 399.809 122.609 399.809 121.988V121.76ZM406.449 125H407.756V120.67C407.9 120.377 408.094 120.141 408.336 119.961C408.578 119.781 408.863 119.691 409.191 119.691C409.566 119.691 409.855 119.797 410.059 120.008C410.262 120.215 410.363 120.557 410.363 121.033V125H411.676V120.67C411.82 120.377 412.014 120.141 412.256 119.961C412.502 119.781 412.787 119.691 413.111 119.691C413.49 119.691 413.779 119.797 413.979 120.008C414.182 120.215 414.283 120.555 414.283 121.027V125H415.59V121.062C415.59 120.188 415.4 119.564 415.021 119.193C414.646 118.818 414.131 118.631 413.475 118.631C413.057 118.631 412.678 118.717 412.338 118.889C411.998 119.061 411.701 119.33 411.447 119.697H411.418C411.262 119.334 411.025 119.066 410.709 118.895C410.396 118.719 410.023 118.631 409.59 118.631C409.207 118.631 408.855 118.711 408.535 118.871C408.219 119.031 407.951 119.252 407.732 119.533H407.697L407.65 118.754H406.449V125ZM417.355 121.971C417.355 122.916 417.625 123.688 418.164 124.285C418.707 124.879 419.479 125.176 420.479 125.176C421.096 125.176 421.623 125.051 422.061 124.801C422.498 124.551 422.814 124.268 423.01 123.951L422.148 123.301C421.973 123.531 421.746 123.732 421.469 123.904C421.191 124.072 420.859 124.156 420.473 124.156C419.863 124.156 419.41 123.949 419.113 123.535C418.82 123.121 418.674 122.605 418.674 121.988V121.76C418.674 121.139 418.812 120.621 419.09 120.207C419.371 119.793 419.783 119.586 420.326 119.586C420.814 119.586 421.178 119.738 421.416 120.043C421.658 120.344 421.779 120.709 421.779 121.139V121.232H418.199V122.188H423.086V121.678C423.086 120.721 422.844 119.965 422.359 119.41C421.879 118.852 421.195 118.572 420.309 118.572C419.426 118.572 418.713 118.871 418.17 119.469C417.627 120.062 417.355 120.834 417.355 121.783V121.971ZM368.057 137H369.404V133.777H371.062C372.043 133.777 372.795 133.537 373.318 133.057C373.846 132.572 374.109 131.924 374.109 131.111C374.109 130.299 373.846 129.656 373.318 129.184C372.795 128.707 372.043 128.469 371.062 128.469H368.057V137ZM369.404 132.717V129.535H371.027C371.672 129.535 372.121 129.684 372.375 129.98C372.633 130.277 372.762 130.654 372.762 131.111C372.762 131.568 372.633 131.951 372.375 132.26C372.121 132.564 371.672 132.717 371.027 132.717H369.404ZM375.389 135.16C375.389 135.797 375.6 136.283 376.021 136.619C376.447 136.951 376.963 137.117 377.568 137.117C378.092 137.117 378.521 137.021 378.857 136.83C379.197 136.635 379.438 136.41 379.578 136.156C379.594 136.309 379.623 136.463 379.666 136.619C379.709 136.775 379.756 136.902 379.807 137H381.084V136.906C381.01 136.738 380.951 136.543 380.908 136.32C380.869 136.094 380.85 135.854 380.85 135.6V132.699C380.85 131.988 380.629 131.457 380.188 131.105C379.75 130.754 379.137 130.578 378.348 130.578C377.559 130.578 376.928 130.764 376.455 131.135C375.982 131.506 375.746 131.947 375.746 132.459V132.506H377.041V132.459C377.041 132.217 377.139 132.006 377.334 131.826C377.529 131.643 377.854 131.551 378.307 131.551C378.76 131.551 379.078 131.658 379.262 131.873C379.449 132.084 379.543 132.357 379.543 132.693V133.127H378.166C377.361 133.127 376.697 133.305 376.174 133.66C375.65 134.012 375.389 134.512 375.389 135.16ZM376.695 135.084C376.695 134.748 376.83 134.484 377.1 134.293C377.373 134.098 377.777 134 378.312 134H379.543V134.809C379.543 135.137 379.377 135.441 379.045 135.723C378.713 136 378.334 136.139 377.908 136.139C377.49 136.139 377.184 136.045 376.988 135.857C376.793 135.67 376.695 135.412 376.695 135.084ZM382.188 131.732H385.879V130.754H382.188V131.732ZM383.266 135.365C383.266 135.99 383.416 136.449 383.717 136.742C384.018 137.031 384.418 137.176 384.918 137.176C385.117 137.176 385.299 137.158 385.463 137.123C385.631 137.088 385.764 137.047 385.861 137V135.986C385.76 136.025 385.656 136.057 385.551 136.08C385.449 136.104 385.346 136.115 385.24 136.115C385.014 136.115 384.846 136.059 384.736 135.945C384.627 135.828 384.572 135.631 384.572 135.354V129.324H383.266V131.141V131.316V135.365ZM387.504 137H388.811V132.682C388.951 132.385 389.148 132.146 389.402 131.967C389.656 131.783 389.951 131.691 390.287 131.691C390.678 131.691 390.98 131.795 391.195 132.002C391.414 132.209 391.523 132.553 391.523 133.033V137H392.83V133.021C392.83 132.166 392.639 131.555 392.256 131.188C391.873 130.816 391.373 130.631 390.756 130.631C390.338 130.631 389.963 130.713 389.631 130.877C389.299 131.041 389.025 131.264 388.811 131.545V128.006H387.504V137ZM394.256 130.754L396.166 137H397.314L398.586 133.086C398.637 132.934 398.684 132.779 398.727 132.623C398.77 132.467 398.809 132.312 398.844 132.16H398.879C398.914 132.312 398.953 132.467 398.996 132.623C399.039 132.779 399.086 132.934 399.137 133.086L400.42 137H401.562L403.473 130.754H402.301L401.24 134.662C401.197 134.818 401.162 134.959 401.135 135.084C401.107 135.205 401.08 135.344 401.053 135.5H401.018C400.99 135.344 400.961 135.205 400.93 135.084C400.902 134.959 400.861 134.818 400.807 134.662L399.518 130.754H398.322L397.057 134.662C397.006 134.818 396.967 134.959 396.939 135.084C396.912 135.205 396.885 135.344 396.857 135.5H396.822C396.795 135.344 396.766 135.205 396.734 135.084C396.707 134.959 396.672 134.818 396.629 134.662L395.551 130.754H394.256ZM404.623 135.16C404.623 135.797 404.834 136.283 405.256 136.619C405.682 136.951 406.197 137.117 406.803 137.117C407.326 137.117 407.756 137.021 408.092 136.83C408.432 136.635 408.672 136.41 408.812 136.156C408.828 136.309 408.857 136.463 408.9 136.619C408.943 136.775 408.99 136.902 409.041 137H410.318V136.906C410.244 136.738 410.186 136.543 410.143 136.32C410.104 136.094 410.084 135.854 410.084 135.6V132.699C410.084 131.988 409.863 131.457 409.422 131.105C408.984 130.754 408.371 130.578 407.582 130.578C406.793 130.578 406.162 130.764 405.689 131.135C405.217 131.506 404.98 131.947 404.98 132.459V132.506H406.275V132.459C406.275 132.217 406.373 132.006 406.568 131.826C406.764 131.643 407.088 131.551 407.541 131.551C407.994 131.551 408.312 131.658 408.496 131.873C408.684 132.084 408.777 132.357 408.777 132.693V133.127H407.4C406.596 133.127 405.932 133.305 405.408 133.66C404.885 134.012 404.623 134.512 404.623 135.16ZM405.93 135.084C405.93 134.748 406.064 134.484 406.334 134.293C406.607 134.098 407.012 134 407.547 134H408.777V134.809C408.777 135.137 408.611 135.441 408.279 135.723C407.947 136 407.568 136.139 407.143 136.139C406.725 136.139 406.418 136.045 406.223 135.857C406.027 135.67 405.93 135.412 405.93 135.084ZM411.721 139.438C411.83 139.477 411.949 139.506 412.078 139.525C412.207 139.549 412.354 139.561 412.518 139.561C413.021 139.561 413.445 139.406 413.789 139.098C414.137 138.793 414.414 138.361 414.621 137.803L417.217 130.754H415.992L414.645 134.709C414.59 134.865 414.541 135.014 414.498 135.154C414.455 135.295 414.418 135.432 414.387 135.564H414.352C414.32 135.432 414.283 135.295 414.24 135.154C414.201 135.01 414.152 134.861 414.094 134.709L412.658 130.754H411.363L413.748 136.959L413.777 136.965C413.562 137.621 413.355 138.039 413.156 138.219C412.961 138.402 412.723 138.494 412.441 138.494C412.324 138.494 412.201 138.484 412.072 138.465C411.943 138.445 411.826 138.42 411.721 138.389V139.438ZM418.145 135.125V135.166C418.145 135.779 418.375 136.268 418.836 136.631C419.297 136.994 419.961 137.176 420.828 137.176C421.699 137.176 422.354 136.996 422.791 136.637C423.232 136.277 423.453 135.811 423.453 135.236C423.453 134.689 423.271 134.266 422.908 133.965C422.545 133.66 422.01 133.434 421.303 133.285C420.596 133.133 420.137 132.992 419.926 132.863C419.719 132.73 419.615 132.553 419.615 132.33C419.615 132.111 419.707 131.93 419.891 131.785C420.078 131.637 420.379 131.562 420.793 131.562C421.211 131.562 421.518 131.645 421.713 131.809C421.912 131.973 422.012 132.197 422.012 132.482V132.541H423.307V132.5C423.307 131.914 423.078 131.447 422.621 131.1C422.164 130.748 421.557 130.572 420.799 130.572C420.041 130.572 419.438 130.744 418.988 131.088C418.543 131.432 418.32 131.871 418.32 132.406C418.32 132.918 418.508 133.324 418.883 133.625C419.262 133.922 419.807 134.145 420.518 134.293C421.217 134.445 421.664 134.59 421.859 134.727C422.059 134.859 422.158 135.057 422.158 135.318C422.158 135.576 422.041 135.785 421.807 135.945C421.572 136.105 421.246 136.186 420.828 136.186C420.41 136.186 420.074 136.102 419.82 135.934C419.57 135.766 419.445 135.512 419.445 135.172V135.125H418.145Z"
            fill="var(--primary, #006782)"/>
      <g id="pathways_2">
        <g id="Group 2608558">
          <rect id="Rectangle 62" x="361" y="22" width="73" height="22" rx="4" fill="var(--outline-variant, #bcc8cf)"/>
          <rect id="Rectangle 68" class="collapse" style="--width:67px" x="361" y="22" width="67" height="22" rx="4"
                fill="var(--primary, #006782)"/>
          <rect id="Rectangle 63" x="361" y="22" width="24" height="22" rx="4" fill="var(--primary, #006782)" stroke="var(--on-primary, #FFF)"/>
          <g id="Events/Pathways/pathway-ehld">
            <mask id="mask1_1196_97702" style="mask-type:alpha" maskUnits="userSpaceOnUse" x="361" y="21" width="24"
                  height="24">
              <rect id="Bounding box_2" x="361" y="21" width="24" height="24" fill="var(--surface-variant, #E9F2F6)"/>
            </mask>
            <g mask="url(#mask1_1196_97702)">
              <path id="conversion_path"
                    d="M380 42C379.35 42 378.767 41.8127 378.25 41.438C377.733 41.0627 377.375 40.5833 377.175 40H372C370.9 40 369.958 39.6083 369.175 38.825C368.392 38.0417 368 37.1 368 36C368 34.9 368.392 33.9583 369.175 33.175C369.958 32.3917 370.9 32 372 32H374C374.55 32 375.021 31.804 375.413 31.412C375.804 31.0207 376 30.55 376 30C376 29.45 375.804 28.979 375.413 28.587C375.021 28.1957 374.55 28 374 28H368.825C368.608 28.5833 368.246 29.0627 367.738 29.438C367.229 29.8127 366.65 30 366 30C365.167 30 364.458 29.7083 363.875 29.125C363.292 28.5417 363 27.8333 363 27C363 26.1667 363.292 25.4583 363.875 24.875C364.458 24.2917 365.167 24 366 24C366.65 24 367.229 24.1873 367.738 24.562C368.246 24.9373 368.608 25.4167 368.825 26H374C375.1 26 376.042 26.3917 376.825 27.175C377.608 27.9583 378 28.9 378 30C378 31.1 377.608 32.0417 376.825 32.825C376.042 33.6083 375.1 34 374 34H372C371.45 34 370.979 34.1957 370.588 34.587C370.196 34.979 370 35.45 370 36C370 36.55 370.196 37.021 370.588 37.413C370.979 37.8043 371.45 38 372 38H377.175C377.392 37.4167 377.754 36.9373 378.263 36.562C378.771 36.1873 379.35 36 380 36C380.833 36 381.542 36.2917 382.125 36.875C382.708 37.4583 383 38.1667 383 39C383 39.8333 382.708 40.5417 382.125 41.125C381.542 41.7083 380.833 42 380 42ZM366 28C366.283 28 366.521 27.9043 366.713 27.713C366.904 27.521 367 27.2833 367 27C367 26.7167 366.904 26.479 366.713 26.287C366.521 26.0957 366.283 26 366 26C365.717 26 365.479 26.0957 365.287 26.287C365.096 26.479 365 26.7167 365 27C365 27.2833 365.096 27.521 365.287 27.713C365.479 27.9043 365.717 28 366 28Z"
                    fill="var(--on-primary, #FFF)"/>
            </g>
          </g>
        </g>
        <g id="Group 2608556">
          <rect id="Rectangle 64" x="361" y="52" width="73" height="22" rx="4" fill="var(--outline-variant, #bcc8cf)"/>
          <rect id="Rectangle 69" class="collapse" style="--width:47px" x="361" y="52" width="47" height="22" rx="4"
                fill="var(--primary, #006782)"/>
          <rect id="Rectangle 65" x="361" y="52" width="24" height="22" rx="4" fill="var(--primary, #006782)" stroke="var(--on-primary, #FFF)"/>
          <g id="Events/Pathways/pathway-ehld_2">
            <mask id="mask2_1196_97702" style="mask-type:alpha" maskUnits="userSpaceOnUse" x="361" y="51" width="24"
                  height="24">
              <rect id="Bounding box_3" x="361" y="51" width="24" height="24" fill="var(--surface-variant, #E9F2F6)"/>
            </mask>
            <g mask="url(#mask2_1196_97702)">
              <path id="conversion_path_2"
                    d="M380 72C379.35 72 378.767 71.8127 378.25 71.438C377.733 71.0627 377.375 70.5833 377.175 70H372C370.9 70 369.958 69.6083 369.175 68.825C368.392 68.0417 368 67.1 368 66C368 64.9 368.392 63.9583 369.175 63.175C369.958 62.3917 370.9 62 372 62H374C374.55 62 375.021 61.804 375.413 61.412C375.804 61.0207 376 60.55 376 60C376 59.45 375.804 58.979 375.413 58.587C375.021 58.1957 374.55 58 374 58H368.825C368.608 58.5833 368.246 59.0627 367.738 59.438C367.229 59.8127 366.65 60 366 60C365.167 60 364.458 59.7083 363.875 59.125C363.292 58.5417 363 57.8333 363 57C363 56.1667 363.292 55.4583 363.875 54.875C364.458 54.2917 365.167 54 366 54C366.65 54 367.229 54.1873 367.738 54.562C368.246 54.9373 368.608 55.4167 368.825 56H374C375.1 56 376.042 56.3917 376.825 57.175C377.608 57.9583 378 58.9 378 60C378 61.1 377.608 62.0417 376.825 62.825C376.042 63.6083 375.1 64 374 64H372C371.45 64 370.979 64.1957 370.588 64.587C370.196 64.979 370 65.45 370 66C370 66.55 370.196 67.021 370.588 67.413C370.979 67.8043 371.45 68 372 68H377.175C377.392 67.4167 377.754 66.9373 378.263 66.562C378.771 66.1873 379.35 66 380 66C380.833 66 381.542 66.2917 382.125 66.875C382.708 67.4583 383 68.1667 383 69C383 69.8333 382.708 70.5417 382.125 71.125C381.542 71.7083 380.833 72 380 72ZM366 58C366.283 58 366.521 57.9043 366.713 57.713C366.904 57.521 367 57.2833 367 57C367 56.7167 366.904 56.479 366.713 56.287C366.521 56.0957 366.283 56 366 56C365.717 56 365.479 56.0957 365.287 56.287C365.096 56.479 365 56.7167 365 57C365 57.2833 365.096 57.521 365.287 57.713C365.479 57.9043 365.717 58 366 58Z"
                    fill="var(--on-primary, #FFF)"/>
            </g>
          </g>
        </g>
        <g id="Group 2608557">
          <rect id="Rectangle 66" x="361" y="82" width="73" height="22" rx="4" fill="var(--outline-variant, #bcc8cf)"/>
          <rect id="Rectangle 70" class="collapse" style="--width:59px" x="361" y="82" width="59" height="22" rx="4"
                fill="var(--primary, #006782)"/>
          <rect id="Rectangle 67" x="361" y="82" width="24" height="22" rx="4" fill="var(--primary, #006782)" stroke="var(--on-primary, #FFF)"/>
          <g id="Events/Pathways/pathway-ehld_3">
            <mask id="mask3_1196_97702" style="mask-type:alpha" maskUnits="userSpaceOnUse" x="361" y="81" width="24"
                  height="24">
              <rect id="Bounding box_4" x="361" y="81" width="24" height="24" fill="var(--surface-variant, #E9F2F6)"/>
            </mask>
            <g mask="url(#mask3_1196_97702)">
              <path id="conversion_path_3"
                    d="M380 102C379.35 102 378.767 101.813 378.25 101.438C377.733 101.063 377.375 100.583 377.175 100H372C370.9 100 369.958 99.6083 369.175 98.825C368.392 98.0417 368 97.1 368 96C368 94.9 368.392 93.9583 369.175 93.175C369.958 92.3917 370.9 92 372 92H374C374.55 92 375.021 91.804 375.413 91.412C375.804 91.0207 376 90.55 376 90C376 89.45 375.804 88.979 375.413 88.587C375.021 88.1957 374.55 88 374 88H368.825C368.608 88.5833 368.246 89.0627 367.738 89.438C367.229 89.8127 366.65 90 366 90C365.167 90 364.458 89.7083 363.875 89.125C363.292 88.5417 363 87.8333 363 87C363 86.1667 363.292 85.4583 363.875 84.875C364.458 84.2917 365.167 84 366 84C366.65 84 367.229 84.1873 367.738 84.562C368.246 84.9373 368.608 85.4167 368.825 86H374C375.1 86 376.042 86.3917 376.825 87.175C377.608 87.9583 378 88.9 378 90C378 91.1 377.608 92.0417 376.825 92.825C376.042 93.6083 375.1 94 374 94H372C371.45 94 370.979 94.1957 370.588 94.587C370.196 94.979 370 95.45 370 96C370 96.55 370.196 97.021 370.588 97.413C370.979 97.8043 371.45 98 372 98H377.175C377.392 97.4167 377.754 96.9373 378.263 96.562C378.771 96.1873 379.35 96 380 96C380.833 96 381.542 96.2917 382.125 96.875C382.708 97.4583 383 98.1667 383 99C383 99.8333 382.708 100.542 382.125 101.125C381.542 101.708 380.833 102 380 102ZM366 88C366.283 88 366.521 87.9043 366.713 87.713C366.904 87.521 367 87.2833 367 87C367 86.7167 366.904 86.479 366.713 86.287C366.521 86.0957 366.283 86 366 86C365.717 86 365.479 86.0957 365.287 86.287C365.096 86.479 365 86.7167 365 87C365 87.2833 365.096 87.521 365.287 87.713C365.479 87.9043 365.717 88 366 88Z"
                    fill="var(--on-primary, #FFF)"/>
            </g>
          </g>
        </g>
      </g>
    </g>
  </g>
  <defs>
    <linearGradient id="paint0_linear_1196_97702" x1="144" y1="67" x2="209" y2="67" gradientUnits="userSpaceOnUse">
      <stop stop-color="var(--tertiary, #1660A5)"/>
      <stop offset="1" stop-color="var(--primary, #006782)"/>
    </linearGradient>
    <clipPath id="clip0_1196_97702">
      <rect width="24" height="24" fill="var(--on-primary, #FFF)" transform="translate(10 51)"/>
    </clipPath>
  </defs>
  <style>
    #projection {
      animation: opacity 2s infinite alternate ease-in-out;
      animation-play-state: inherit;
    }

    @keyframes opacity {
      0%, 25% {
        opacity: 0.2;
      }
      75%, 100% {
        opacity: 1;
      }
    }

    .collapse {
      animation: collapse 2s infinite alternate ease-in-out;
      animation-play-state: inherit;
    }

    @keyframes collapse {
      0%, 25% {
        width: 24px;
      }
      75%, 100% {
        width: var(--width);
      }
    }
  </style>
</svg>
