<svg width="24" height="24" viewBox="0 0 24 24" fill="none" xmlns="http://www.w3.org/2000/svg">
  <rect y="4" width="24" height="16" rx="8" fill="var(--tertiary-contrast-2,#004882)"/>
  <mask id="path-3-inside-1_4659_3256" fill="white">
    <path
      d="M2 12C2 8.41015 4.91015 5.5 8.5 5.5H15.5C19.0899 5.5 22 8.41015 22 12V12C22 15.5899 19.0899 18.5 15.5 18.5H8.5C4.91015 18.5 2 15.5899 2 12V12Z"/>
  </mask>
  <path
    d="M2 12C2 8.41015 4.91015 5.5 8.5 5.5H15.5C19.0899 5.5 22 8.41015 22 12V12C22 15.5899 19.0899 18.5 15.5 18.5H8.5C4.91015 18.5 2 15.5899 2 12V12Z"
    fill="var(--tertiary-contrast-2,#004882)"/>
  <path
    d="M-1 12C-1 7.58172 2.58172 4 7 4H17C21.4183 4 25 7.58172 25 12H19C19 9.23858 17.433 7 15.5 7H8.5C6.567 7 5 9.23858 5 12H-1ZM25 12C25 16.4183 21.4183 20 17 20H7C2.58172 20 -1 16.4183 -1 12H5C5 14.7614 6.567 17 8.5 17H15.5C17.433 17 19 14.7614 19 12H25ZM7 20C2.58172 20 -1 16.4183 -1 12C-1 7.58172 2.58172 4 7 4L8.5 7C6.567 7 5 9.23858 5 12C5 14.7614 6.567 17 8.5 17L7 20ZM17 4C21.4183 4 25 7.58172 25 12C25 16.4183 21.4183 20 17 20L15.5 17C17.433 17 19 14.7614 19 12C19 9.23858 17.433 7 15.5 7L17 4Z"
    fill="var(--on-tertiary, #FFFFFF)" mask="url(#path-3-inside-1_4659_3256)"/>
</svg>
