<svg width="25" height="25" viewBox="0 0 25 25" fill="none" xmlns="http://www.w3.org/2000/svg">
<mask id="mask0_696_70381" style="mask-type:alpha" maskUnits="userSpaceOnUse" x="0" y="0" width="25" height="25">
<rect x="0.686401" y="0.85791" width="24" height="24" fill="#D9D9D9"/>
</mask>
<g mask="url(#mask0_696_70381)">
<rect x="11.8026" y="9.14575" width="10" height="6.5" rx="2" transform="rotate(-45 11.8026 9.14575)" stroke="var(--on-surface,#001F24)" stroke-width="2"/>
<rect x="1.90308" y="19.0452" width="10" height="6.5" rx="2" transform="rotate(-45 1.90308 19.0452)" stroke="var(--on-surface,#001F24)" stroke-width="2"/>
<path d="M8.66812 14.6305C8.03352 15.2651 8.03352 16.294 8.66812 16.9286C9.30272 17.5632 10.3316 17.5632 10.9662 16.9286L12.8074 15.0875C13.2467 14.6481 13.2467 13.9358 12.8074 13.4965L12.1002 12.7894C11.6609 12.35 10.9486 12.35 10.5093 12.7894L8.66812 14.6305Z" fill="var(--negative,#BA1A1A)" stroke="var(--surface,#F6FEFF)" stroke-width="1.25"/>
<path d="M12.6038 10.695C12.1644 11.1343 12.1644 11.8466 12.6038 12.286L13.3109 12.9931C13.7502 13.4324 14.4625 13.4324 14.9018 12.9931L16.743 11.1519C17.3776 10.5173 17.3776 9.48845 16.743 8.85385C16.1084 8.21925 15.0795 8.21925 14.4449 8.85385L12.6038 10.695Z" fill="var(--negative,#BA1A1A)" stroke="var(--surface,#F6FEFF)" stroke-width="1.25"/>
<rect x="6.89819" y="10.4268" width="1" height="2" rx="0.5" transform="rotate(-75 6.89819 10.4268)" fill="var(--negative,#BA1A1A)"/>
<rect width="1" height="2" rx="0.5" transform="matrix(0.965926 -0.258819 -0.258819 -0.965926 15.1177 18.6462)" fill="var(--negative,#BA1A1A)"/>
<rect width="1" height="2" rx="0.5" transform="matrix(-0.965926 0.258819 0.258819 0.965926 10.2554 7.06958)" fill="var(--negative,#BA1A1A)"/>
<rect x="18.4747" y="15.2891" width="1" height="2" rx="0.5" transform="rotate(105 18.4747 15.2891)" fill="var(--negative,#BA1A1A)"/>
</g>
</svg>
