<svg width="25" height="25" viewBox="0 0 25 25" xmlns="http://www.w3.org/2000/svg">
<g mask="url(#mask0_658_75528)">
<path d="M8 8.17773L16 16.1777M16 8.17773L8 16.1777" stroke="var(--negative,#BA1A1A)" stroke-width="2" stroke-linecap="round"/>
<path fill-rule="evenodd" clip-rule="evenodd" d="M7.28667 11.0001H3.5802C3.02792 11.0001 2.5802 11.4478 2.5802 12.0001C2.5802 12.5523 3.02792 13.0001 3.5802 13.0001H7.64202L8.46434 12.1777L7.28667 11.0001ZM16.3577 13.0001L20.9964 13.0001L19.8021 14.1904C19.411 14.5803 19.4099 15.2134 19.7998 15.6046C20.1897 15.9958 20.8228 15.9968 21.214 15.6069L24.1222 12.7083C24.3105 12.5207 24.4163 12.2658 24.4163 12C24.4163 11.7342 24.3104 11.4793 24.1221 11.2917L21.209 8.38881C20.8177 7.99898 20.1846 8.0001 19.7948 8.39131C19.4049 8.78253 19.406 9.41569 19.7972 9.80552L20.996 11.0001L16.7131 11.0001L15.5354 12.1777L16.3577 13.0001Z" fill="currentColor"/>
</g>
</svg>
