<svg width="24" height="24" viewBox="0 0 24 24" fill="none" xmlns="http://www.w3.org/2000/svg">
<path fill-rule="evenodd" clip-rule="evenodd" d="M21.3887 0.259205L23.688 1.79208C23.8364 1.89103 23.8364 2.10914 23.688 2.2081L21.3887 3.74097C21.2226 3.85173 21 3.73263 21 3.53296V2.75009H12.75V4.14264V4.89264H11.25V4.14264V2.00009C11.25 1.58587 11.5858 1.25009 12 1.25009H21V0.467217C21 0.267543 21.2226 0.148446 21.3887 0.259205Z" fill="var(--negative, #BA1A1A)"/>
<path fill-rule="evenodd" clip-rule="evenodd" d="M24 6V14C24 17.3137 21.3137 20 18 20H6C2.68629 20 0 17.3137 0 14V6H24ZM16.1368 12.9268L12 8.79004L7.86328 12.9268L12 17.0635L16.1368 12.9268ZM14.7226 12.9268L12 10.2043L9.27749 12.9268L12 15.6493L14.7226 12.9268Z" fill="var(--on-surface,#001F24)"/>
<path d="M12 10.2043L14.7225 12.9269L12 15.6494L9.27747 12.9269L12 10.2043Z" fill="var(--negative, #BA1A1A)"/>
</svg>
