<svg width="24" height="24" viewBox="0 0 24 24"  xmlns="http://www.w3.org/2000/svg">
<path d="M4.2993 10.3441C4.01169 10.7785 3.84209 11.2803 3.80719 11.8001L3.80687 11.8011C3.80323 11.8675 3.80181 11.9338 3.80257 11.9999C3.80181 12.066 3.80323 12.1323 3.80687 12.1987L3.80719 12.1997C3.84209 12.7195 4.01169 13.2213 4.2993 13.6557C4.58692 14.0901 4.98266 14.4422 5.44759 14.6773C5.91252 14.9124 6.43064 15.0224 6.95099 14.9965C7.47134 14.9707 7.97601 14.8099 8.41535 14.5299C8.64526 14.3869 8.90994 14.3098 9.18063 14.3067C9.45132 14.3037 9.71768 14.3749 9.95075 14.5126L13.446 16.5305C13.6836 16.6708 13.8787 16.8729 14.0105 17.1153C14.1423 17.3577 14.2059 17.6313 14.1945 17.907C14.1903 18.0416 14.1948 18.1763 14.2078 18.3103C14.2749 18.9592 14.5519 19.5686 14.9967 20.0459C15.4414 20.5231 16.0298 20.8423 16.6724 20.955C17.315 21.0676 17.9768 20.9676 18.5574 20.67C19.138 20.3725 19.6057 19.8936 19.8895 19.3062C20.1733 18.7188 20.2577 18.0548 20.13 17.415C20.0023 16.7752 19.6694 16.1946 19.1817 15.7612C18.6941 15.3277 18.0784 15.0652 17.4281 15.0134C16.7777 14.9616 16.1282 15.1233 15.5781 15.4741C15.3482 15.617 15.0836 15.6941 14.8129 15.6972C14.5422 15.7002 14.2758 15.629 14.0428 15.4914L10.5455 13.4685C10.3081 13.3287 10.1132 13.1269 9.98167 12.8848C9.85666 12.6546 9.79343 12.3961 9.79781 12.1347C9.79966 12.0898 9.80056 12.0448 9.80052 11.9999C9.80056 11.955 9.79966 11.91 9.79781 11.8651C9.79343 11.6036 9.85666 11.3452 9.98167 11.115C10.1132 10.8729 10.3081 10.6711 10.5455 10.5312L14.0428 8.5084C14.2758 8.37071 14.5422 8.29952 14.8129 8.30257C15.0836 8.30562 15.3482 8.38279 15.5781 8.5257C16.1282 8.87645 16.7777 9.03819 17.4281 8.98638C18.0784 8.93457 18.6941 8.67203 19.1817 8.2386C19.6694 7.80518 20.0023 7.22453 20.13 6.58475C20.2577 5.94497 20.1733 5.28099 19.8895 4.69356C19.6057 4.10613 19.138 3.6273 18.5574 3.32975C17.9768 3.03219 17.315 2.93214 16.6724 3.04478C16.0298 3.15742 15.4414 3.47661 14.9967 3.9539C14.5519 4.43119 14.2749 5.04053 14.2078 5.68948C14.1948 5.82348 14.1903 5.95818 14.1945 6.09275C14.2059 6.36843 14.1423 6.64205 14.0105 6.88445C13.8787 7.12685 13.6836 7.32896 13.446 7.46925L9.95075 9.4872C9.71768 9.62489 9.45132 9.69608 9.18063 9.69303C8.90994 9.68998 8.64526 9.61281 8.41535 9.4699C7.97601 9.18989 7.47134 9.02905 6.95099 9.00321C6.43064 8.97736 5.91252 9.0874 5.44759 9.3225C4.98266 9.5576 4.58692 9.90966 4.2993 10.3441Z"/>
</svg>
