<svg width="25" height="25" viewBox="0 0 25 25" fill="none" xmlns="http://www.w3.org/2000/svg">
  <path d="M12.6866 0.476807V7.25288M12.6866 7.25288L11.6647 5.94443H13.7082L12.6866 7.25288Z"
        stroke="var(--positive,#0C9509)" stroke-width="2" stroke-linecap="round"/>
  <path
    d="M15.5288 13.71C15.631 13.408 15.6864 13.0844 15.6864 12.7478C15.6864 12.3972 15.6262 12.0606 15.5157 11.7478C15.1039 10.5826 13.9926 9.7478 12.6864 9.7478C11.3802 9.7478 10.2689 10.5826 9.85711 11.7478C9.85267 11.7604 9.84831 11.773 9.84403 11.7856C9.74182 12.0876 9.6864 12.4113 9.6864 12.7478C9.6864 13.0984 9.74656 13.435 9.85711 13.7478C10.2689 14.913 11.3802 15.7478 12.6864 15.7478C13.9926 15.7478 15.1039 14.913 15.5157 13.7478C15.5201 13.7352 15.5245 13.7226 15.5288 13.71Z"
    fill="var(--on-surface,#001F24)"/>
  <path
    d="M17.6864 12.7478C17.6864 13.0903 17.652 13.4247 17.5864 13.7478L23.6864 13.7478C24.2387 13.7478 24.6864 13.3001 24.6864 12.7478C24.6864 12.1955 24.2387 11.7478 23.6864 11.7478H17.5864C17.652 12.0709 17.6864 12.4053 17.6864 12.7478Z"
    fill="var(--on-surface,#001F24)"/>
  <path
    d="M1.6864 13.7478L7.78642 13.7478C7.72083 13.4247 7.6864 13.0903 7.6864 12.7478C7.6864 12.4053 7.72083 12.0709 7.78642 11.7478H1.6864C1.13412 11.7478 0.686401 12.1955 0.686401 12.7478C0.686401 13.3001 1.13412 13.7478 1.6864 13.7478Z"
    fill="var(--on-surface,#001F24)"/>
</svg>
