<svg width="32" height="26" viewBox="0 0 32 26" xmlns="http://www.w3.org/2000/svg">
  <path
    d="M11.265 25.4192H9.54998C9.54998 25.1482 9.24998 24.6542 8.82298 24.6542C8.82298 23.9952 8.31898 22.7072 8.13498 22.0192C7.92198 21.1962 7.42798 19.8302 7.15698 19.4232C7.09898 19.3362 7.07898 19.2392 7.07898 19.1322V18.9962C7.08898 18.9572 7.08898 18.9182 7.08898 18.8892C7.11798 18.5602 7.14698 18.2982 7.17598 18.1242C7.23398 17.7752 7.28298 17.4362 7.30198 17.1072C7.31198 17.0392 7.33098 16.8552 7.34098 16.8262C7.36998 16.7292 7.38898 16.6522 7.41898 16.5742C7.58398 16.6512 7.74798 16.7192 7.91298 16.7972C8.13598 16.8942 8.36798 16.9912 8.54298 17.0882L9.66698 18.2892C9.57998 19.0352 9.51198 20.3722 9.61898 21.7962C9.72598 23.2202 10.2 24.2862 10.781 24.6542C10.781 24.6542 11.265 24.7992 11.265 25.4192Z"
    />
  <path
    d="M24.284 25.4191H22.569C22.569 25.1481 22.278 24.6541 21.833 24.6541C21.833 23.9951 22.453 22.8041 21.339 20.0821C21.213 19.8501 21.155 19.4141 21.116 18.9291C21.213 18.3381 21.474 17.9121 21.688 17.9021C22.744 17.8241 23.151 17.5051 23.606 17.0691C23.732 16.9431 23.858 16.8271 24.042 16.6911C24.187 16.5841 24.323 16.4681 24.43 16.3521C24.072 17.4371 23.655 18.7641 23.636 19.2001C23.597 19.7911 23.491 20.2951 23.326 20.6531C23.094 21.1571 23.006 21.7191 23.006 22.2611C23.006 23.3751 23.403 24.4021 23.8 24.6541C23.8 24.6541 24.284 24.7991 24.284 25.4191Z"
    />
  <path fill-rule="evenodd" clip-rule="evenodd"
        d="M29.806 4.88208C29.37 4.30108 28.895 3.78708 28.401 3.36108C28.372 3.33208 28.343 3.31308 28.314 3.28308C29.709 3.19608 30.813 2.60508 30.658 0.580078C30.658 0.580078 33.031 4.06808 29.806 4.88208Z"
        />
  <path
    d="M30.94 9.74527L29.933 10.4233C29.846 10.4813 29.749 10.5103 29.652 10.5103C29.555 10.5103 29.458 10.4813 29.381 10.4233L29.207 10.3073C28.81 10.1333 28.374 10.0363 27.909 10.0363H27.696C26.659 10.1133 24.993 11.9063 24.412 13.6983C24.364 13.8243 24.325 13.9603 24.305 14.0863H24.295C24.256 14.2893 24.217 14.4833 24.188 14.6773C24.13 14.9093 24.081 15.1323 23.975 15.3363C23.868 15.5393 23.713 15.7333 23.481 15.9083C22.687 16.4803 22.735 16.8573 21.65 16.9353C21.369 16.9453 21.127 17.0513 20.933 17.2263C20.768 17.3523 20.633 17.5173 20.526 17.7103V17.7293C20.323 18.0683 20.197 18.4753 20.139 18.8823L20.11 19.2023C20.081 19.7933 19.974 20.2973 19.81 20.6553C19.578 21.1593 19.481 21.7213 19.481 22.2633C19.481 23.3873 19.888 24.4043 20.285 24.6563C20.285 24.6563 20.769 24.8013 20.769 25.4213H19.045C19.045 25.1503 18.754 24.6563 18.318 24.6563C18.318 23.9973 18.928 22.8063 17.824 20.0843C17.553 19.6003 17.32 18.6413 17.146 17.9043C17.13 17.8383 17.112 17.7763 17.098 17.7103C16.875 16.7113 16.662 14.4553 16.652 14.4263C16.633 14.1553 16.41 13.9713 16.129 13.9903C15.858 14.0093 15.664 14.2523 15.693 14.5133C15.703 14.6003 15.867 16.3253 16.071 17.4683C15.693 17.3903 15.306 17.3423 14.928 17.3423C14.608 17.3423 14.289 17.3713 13.969 17.4293C13.514 17.5263 13.039 17.5843 12.545 17.6233C12.254 17.6423 12.39 17.6523 12.099 17.6523C12.002 17.6523 11.905 17.6423 11.799 17.6423L11.169 18.4653L9.83197 17.0513V17.0413L9.14397 16.3243C8.77597 16.0923 8.18497 15.8783 7.69097 15.6363C7.75897 15.4133 7.85597 15.1713 7.94297 14.9483C8.04997 14.6483 8.15597 14.3673 8.24297 14.1443L8.49497 13.4763C8.59197 13.2243 8.46597 12.9533 8.21397 12.8563C7.96197 12.7693 7.68097 12.8853 7.58397 13.1373L7.33197 13.7963C7.17697 14.1933 6.88597 14.9683 6.87697 14.9973C6.57697 15.8303 6.33497 16.9733 6.33497 17.0413C6.31597 17.3513 6.27697 17.6613 6.21897 17.9713C6.12197 18.5813 6.00597 20.1313 6.12197 21.7973C6.22897 23.2213 6.20897 24.2873 6.79997 24.6553C6.79997 24.6553 7.28397 24.8003 7.28397 25.4203H5.55997C5.55997 25.1493 5.26897 24.6553 4.83297 24.6553C4.83297 23.9963 4.83297 22.7083 4.64897 22.0203C4.43597 21.1973 3.94197 19.8313 3.67097 19.4243C3.53497 19.2113 3.56397 18.9403 3.65197 18.6973C3.80697 18.2513 3.76797 17.2443 3.67097 16.6343C3.56397 15.9663 3.43897 15.6363 3.23497 14.9193C3.23497 14.9193 1.85897 11.8873 1.85897 9.36827H1.87797C1.84897 8.94227 1.90697 8.53527 2.05197 8.15727C1.78097 8.73827 1.65497 9.41627 1.59697 10.0943C1.56797 10.4333 1.55797 10.7823 1.54897 11.1313C1.52997 11.7613 1.53897 12.4103 1.52997 13.0493V13.0783C1.53997 14.0663 1.55897 15.0543 1.79197 16.0423C1.87897 16.4003 1.65597 16.7493 1.30797 16.8273C0.958971 16.9143 0.600971 16.6913 0.522971 16.3433C0.493971 16.2463 0.493971 16.1493 0.522971 16.0523V16.0423C0.968971 14.0373 0.667971 12.0903 0.813971 10.0173C0.832971 9.82327 0.861971 9.62927 0.891971 9.42627C1.01797 8.59327 1.25997 7.73127 1.83197 7.00427C2.22897 6.47127 2.80097 6.14227 3.41097 5.96727C3.42097 5.96727 3.42997 5.96727 3.43997 5.95727C3.87597 5.84127 4.31197 5.80227 4.70897 5.82127C5.12597 5.64727 5.59097 5.53027 6.09397 5.53027C6.33597 5.53027 6.57797 5.55927 6.82997 5.61727C8.47697 6.03427 9.08697 6.26627 10.598 6.26627C11.14 6.26627 11.809 6.23727 12.671 6.17927C15.48 5.97627 18.038 5.46227 20.062 4.75527L21.06 4.47427C21.641 5.49127 22.804 6.01427 24.528 6.01427C24.683 6.01427 24.857 6.00427 25.032 5.99527C25.536 5.96627 25.981 5.75327 26.291 5.40427C26.407 5.28827 26.494 5.14227 26.572 4.98727C26.611 4.91927 26.64 4.84227 26.669 4.76427C26.727 4.61927 26.756 4.45427 26.766 4.29927V4.28927C26.776 4.18227 26.776 4.07627 26.766 3.96927C26.747 3.73727 26.689 3.51427 26.592 3.30127C26.621 3.31127 26.65 3.32027 26.679 3.34027C26.776 3.38827 26.882 3.43727 26.979 3.50527C27.241 3.66027 27.502 3.85427 27.773 4.08627C28.083 4.35727 28.393 4.67727 28.684 5.03527H28.694C28.82 5.18027 28.946 5.33527 29.062 5.49027C29.169 5.62627 29.275 5.77127 29.372 5.92627V5.93627C29.74 6.48827 30.04 7.02127 30.273 7.55427C30.438 7.93227 30.651 8.29027 30.883 8.63927L31.096 8.93927C31.27 9.20127 31.203 9.55927 30.941 9.74327L30.94 9.74527Z"
    />
  <path
    d="M25.786 4.32008C25.718 4.69808 25.428 5.00808 24.982 5.03708C24.817 5.04708 24.672 5.04708 24.527 5.04708C23.277 5.04708 22.541 4.74708 22.125 4.29108H22.115C21.989 4.14608 21.902 4.00008 21.834 3.84508C21.766 3.70008 21.718 3.54508 21.689 3.38008C21.486 2.12108 22.396 0.580078 22.396 0.580078C22.319 1.68408 22.57 2.36208 23.016 2.76008C23.462 3.17708 24.111 3.30208 24.808 3.30208C25.576 3.30208 25.707 3.58808 25.786 3.91208C25.805 4.04808 25.815 4.19308 25.786 4.31908V4.32008Z"
    />
</svg>
