<svg width="32" height="32" viewBox="0 0 32 32" xmlns="http://www.w3.org/2000/svg">
  <path
    d="M20.757 9.57205C19.475 11.698 17.932 14.98 16.67 19.397C16.388 19.183 16.107 18.989 15.825 18.814C17.058 14.562 18.573 11.251 19.951 8.99805C20.184 9.24105 20.456 9.42605 20.757 9.57205Z"
    />
  <path
    d="M18.5239 2.75582C18.4069 3.48382 17.9029 4.05682 17.2519 4.28982C17.0579 4.36782 16.8539 4.40682 16.6399 4.40682V4.41682H16.5819C16.4749 4.41682 16.3679 4.40682 16.2619 4.38782C16.2129 4.37782 16.1749 4.36882 16.1359 4.35882C15.8059 4.29082 15.5049 4.13582 15.2719 3.92182C15.1359 3.80482 15.0199 3.66982 14.9219 3.51382C14.8049 3.33882 14.7179 3.13482 14.6699 2.92182C14.6019 2.66982 14.5829 2.39782 14.6309 2.12582C14.7859 1.15482 15.6209 0.46582 16.5729 0.46582C16.6799 0.46582 16.7869 0.47582 16.8929 0.49482C17.9709 0.66982 18.6989 1.67782 18.5239 2.75582Z"
    />
  <path
    d="M10.116 6.3288C9.98001 6.3678 9.83401 6.3868 9.68901 6.3868C9.64001 6.3868 9.60201 6.3868 9.55301 6.3768C9.39801 6.3668 9.24201 6.3378 9.06801 6.2898C8.91301 6.2508 8.74801 6.1828 8.58301 6.1058C8.43701 6.0378 8.30101 5.9598 8.18501 5.8828C8.03901 5.7758 7.91301 5.6788 7.80601 5.5628C7.66001 5.4168 7.56301 5.2618 7.48601 5.0968V5.0868C6.67001 3.2618 9.64101 0.591797 11.059 0.591797C11.195 0.591797 11.311 0.610797 11.409 0.659797C12.584 1.2328 12.283 5.8058 10.118 6.3298L10.116 6.3288Z"
    />
  <path
    d="M23.175 5.81474C23.097 5.89274 23.01 5.96974 22.942 6.04774C22.825 6.16474 22.719 6.29074 22.622 6.41674C22.515 6.55274 22.418 6.68874 22.34 6.83374C22.156 7.12474 22.029 7.43574 21.961 7.74674C21.961 7.75674 21.951 7.77574 21.951 7.79574C21.902 8.00974 21.883 8.30074 21.932 8.63074C21.951 8.69874 21.961 8.77674 21.99 8.84474C21.961 8.85474 21.941 8.85474 21.912 8.85474H21.893C21.854 8.85474 21.825 8.85474 21.786 8.84474C21.767 8.84474 21.747 8.84474 21.737 8.83474C21.611 8.83474 21.485 8.80574 21.368 8.76674C21.339 8.75674 21.31 8.74774 21.281 8.73774C20.961 8.62074 20.689 8.40774 20.495 8.14574C20.378 7.99974 20.291 7.83474 20.233 7.66074C20.155 7.46674 20.126 7.26274 20.126 7.04874C20.126 7.01974 20.126 6.99974 20.136 6.97074C20.185 6.02874 20.971 5.28174 21.913 5.28174C21.923 5.28174 21.932 5.28174 21.942 5.29174C22.427 5.29174 22.864 5.49474 23.175 5.81474Z"
    />
  <path
    d="M27.786 4.66904C27.417 5.14504 27.097 5.59104 27.068 5.93104C27.01 6.62004 26.447 9.21304 25.194 9.79504V9.80504C25.029 9.88304 24.854 9.92204 24.67 9.92204C24.641 9.92204 24.612 9.92204 24.573 9.91204C24.418 9.90204 24.262 9.86304 24.088 9.78604C23.962 9.72804 23.826 9.65004 23.68 9.55304C23.583 9.48504 23.505 9.42704 23.428 9.35904C23.379 9.31004 23.331 9.27204 23.292 9.22304C23.224 9.14504 23.166 9.07704 23.108 9.00004C23.069 8.92204 23.03 8.85404 22.991 8.78604V8.77604C22.952 8.69804 22.923 8.62104 22.913 8.54304C22.884 8.42604 22.874 8.31004 22.884 8.19304C22.874 8.14404 22.884 8.10604 22.894 8.05704C22.933 7.70704 23.108 7.36804 23.37 7.04704V7.03704C23.457 6.92004 23.554 6.80404 23.661 6.70704V6.69704C23.778 6.57104 23.913 6.44504 24.059 6.33804C24.185 6.22104 24.321 6.12404 24.467 6.02704C25.098 5.58004 25.807 5.26004 26.341 5.15304C26.71 5.08504 27.166 4.82304 27.623 4.51204C27.672 4.47304 27.798 4.41504 27.866 4.41504C27.934 4.41504 27.944 4.47304 27.788 4.66704L27.786 4.66904Z"
    />
  <path
    d="M17.515 28.2711C17.569 28.4411 17.704 28.5491 17.867 28.5951C17.982 28.6271 18.146 28.5721 18.146 28.5721C19.476 28.1161 20.631 27.3491 21.583 26.3201C22.068 27.5341 22.059 28.6791 21.292 29.5821C20.069 31.0091 18.836 31.4651 17.515 31.4651C15.282 31.4651 12.797 30.1541 9.64098 30.0181C4.62198 29.7951 3.96098 25.7851 4.10698 22.0081C4.16498 20.6491 4.64098 19.7071 5.39798 19.0761C5.46598 20.4841 5.63098 21.9011 5.91298 23.2991C5.95198 23.5611 6.20398 23.7361 6.46598 23.6971C6.72798 23.6581 6.91298 23.4061 6.86398 23.1441C6.77698 22.6971 6.69898 22.2411 6.63098 21.7941C6.46598 20.6871 6.36898 19.5711 6.32998 18.4741C6.31998 18.2991 6.31998 18.1241 6.31998 17.9501C6.30998 17.7751 6.30998 17.6001 6.30998 17.4351C6.29998 13.0761 7.11598 9.08605 7.85398 6.81405C7.95098 6.87206 8.05798 6.93105 8.16498 6.97905C8.35898 7.07606 8.55298 7.15405 8.74798 7.20205C8.06798 9.32805 7.32098 13.0661 7.29198 17.1341V17.6391C7.29198 17.8041 7.30198 17.9691 7.30198 18.1341C7.33098 19.2891 7.41898 20.4641 7.59298 21.6291C7.65098 22.0661 7.72898 22.4931 7.81598 22.9201C7.81598 22.9391 7.82598 22.9591 7.82598 22.9881V22.9981C7.88398 23.2501 8.12698 23.4251 8.38898 23.3861C8.61198 23.3471 8.77698 23.1631 8.79698 22.9391V22.9201C8.79698 22.8911 8.79698 22.8621 8.78698 22.8331C8.78698 22.8231 8.78699 22.8141 8.77699 22.8041V22.7751C8.45698 21.1831 8.30098 19.5421 8.28198 17.9301C8.86498 17.8521 9.47599 17.8131 10.107 17.8131C10.389 17.8131 10.67 17.8231 10.952 17.8321C10.641 18.8511 10.331 19.6381 10.088 20.0261C10.039 20.0941 9.97098 20.2301 9.96198 20.2881C9.93298 20.4921 10.03 20.7051 10.234 20.8031C10.467 20.9201 10.749 20.8221 10.875 20.5891L10.904 20.5401C11.059 20.3071 11.224 19.9571 11.399 19.5211V19.5111C11.564 19.0741 11.749 18.5601 11.923 17.9771C11.962 17.8221 12.01 17.6661 12.059 17.5011C12.098 17.3551 12.146 17.2001 12.195 17.0351C12.768 14.9281 13.292 12.3071 13.544 10.1221C13.806 7.89905 14.282 6.23905 14.864 4.83105C15.126 5.01505 15.417 5.17105 15.738 5.25805C15.185 6.58805 14.757 8.13206 14.515 10.2391C14.272 12.3461 13.729 15.0931 13.107 17.3551C13.058 17.5101 13.02 17.6661 12.971 17.8211C12.922 17.9861 12.874 18.1411 12.835 18.2971C12.709 18.7141 12.583 19.1031 12.447 19.4521C12.35 19.7141 12.263 19.9671 12.165 20.1801L12.136 20.2481C12.019 20.5201 11.903 20.7531 11.786 20.9471L11.757 21.0151C11.65 21.2581 11.747 21.5491 11.98 21.6561C12.174 21.7531 12.397 21.7051 12.543 21.5691L12.553 21.5591C12.941 20.9381 13.339 19.9091 13.718 18.7051C14.038 18.8701 14.359 19.0551 14.699 19.2491C14.835 19.3361 14.981 19.4241 15.117 19.5111C15.263 19.6081 15.408 19.7051 15.554 19.8021C15.836 19.9861 16.107 20.1901 16.389 20.3941C16.525 20.5011 16.671 20.5981 16.806 20.7051C16.942 20.8221 17.078 20.9281 17.214 21.0451C18.224 21.8611 19.185 22.7831 19.971 23.7341C19.355 24.5781 18.548 25.2631 17.521 25.6881C17.414 25.7321 17.141 25.8191 17.068 25.8701C16.892 25.9941 16.806 26.2291 16.884 26.4431C16.962 26.6761 17.238 26.8121 17.496 26.7341C17.754 26.6561 17.991 26.5591 17.991 26.5591C19.059 26.1031 19.913 25.3941 20.583 24.5401C20.7 24.4041 20.797 24.2681 20.894 24.1231C20.991 23.9871 21.088 23.8411 21.166 23.6961C22.516 21.4631 22.894 18.5211 22.71 16.0361C22.458 12.6381 22.535 11.2011 22.885 10.1621C22.953 10.2301 23.031 10.2881 23.118 10.3461C23.322 10.4921 23.535 10.6081 23.739 10.6861C23.506 11.5791 23.457 12.9581 23.681 15.9581C23.933 19.3751 23.225 22.3851 21.759 24.5501C21.662 24.6961 21.565 24.8321 21.458 24.9671C21.351 25.1131 21.244 25.2491 21.128 25.3751C20.604 25.9871 20.011 26.5011 19.351 26.9191C18.875 27.2201 18.37 27.4631 17.827 27.6471C17.827 27.6471 17.727 27.6741 17.615 27.7931C17.498 27.9171 17.456 28.1021 17.516 28.2691L17.515 28.2711Z"
    />
</svg>
