<svg width="32" height="32" viewBox="0 0 32 32" xmlns="http://www.w3.org/2000/svg">
  <path
    d="M30.5751 12.9042L29.4511 12.8092C29.0571 12.7792 28.6931 12.9002 28.3901 13.1422L25.9511 15.0972C25.7691 15.2482 25.5121 15.2792 25.3001 15.1732L23.4671 14.2942C23.5581 14.0822 23.8311 13.7492 23.9371 13.7492C24.1491 13.7492 24.3461 13.6582 24.5131 13.5072C25.3461 12.6742 25.3461 11.3252 24.5131 10.4922L24.1651 10.1442C24.2101 10.0682 24.3011 9.84119 24.3471 9.53819L25.6501 8.78019C25.8621 8.65919 25.9381 8.37119 25.8171 8.15919C25.6811 7.94719 25.4081 7.87119 25.1961 7.99219L24.2261 8.55319C24.1501 8.40119 24.0591 8.23519 23.9081 8.08319C23.7571 7.93119 23.6051 7.84119 23.4381 7.76519L23.9991 6.79519C24.1201 6.58319 24.0441 6.31019 23.8321 6.17419C23.6201 6.05319 23.3321 6.12919 23.2111 6.34119L22.4531 7.64419C22.1651 7.68919 21.9231 7.78019 21.8471 7.82619L21.4991 7.47819C20.6661 6.64519 19.3171 6.64519 18.4841 7.47819C18.3331 7.62919 18.2571 7.84219 18.2421 8.03919C18.2421 8.16019 17.909 8.43319 17.6961 8.52419L16.817 6.69119C16.7111 6.47919 16.741 6.22119 16.8931 6.04019L18.8471 3.60119C19.0891 3.29819 19.2111 2.91919 19.1801 2.54019L19.1001 1.41719C19.0851 1.17519 18.8731 0.993189 18.6151 1.00819C18.3571 1.02319 18.1761 1.23519 18.1911 1.49319L18.2711 2.60119C18.2861 2.76819 18.2411 2.91919 18.1351 3.02519L16.1801 5.46419C15.8161 5.91919 15.7411 6.55519 15.9981 7.08519L16.9371 9.04019C16.7251 9.25219 16.5581 9.51019 16.4521 9.79819L16.2851 10.2832C15.5581 10.8742 14.0881 10.9652 12.3911 10.9652C12.376 10.9502 12.3911 10.9352 12.3761 10.9202L11.3611 9.90519C11.2401 9.78419 11.1641 9.61719 11.1791 9.43519L11.3611 7.08719C11.4061 6.64819 11.2401 6.20819 10.9221 5.90519L10.2641 5.23119C10.0821 5.04919 9.79405 5.04919 9.61305 5.23119C9.43205 5.41319 9.43105 5.70119 9.61305 5.88219L10.2861 6.54119C10.4071 6.66219 10.4681 6.84419 10.4531 7.02619L10.2711 9.35919C10.2411 9.79819 10.4071 10.2382 10.7101 10.5562L11.1041 10.9502C8.19505 10.8892 4.90705 10.8292 3.13405 12.6022C0.649051 15.0872 1.27005 16.7532 2.22505 17.7232C2.61905 18.1172 3.45205 18.4962 4.48305 18.7382L4.16505 19.2532C4.08905 19.3742 3.98305 19.4652 3.84705 19.5112L1.31205 20.3812C1.07005 20.4722 0.948051 20.7292 1.02405 20.9722C1.10005 21.1542 1.26605 21.2752 1.46305 21.2752C1.50805 21.2752 1.55405 21.2602 1.61505 21.2452L4.13505 20.3752C4.46805 20.2542 4.75605 20.0272 4.93805 19.7242L5.43805 18.9212C6.31705 19.0422 7.30205 19.0732 8.25605 18.9512C7.93805 19.6782 7.74105 20.3602 7.66505 20.9962C7.55905 21.8902 7.89205 22.7842 8.55905 23.4502C9.21005 24.1022 10.1041 24.4352 10.9981 24.3292C11.6341 24.2682 12.3161 24.0562 13.0431 23.7382C12.9221 24.7082 12.9521 25.6772 13.0881 26.5562L12.2701 27.0562C11.9671 27.2382 11.7401 27.5262 11.6181 27.8592L10.7461 30.3952C10.6701 30.6222 10.7911 30.8802 11.0341 30.9712C11.0791 30.9862 11.1251 31.0012 11.1701 31.0012C11.3671 31.0012 11.5491 30.8802 11.6091 30.6832L12.4811 28.1472C12.5261 28.0112 12.6171 27.9052 12.7391 27.8292L13.2541 27.5112C13.5121 28.5412 13.8751 29.3752 14.2691 29.7692C15.2391 30.7392 16.9051 31.3452 19.3901 28.8602C21.1631 27.0872 21.1021 23.8002 21.0421 20.8902L21.4361 21.2842C21.7541 21.5872 22.1941 21.7542 22.6331 21.7232L24.9661 21.5412C25.1631 21.5262 25.3301 21.5862 25.4511 21.7082L26.1241 22.3792C26.2151 22.4702 26.3211 22.5152 26.4421 22.5152C26.5631 22.5152 26.6691 22.4702 26.7601 22.3792C26.9421 22.1972 26.9421 21.9092 26.7601 21.7282L26.0871 21.0722C25.7841 20.7542 25.3451 20.6022 24.9051 20.6332L22.5571 20.8152C22.3751 20.8302 22.2091 20.7702 22.0871 20.6332L21.0721 19.6182C21.0571 19.6182 21.0421 19.6182 21.0271 19.6032C21.0271 17.9212 21.1181 16.4362 21.7091 15.7242L22.1941 15.5422C22.4821 15.4362 22.7391 15.2692 22.9521 15.0572L24.9061 15.9962C25.1181 16.1022 25.3451 16.1482 25.5731 16.1482C25.9061 16.1482 26.2551 16.0422 26.5281 15.8152L28.9671 13.8612C29.0881 13.7552 29.2401 13.7092 29.3911 13.7252L30.5001 13.8202C30.7421 13.8352 30.9701 13.6532 31.0001 13.4112C31.0151 13.1532 30.8181 12.9412 30.5761 12.9112L30.5751 12.9042ZM2.23905 15.6272C2.25405 15.5062 2.28405 15.3852 2.31505 15.2632C2.36005 15.1272 2.42105 14.9902 2.48205 14.8542C2.60305 14.5812 2.80005 14.2782 3.04305 13.9602H3.05805C3.24005 13.7182 3.46705 13.4602 3.74005 13.2022C4.30105 12.6262 5.08805 12.2932 6.01305 12.0812C6.61905 11.9452 7.27005 11.8542 7.96705 11.8232C8.30005 11.7932 8.64905 11.7932 8.99705 11.7782C9.70905 11.7632 10.4211 11.7782 11.1031 11.7932C11.5421 11.8082 11.9671 11.8082 12.3911 11.8082C12.8151 11.8082 13.2091 11.8082 13.6031 11.7932C13.982 11.7782 14.3611 11.7482 14.7091 11.7022C15.0421 11.6572 15.376 11.5962 15.6641 11.5052C15.5581 11.6872 14.8611 12.9142 14.8611 12.9142H11.3161C10.9671 12.9142 10.6531 13.0102 10.3951 13.2072C10.3341 13.2522 10.2861 13.3072 10.2251 13.3682L7.57405 16.0192C7.45305 16.1402 7.30105 16.2012 7.13505 16.2012H2.28505C2.25505 16.1252 2.24005 16.0342 2.24005 15.9432C2.22505 15.8982 2.22505 15.8372 2.22505 15.7912C2.22505 15.7302 2.22505 15.6852 2.24005 15.6242L2.23905 15.6272ZM15.2391 19.1722L14.6331 19.7932L12.1941 17.3542L12.8151 16.7482L15.2391 19.1722ZM5.43605 18.0512C5.02705 17.9902 4.64805 17.9002 4.30005 17.8092C3.60305 17.6122 3.08805 17.3702 2.83005 17.1122H7.13305C7.52705 17.1122 7.92105 16.9612 8.20905 16.6732L10.8761 14.0062C10.9971 13.8852 11.149 13.8242 11.3151 13.8242H14.2241C14.1791 13.8852 14.1331 13.9602 14.0731 14.0212C13.9671 14.1722 13.8461 14.3392 13.6941 14.5212C13.5421 14.7182 13.3611 14.9152 13.1481 15.1572C12.8301 15.5212 12.4211 15.9602 11.8601 16.5052C11.6931 16.6722 11.5271 16.8232 11.3451 16.9602C10.9811 17.2332 10.5721 17.4452 10.1481 17.6112C9.72405 17.7932 9.26905 17.9142 8.81505 18.0052C7.67905 18.2172 6.48205 18.2022 5.43605 18.0502V18.0512ZM13.1481 23.1722L8.81505 18.8392L9.83005 18.6272L13.3601 22.1572L13.1481 23.1722ZM14.8751 24.8542V29.1572C14.7241 29.0062 14.5721 28.7482 14.4361 28.4152C14.3451 28.2032 14.2541 27.9602 14.1781 27.6882C14.0871 27.3392 13.9961 26.9612 13.9361 26.5522C13.8751 26.1282 13.8451 25.6882 13.8301 25.2492C13.8151 24.5672 13.8601 23.8552 13.9821 23.1732C14.0731 22.7182 14.1941 22.2642 14.3761 21.8402C14.5431 21.4162 14.7551 21.0072 15.0271 20.6432C15.1631 20.4612 15.3151 20.2952 15.4821 20.1282C15.6641 19.9462 15.8301 19.7802 15.9971 19.6282C16.633 19.0072 17.0881 18.5982 17.4671 18.2952C17.649 18.1592 18.1031 17.8102 18.1641 17.7652V20.6742C18.1641 20.8412 18.1031 21.0072 17.9821 21.1132L15.3151 23.7802C15.0271 24.0682 14.8761 24.4472 14.8761 24.8562L14.8751 24.8542ZM20.1931 20.8842C20.2081 21.5812 20.2231 22.2782 20.2081 22.9902C20.1781 25.0812 19.9201 27.1262 18.7841 28.2632C18.5261 28.5212 18.2691 28.7482 18.0421 28.9302L18.0271 28.9452C17.7091 29.2032 17.4061 29.3842 17.1331 29.5062C16.8451 29.6422 16.6031 29.7182 16.3601 29.7482C16.2541 29.7632 16.1481 29.7632 16.0421 29.7632C15.9511 29.7482 15.8601 29.7332 15.7841 29.7022V24.8542C15.7841 24.6872 15.845 24.5362 15.9661 24.4152L18.1931 22.1882L18.6321 21.7642C18.6771 21.7192 18.7691 21.6382 18.8141 21.5932C19.0111 21.3202 19.0711 21.0062 19.0711 20.6732V17.1282C19.0711 17.1282 20.1321 16.5072 20.4801 16.3252C20.1321 17.5072 20.1621 19.1282 20.1921 20.8852L20.1931 20.8842ZM20.4811 9.44519C19.9961 9.94519 19.5421 10.3542 19.0571 9.86919C18.5721 9.38419 18.5871 8.58119 19.0871 8.08119C19.5871 7.58119 20.3901 7.56619 20.8751 8.05119C21.3601 8.53619 20.9811 8.96019 20.4811 9.44519ZM22.1321 12.9302C21.6471 12.4452 22.0411 12.0062 22.5411 11.5062C23.0411 11.0062 23.4501 10.6272 23.9351 11.1122C24.4201 11.5972 24.4051 12.4002 23.9051 12.9002C23.4051 13.4002 22.6171 13.4152 22.1321 12.9302Z"
    />
</svg>
