<svg width="31" height="32" viewBox="0 0 31 32"  xmlns="http://www.w3.org/2000/svg">
<path d="M27.674 23.5183C28.2817 23.6051 29.0264 23.7948 29.5818 23.9362C29.8079 23.9937 30.0026 24.0433 30.1439 24.0747C30.6732 24.1561 30.7003 24.3869 30.5103 24.7533C30.4617 24.9057 30.3627 25.0371 30.2295 25.1259C30.0963 25.2147 29.937 25.2555 29.7775 25.2418C29.5695 25.2474 29.3755 25.2717 29.1637 25.2982C28.864 25.3356 28.5287 25.3775 28.0676 25.3775H25.8284C24.8377 25.3775 24.1728 25.1875 24.3899 23.7219C24.3969 23.0702 24.265 22.4245 24.0029 21.8278C23.7409 21.2311 23.3546 20.6971 22.87 20.2613C22.3521 19.6532 21.9351 18.966 21.635 18.2257C21.635 18.2257 21.7165 16.7736 21.7165 16.1494C21.723 16.1089 21.723 16.0677 21.7165 16.0272C21.6947 15.944 21.6478 15.8694 21.5823 15.8136C21.5168 15.7578 21.4357 15.7234 21.35 15.7151C21.2962 15.7095 21.2417 15.715 21.1901 15.7314C21.1385 15.7478 21.0908 15.7747 21.05 15.8104C21.0093 15.846 20.9763 15.8897 20.9532 15.9387C20.9301 15.9877 20.9174 16.0409 20.9158 16.0951C20.9083 16.1899 20.9083 16.2852 20.9158 16.3801C20.8479 17.045 20.8479 18.0629 20.8479 18.1986C19.785 20.1096 18.5153 21.8981 17.0617 23.5319C16.8309 23.8101 16.6349 24.1154 16.4781 24.4411C16.1848 24.9353 15.7747 25.35 15.2839 25.6489C14.8043 25.9524 14.25 26.1168 13.6825 26.1239C12.9878 26.1187 12.3181 25.8633 11.7962 25.4047C11.234 24.9484 10.843 24.0568 10.4852 23.2408C10.2471 22.6977 10.0236 22.1881 9.77416 21.8627C9.56781 21.5704 9.34583 21.2896 9.10919 21.0213L6.78858 18.0764C6.59859 17.8457 6.4086 17.615 6.23218 17.3707C5.06809 15.8076 4.30591 13.9855 4.00859 12.0648C4.71705 11.7642 5.20263 11.3456 5.5077 10.7702C5.90778 10.0156 5.95 9.06405 5.95 8.00234V4.50234C5.95 4.01869 6.18815 3.56115 6.57848 3.2147C6.97053 2.86674 7.4861 2.65935 7.9785 2.65935C8.41635 2.65935 8.76011 2.65255 9.02245 2.64366C9.01975 2.64913 9.017 2.65458 9.01419 2.66C9.15079 3.09904 9.21496 3.55741 9.20418 4.01708C9.18371 4.12012 9.18371 4.22617 9.20418 4.32921C9.22548 4.38884 9.28154 4.48992 9.34592 4.60601C9.48666 4.85978 9.66718 5.18526 9.61131 5.30631C9.56708 5.40213 9.39873 5.40988 9.25415 5.41652C9.13255 5.42211 9.02776 5.42693 9.02776 5.48273C8.99195 5.94812 8.88674 6.40554 8.71564 6.83981C8.67641 6.89979 8.62156 6.94792 8.55698 6.97901C8.49241 7.0101 8.42057 7.02297 8.34922 7.01623C7.02662 6.41783 7.02814 6.73338 7.03235 7.60412C7.0326 7.65508 7.03286 7.70793 7.03286 7.76262C7.03286 8.04761 7.08714 8.34617 7.18214 8.34617C8.59736 8.64838 9.96633 9.13664 11.2534 9.79824L11.6062 9.98823C11.9287 10.1634 12.2372 10.363 12.529 10.5853L14.144 11.3725L13.8861 8.84829L13.5876 6.44625L13.1533 6.10698C12.7326 5.84914 12.2576 4.77705 12.5697 4.49206C12.7186 4.35613 12.7286 4.18625 12.738 4.0251C12.7483 3.84839 12.7581 3.68219 12.9497 3.58282C13.3214 3.38949 13.7269 3.26969 14.144 3.22997H14.3475C14.5705 3.2285 14.7916 3.26997 14.9989 3.35211C15.5282 3.5421 15.6232 5.87628 15.311 6.06627L16.8038 12.3631L16.8717 12.6617C16.8717 12.6617 16.736 14.1816 16.3017 14.4259C16.1842 14.4909 16.0551 14.5324 15.9217 14.548C15.8267 14.548 14.6732 14.3037 13.5333 14.0459L11.6741 13.6523L11.2669 13.5574L9.21776 13.0145C9.16607 13.0001 9.11205 12.9961 9.0588 13.0026C9.00554 13.0091 8.9541 13.0261 8.90744 13.0526C8.86078 13.0791 8.81981 13.1145 8.78689 13.1569C8.75398 13.1993 8.72976 13.2477 8.71564 13.2995C8.69408 13.3931 8.70522 13.4913 8.74719 13.5777C8.78916 13.6641 8.85944 13.7336 8.94634 13.7745L11.8776 14.548C12.1074 15.1566 12.3748 15.7504 12.6783 16.3258C12.7804 16.5781 13.1193 16.9953 13.4582 17.4126C13.8848 17.9379 14.3115 18.4633 14.2661 18.66C14.6032 18.1492 15.0149 17.6918 15.4875 17.3029C17.2209 15.6303 18.4943 14.4943 19.3507 13.7304C20.0229 13.1308 20.4382 12.7604 20.6172 12.5395C20.7773 12.329 20.982 12.1566 21.2167 12.0346C21.4513 11.9126 21.71 11.844 21.9743 11.8339C22.233 11.8305 22.4873 11.9011 22.7071 12.0374C23.0389 12.2321 23.3146 12.5095 23.5073 12.8424C23.6999 13.1754 23.803 13.5527 23.8064 13.9373C23.8607 14.1952 23.9556 14.5887 24.0778 15.0909C24.5392 16.8279 25.4077 19.7728 26.032 21.6184C26.1223 21.8168 26.2362 22.0036 26.3712 22.1748C26.6485 22.579 26.9522 22.9644 27.2805 23.3283C27.3888 23.4309 27.5263 23.4973 27.674 23.5183Z" />
<path d="M8.88872 1.74742L8.85134 1.71005C8.61359 1.19529 8.23229 0.76012 7.75323 0.456798C7.27418 0.153477 6.71774 -0.0050965 6.15075 0.000124912C5.428 0.00928316 4.65286 0.210696 4.03371 0.583669C3.91546 0.6527 3.80211 0.729783 3.69444 0.814373C2.92861 1.58057 2.44947 2.58675 2.33736 3.66424C2.05628 5.07574 1.52794 6.42645 0.776717 7.65406C0.0167524 9.01114 -0.580363 10.1239 0.966708 11.2096C1.37592 11.4524 1.84895 11.5659 2.32379 11.5353C2.50801 11.538 2.69185 11.523 2.87281 11.4908L2.87217 11.4882C3.96466 11.2232 4.45538 10.8337 4.71255 10.3486C4.99268 9.82028 5.05 9.0919 5.05 8.00234V4.50234C5.05 3.71214 5.43846 3.02318 5.98105 2.54159C6.52194 2.06152 7.24562 1.75935 7.9785 1.75935C8.35088 1.75935 8.65149 1.75432 8.88872 1.74742Z" />
<path d="M18.2152 10.1238C18.2219 10.1688 18.2219 10.2146 18.2152 10.2596C18.0958 10.8646 17.8508 11.4379 17.496 11.9423L16.1389 6.13403C16.284 5.60379 16.3163 5.04904 16.2339 4.50553C16.1253 3.4063 15.8132 2.7549 15.2568 2.55134C14.9553 2.42915 14.6322 2.36915 14.3069 2.37492C14.122 2.35419 13.9353 2.35419 13.7504 2.37492C13.7246 2.21764 13.7246 2.05721 13.7504 1.89994C13.7494 1.77334 13.7783 1.6483 13.8349 1.53506C13.8916 1.42183 13.9742 1.32364 14.0761 1.24854C14.0831 1.1854 14.0831 1.12169 14.0761 1.05855C14.0919 0.916201 14.1455 0.78068 14.2314 0.666109C14.3174 0.551538 14.4324 0.462111 14.5647 0.407149C14.9969 0.235246 15.4567 0.143281 15.9218 0.135733C16.2837 0.126505 16.6424 0.205695 16.9667 0.366437C17.3331 0.542857 17.5231 1.11283 17.5231 2.04922C17.5489 2.57428 17.4562 3.09841 17.2517 3.58272L18.2152 10.1238Z" />
<path d="M26.9412 18.7278V18.8499C26.8598 19.2028 26.7377 19.8813 26.6019 20.7227C26.0455 19.0264 25.3399 16.6515 24.9327 15.0908C25.6273 15.2946 26.2308 15.7305 26.6427 16.3258C26.8908 16.6685 27.0483 17.0685 27.1005 17.4884C27.1527 17.9084 27.0979 18.3347 26.9412 18.7278Z" />
<path d="M28.7706 31.3487C28.8361 31.2224 28.874 31.0836 28.8818 30.9415C28.8679 30.7933 28.8204 30.6502 28.7428 30.5232C28.6651 30.3962 28.5595 30.2886 28.434 30.2086L28.0269 29.8965C27.5655 29.5301 26.9276 29.028 26.3848 28.6751C26.33 28.6388 26.2874 28.5868 26.2627 28.5259C26.0683 27.9112 25.932 27.2796 25.8556 26.6395V26.151C25.5179 26.1862 25.1766 26.1474 24.8555 26.0373C24.5344 25.9271 24.2412 25.7483 23.9964 25.5131C23.8063 25.247 23.6732 24.9445 23.6055 24.6246C23.5378 24.3047 23.5369 23.9742 23.6028 23.6539C23.6021 23.1423 23.4943 22.6364 23.2863 22.169C23.0783 21.7015 22.7747 21.2828 22.395 20.9398L22.2864 20.8041C21.8717 20.3534 21.516 19.8518 21.2279 19.3113C20.2018 21.0371 19.0111 22.6596 17.6724 24.1561C17.5336 24.3106 17.4108 24.4789 17.306 24.6582L17.2381 24.7939C19.0848 23.9646 20.8252 22.9167 22.4221 21.6726C22.3717 22.5429 22.4727 23.4153 22.7207 24.251V24.4139C22.9535 24.9277 23.0739 25.4852 23.0739 26.0492C23.0739 26.6132 22.9535 27.1707 22.7207 27.6845C22.5391 27.9099 22.4106 28.1734 22.3449 28.4553C22.2791 28.7373 22.2777 29.0304 22.3407 29.313C22.5443 29.9779 23.2771 30.2765 24.0506 30.5886C24.3763 30.7243 24.7021 30.86 25.0277 31.0229C25.5487 31.3083 26.0993 31.5358 26.6698 31.7014L27.1991 31.8778C27.3696 31.9556 27.5545 31.9972 27.7419 32C28.028 31.9944 28.3006 31.8776 28.5019 31.6743C28.6135 31.586 28.7051 31.4751 28.7706 31.3487Z" />
</svg>
