<svg width="32" height="32" viewBox="0 0 32 32"  xmlns="http://www.w3.org/2000/svg">
<path d="M21.02 26.5257L8.527 26.7697L5.406 26.8257C4.353 26.9007 3.075 26.8447 2.219 26.0547C0.432998 24.5887 0.780998 21.8997 2.163 20.2827C2.182 20.3387 2.219 20.3857 2.248 20.4427C2.389 20.6687 2.558 20.8657 2.746 21.0257C0.808998 23.3287 1.975 26.5817 5.406 26.2147C7.436 26.2617 18.745 26.4787 21.02 26.5257Z" />
<path d="M22.251 20.9418C22.072 21.1678 22.007 21.4498 22.054 21.6938L22.242 22.8308C22.242 22.8778 22.261 22.9158 22.27 22.9528L22.524 23.5258C22.562 23.6008 22.571 23.6668 22.552 23.7048C22.524 23.7428 22.439 23.7798 22.298 23.7798H21.602C21.32 23.7798 21.226 23.7518 21.207 23.7328C21.207 23.7328 21.188 23.6858 21.216 23.5538L21.338 22.8108V22.6788L21.235 21.8608C21.197 21.6068 21.056 21.3908 20.84 21.2408C20.68 21.1378 20.53 21.0148 20.379 20.8838C20.652 20.3108 20.802 19.6528 20.934 19.0038C21.742 18.6558 22.495 18.3368 23.153 18.0918C23.115 18.2888 23.068 18.4868 23.031 18.6748C22.852 19.5588 22.683 20.3958 22.251 20.9418Z" />
<path d="M30.862 15.7431C30.618 16.2691 30.157 16.6361 29.743 16.6361H28.38C28.38 16.5041 28.38 16.3731 28.399 16.2411V16.2321C28.474 15.4051 28.794 14.5211 29.245 14.0041C29.424 13.8071 29.602 13.6751 29.79 13.6091C29.818 13.5901 29.856 13.5811 29.893 13.5811C30.203 13.9191 30.513 14.2771 30.833 14.6431C31.087 14.9441 31.013 15.4041 30.862 15.7431Z" />
<path d="M25.457 9.50099C24.959 9.20999 24.564 9.00299 24.207 8.89899C24.263 9.21899 24.169 9.55699 23.934 9.81099L22.759 11.165C22.505 11.456 22.139 11.626 21.781 11.626C21.621 11.626 21.471 11.588 21.33 11.532C20.663 11.25 18.764 10.31 17.908 9.35999C17.823 9.26599 17.382 8.82399 17.25 8.71099C17.118 8.59799 16.996 8.48499 16.883 8.40099C16.432 8.04399 14.711 7.29199 12.559 7.29199C11.939 7.29199 11.29 7.34799 10.622 7.49899C8.05598 8.08199 6.04398 9.80199 4.64298 12.632C2.87598 16.214 2.32098 18.564 2.96998 19.805C2.98898 19.852 3.00798 19.899 3.03598 19.937C3.11098 20.059 3.20498 20.172 3.30898 20.266C3.87298 20.802 4.82298 21.027 5.96898 21.121C4.94398 19.795 4.56798 18.085 4.53998 17.962C4.49298 17.718 4.65298 17.464 4.90698 17.407C5.14198 17.36 5.38598 17.51 5.45198 17.745C5.45198 17.754 5.46098 17.764 5.46098 17.773C5.46998 17.801 5.96898 20.085 7.32198 21.167C7.58498 21.383 7.87698 21.552 8.20598 21.646C8.40298 21.702 8.60998 21.731 8.83598 21.731C9.06198 21.731 9.24998 21.891 9.29698 22.107C9.30598 22.135 9.30598 22.163 9.30598 22.201V22.84C9.30598 23.489 9.56898 23.78 10.171 23.78H13.076C13.038 23.113 12.803 22.943 11.393 22.943C10.838 22.943 10.359 22.633 10.096 22.097C10.077 22.078 10.068 22.05 10.058 22.031C10.002 21.909 9.95498 21.777 9.92598 21.627C9.88798 21.477 9.87898 21.307 9.91698 21.157C9.93598 21.044 9.97298 20.931 10.058 20.837C11.167 19.521 11.177 16.673 11.055 16.25C11.046 16.231 11.046 16.222 11.036 16.203C10.951 15.987 11.064 15.752 11.28 15.639C11.506 15.526 11.797 15.639 11.919 15.874C12.126 16.288 12.21 19.362 10.998 21.138C12.399 21.082 13.94 20.696 15.482 20.17C15.379 20.048 15.294 19.926 15.209 19.813C14.955 19.475 14.711 19.155 14.495 18.92C14.316 18.732 14.326 18.431 14.514 18.253C14.702 18.074 14.993 18.084 15.172 18.272C15.21 18.31 15.247 18.357 15.285 18.404C15.511 18.648 15.727 18.94 15.962 19.25C16.112 19.438 16.263 19.645 16.413 19.842C16.516 19.974 16.629 20.096 16.733 20.227C16.846 20.359 16.959 20.481 17.081 20.603C17.316 20.838 17.57 21.064 17.842 21.242C18.058 21.392 18.209 21.609 18.237 21.862L18.34 22.68C18.349 22.718 18.349 22.765 18.34 22.812L18.218 23.555C18.19 23.687 18.209 23.734 18.209 23.734C18.237 23.753 18.322 23.781 18.604 23.781H19.3C19.441 23.781 19.526 23.743 19.554 23.706C19.573 23.668 19.563 23.603 19.535 23.537L19.272 22.954C19.263 22.916 19.244 22.879 19.244 22.832L19.056 21.695C19.018 21.479 19.056 21.234 19.197 21.028C19.206 21 19.235 20.972 19.253 20.943C19.328 20.849 19.394 20.736 19.46 20.623C19.545 20.482 19.61 20.313 19.667 20.144C19.742 19.937 19.808 19.712 19.864 19.467C19.911 19.279 19.949 19.091 19.986 18.894C20.005 18.819 20.014 18.753 20.033 18.678C20.052 18.565 20.08 18.452 20.099 18.34C20.165 18.067 20.221 17.795 20.296 17.522C20.446 16.958 20.653 16.403 20.963 15.905C21.142 15.623 21.358 15.369 21.612 15.134C21.8 14.965 22.101 14.974 22.27 15.172C22.449 15.36 22.439 15.661 22.242 15.83C21.885 16.159 21.64 16.563 21.462 17.005C21.349 17.278 21.255 17.578 21.18 17.879C22.026 17.522 22.797 17.212 23.455 16.986C23.652 16.92 23.84 16.864 24.019 16.817C24.226 16.761 24.423 16.714 24.602 16.685C24.781 16.657 24.95 16.638 25.1 16.638H27.431C27.431 15.472 27.863 14.147 28.54 13.385C28.747 13.15 28.972 12.962 29.207 12.84C27.684 11.214 26.34 10.02 25.456 9.50299L25.457 9.50099ZM25.805 13.271C25.269 13.271 24.846 12.848 24.846 12.312C24.846 11.786 25.269 11.353 25.805 11.353C26.331 11.353 26.764 11.785 26.764 12.312C26.764 12.848 26.332 13.271 25.805 13.271Z" />
<path d="M23.285 9.06893C23.285 9.08793 23.285 9.13493 23.229 9.19093L22.054 10.5539C21.951 10.6569 21.8 10.7139 21.697 10.6669C21.396 10.5349 21.03 10.3569 20.644 10.1499C20.447 10.0469 20.24 9.93393 20.042 9.81193C19.976 9.77393 19.92 9.73693 19.854 9.69893C19.346 9.37893 18.876 9.04093 18.604 8.73093C18.519 8.63693 18.444 8.53393 18.378 8.42993C17.917 7.63093 18.077 6.56893 18.82 5.83493C19.281 5.38393 19.873 5.14893 20.437 5.14893C20.916 5.14893 21.377 5.31793 21.715 5.66593C22.063 6.03293 22.486 6.86893 22.918 7.99693C22.965 8.13793 23.012 8.27893 23.068 8.42893C23.124 8.56993 23.171 8.71993 23.218 8.87993C23.246 8.94593 23.265 9.00193 23.284 9.06793L23.285 9.06893Z" />
</svg>
