<svg width="32" height="32" viewBox="0 0 32 32"  xmlns="http://www.w3.org/2000/svg">
<g clip-path="url(#clip0_2719_1044)">
<path d="M28.4891 17.5352C27.9041 18.1162 27.3451 18.6642 26.9181 19.0662C25.7071 20.2062 25.0041 20.7152 24.3951 21.1452C24.1881 21.3462 23.9951 21.5302 23.8311 21.6832C23.0341 22.4222 22.5841 22.7352 22.1461 23.0202C20.1151 24.9382 16.2501 28.6852 16.2091 28.7252C15.9131 29.0122 15.5511 29.2042 15.1611 29.3062C15.0841 29.3802 15.0271 29.4352 15.0121 29.4502C14.5651 29.8802 14.6351 30.6722 15.1691 31.2192C15.4291 31.4862 15.7501 31.6452 16.0641 31.6882C16.1221 31.6962 16.1811 31.7002 16.2381 31.7002C16.5041 31.7002 16.7551 31.6122 16.9431 31.4312C16.9811 31.3942 20.7671 27.7502 22.2271 26.4122C22.8601 25.8312 23.2311 25.5912 23.6591 25.3132C24.1651 24.9852 24.7381 24.6142 25.7371 23.6862C26.9841 22.5292 29.5631 19.8682 29.6731 19.7562C30.1041 19.3112 30.0111 18.5162 29.4661 17.9822C29.1781 17.7002 28.8251 17.5522 28.4891 17.5352Z" />
<path d="M2.11504 14.9882C2.16204 14.9932 2.20904 14.9962 2.25504 14.9962C2.58004 14.9962 2.88304 14.8622 3.08504 14.5962C3.09604 14.5812 4.21604 13.1092 5.64704 11.7232C6.29904 11.0922 6.66205 10.8232 7.08404 10.5122C7.57004 10.1532 8.12204 9.74517 9.12904 8.76017C10.082 7.82717 13.362 4.56217 14.915 3.01517C15.373 2.55917 15.321 1.73817 14.799 1.18017C14.504 0.864172 14.123 0.701172 13.764 0.701172C13.489 0.701172 13.227 0.797172 13.028 0.995172C11.477 2.53917 8.20605 5.79617 7.25405 6.72817C6.34605 7.61817 5.89505 7.95017 5.41805 8.30317C4.98004 8.62617 4.52704 8.96117 3.78104 9.68317C2.23504 11.1802 1.06404 12.7222 1.01504 12.7872C0.623045 13.3062 0.767045 14.1322 1.33904 14.6312C1.57604 14.8382 1.84804 14.9572 2.11504 14.9882Z" />
<path d="M9.08304 19.4073C9.16004 19.0513 9.31004 18.7073 9.55604 18.4063C9.76004 18.1583 11.605 15.9353 13.51 14.2333C14.274 13.5513 15.211 12.6893 16.207 11.7743L16.332 11.6593C17.178 10.8813 18.039 10.0913 18.875 9.33226C18.826 9.06326 18.723 8.80226 18.514 8.59426C18.308 8.38926 18.05 8.28726 17.784 8.23926C15.763 9.57226 13.462 12.1373 12.443 13.4253C10.74 15.5803 7.27304 18.4243 7.12804 18.5423C6.70604 18.8893 6.17204 19.0813 5.62504 19.0813L5.51804 19.0793C5.38604 19.0733 5.25804 19.0483 5.13104 19.0203C2.99704 20.4773 1.47504 22.2623 1.41004 22.3393C0.917044 22.9223 0.991044 23.7943 1.57404 24.2873C1.81104 24.4873 2.09504 24.5943 2.38204 24.6123C2.41004 24.6143 2.43804 24.6153 2.46704 24.6153C2.86004 24.6153 3.25004 24.4493 3.52404 24.1263C3.53804 24.1103 4.93104 22.4783 6.79904 21.2303C7.45604 20.7903 8.24104 20.1483 9.08304 19.4083V19.4073Z" />
<path d="M22.212 1.32816C21.951 1.10416 21.63 0.993164 21.31 0.993164C20.921 0.993164 20.534 1.15616 20.26 1.47516C19.762 2.05416 18.141 3.73416 16.635 4.54416C13.399 6.28216 10.122 10.3092 9.49803 11.0992C8.06903 12.9072 4.77903 15.6152 4.74603 15.6432C4.15503 16.1282 4.07003 17.0002 4.55403 17.5902C4.67203 17.7332 4.81403 17.8432 4.96703 17.9252C5.15203 18.0252 5.35503 18.0852 5.56203 18.0942C5.56403 18.0942 5.56503 18.0942 5.56703 18.0942C5.58603 18.0942 5.60503 18.0952 5.62403 18.0952C5.93203 18.0952 6.24403 17.9922 6.50103 17.7812C6.64603 17.6632 10.054 14.8572 11.668 12.8142C11.913 12.5042 12.226 12.1312 12.569 11.7372C13.892 10.2152 15.823 8.26816 17.573 7.20916C17.696 7.13416 17.822 7.04616 17.943 6.98116C20.207 5.76416 22.271 3.38016 22.358 3.27916C22.856 2.69916 22.79 1.82616 22.21 1.32816H22.212Z" />
<path d="M19.892 9.74223C19.683 9.93123 19.472 10.1222 19.26 10.3152C18.514 10.9942 17.75 11.6952 16.999 12.3862C15.953 13.3482 14.965 14.2572 14.167 14.9692C12.623 16.3482 11.129 18.0712 10.564 18.7392C10.43 18.8982 10.332 19.0162 10.317 19.0342C10.11 19.2862 10.029 19.5912 10.025 19.8942C10.02 20.3002 10.172 20.7042 10.51 20.9822C10.745 21.1752 11.025 21.2772 11.307 21.2932C11.333 21.2952 11.36 21.2952 11.386 21.2952C11.786 21.2952 12.184 21.1222 12.457 20.7892C12.461 20.7842 12.577 20.6432 12.774 20.4122C12.98 20.1282 13.188 19.8412 13.407 19.5362C14.515 17.9952 15.77 16.2482 17.187 14.6712C18.685 13.0052 19.752 12.2252 19.952 12.0842C20.352 11.8042 20.822 11.6572 21.309 11.6572C21.487 11.6572 21.66 11.6822 21.83 11.7202C22.192 11.3932 22.548 11.0752 22.89 10.7732C24.401 9.43623 28.223 6.50123 28.261 6.47223C28.867 6.00723 28.982 5.13823 28.516 4.53223C28.244 4.17723 27.833 3.99023 27.418 3.99023C27.124 3.99023 26.828 4.08323 26.576 4.27623C26.416 4.39923 22.64 7.29923 21.056 8.69923C20.68 9.03123 20.289 9.38323 19.892 9.74223Z" />
<path d="M16.4541 21.7261C17.5061 20.2621 18.6991 18.6031 19.9781 17.1801C21.2301 15.7881 22.0991 15.1621 22.1041 15.1601C22.7301 14.7221 22.8821 13.8591 22.4441 13.2331C22.3341 13.0761 22.1931 12.9571 22.0401 12.8611C21.8791 12.7611 21.7041 12.6961 21.5191 12.6671C21.4491 12.6561 21.3801 12.6421 21.3101 12.6421C21.0541 12.6421 20.7981 12.7201 20.5681 12.8671C20.5521 12.8771 20.5331 12.8811 20.5171 12.8921C20.4111 12.9671 19.4721 13.6461 18.1211 15.1131C18.0531 15.1861 17.9901 15.2521 17.9201 15.3301C17.2021 16.1291 16.5241 16.9791 15.8831 17.8251C15.2921 18.6051 14.7321 19.3811 14.2081 20.1111C13.9831 20.4251 13.7641 20.7271 13.5481 21.0251C13.2461 21.4411 12.9501 21.8431 12.6641 22.2151C10.8011 24.6301 6.17208 28.6801 6.12508 28.7211C5.54908 29.2241 5.49008 30.0981 5.99208 30.6731C6.26608 30.9871 6.65007 31.1471 7.03507 31.1471C7.05807 31.1471 7.08008 31.1471 7.10208 31.1451C7.40208 31.1301 7.70007 31.0191 7.94407 30.8051C8.07607 30.6901 10.2051 28.8261 12.2111 26.8171C12.2601 26.2491 12.4991 25.7221 12.9111 25.3221C12.9361 25.2971 14.4201 23.8581 16.0421 22.2981C16.1801 22.1071 16.3151 21.9221 16.4561 21.7251L16.4541 21.7261Z" />
<path d="M31.069 11.5453C30.8 11.2823 30.452 11.1523 30.104 11.1523C29.744 11.1523 29.384 11.2923 29.113 11.5703C29.081 11.6033 25.83 14.9373 24.347 16.3323C23.266 17.3503 22.718 17.7353 22.14 18.1433C21.596 18.5263 21.034 18.9233 20.121 19.7733C19.333 20.5083 18.027 21.7573 16.789 22.9473C15.755 23.9413 14.774 24.8903 14.177 25.4683C13.851 25.7843 13.636 25.9923 13.597 26.0293C13.524 26.1003 13.485 26.1893 13.431 26.2713C13.243 26.5553 13.169 26.8793 13.213 27.2063C13.251 27.4893 13.353 27.7653 13.567 27.9863C13.826 28.2533 14.166 28.3933 14.512 28.4063C14.528 28.4063 14.544 28.4063 14.561 28.4063C14.609 28.4063 14.655 28.3843 14.703 28.3793C15 28.3483 15.292 28.2403 15.524 28.0163C15.567 27.9743 19.515 24.1473 21.533 22.2433C21.705 22.0813 21.868 21.9283 22.008 21.7973C22.782 21.0753 23.224 20.7643 23.735 20.4043C23.745 20.3973 23.755 20.3903 23.765 20.3833C24.361 19.9633 25.041 19.4793 26.245 18.3463C26.731 17.8893 27.386 17.2453 28.057 16.5763C29.493 15.1443 31.004 13.5943 31.097 13.5003C31.63 12.9533 31.619 12.0773 31.072 11.5433L31.069 11.5453Z" />
</g>
<defs>
<clipPath id="clip0_2719_1044">
<rect width="32" height="32" fill="white"/>
</clipPath>
</defs>
</svg>
