<svg width="32" height="32" viewBox="0 0 32 32"  xmlns="http://www.w3.org/2000/svg">
<path d="M6.46112 11.6852L6.66312 11.4832L6.71812 11.4302C7.27712 10.8922 7.85712 10.3502 8.45812 9.81719C8.52112 9.73419 8.59112 9.64919 8.65412 9.56719L9.26612 8.76819L9.64312 8.29119C10.3631 7.37719 11.0431 6.51419 11.8101 5.76819C12.2471 5.31019 12.6871 4.96819 13.1681 4.71319C13.6981 4.42119 14.2991 4.23419 14.8711 4.07519C15.9801 3.80019 17.2271 3.65619 18.7841 3.62419C18.9631 3.62019 19.1151 3.49119 19.1481 3.31519C19.1811 3.13919 19.0851 2.96419 18.9191 2.89619C17.8521 2.46219 16.7051 2.24219 15.5091 2.24219C15.1911 2.24219 14.8681 2.25819 14.5501 2.29019C13.8281 2.35419 13.0691 2.54819 12.2991 2.86619C11.6201 3.17219 10.9421 3.65319 10.3271 4.26419C9.38712 5.21919 8.57112 6.33219 7.75812 7.77019C6.99412 9.13119 6.44212 10.4122 6.06912 11.6872C6.03512 11.8022 6.07512 11.9112 6.14212 12.0042C6.24912 11.8982 6.35512 11.7942 6.46212 11.6862L6.46112 11.6852ZM11.3551 4.30519C11.6021 4.30519 11.8021 4.50519 11.8021 4.75219C11.8021 4.99919 11.6021 5.19919 11.3551 5.19919C11.1081 5.19919 10.9081 4.99919 10.9081 4.75219C10.9081 4.50519 11.1081 4.30519 11.3551 4.30519Z" />
<path d="M4.79107 15.8914C5.62407 15.8724 6.47107 15.6004 7.17807 15.1264C7.68307 14.7604 8.05407 14.4074 8.41207 14.0674C8.53907 13.9464 8.66707 13.8244 8.80107 13.7024C9.68207 12.8244 10.5281 11.9384 11.3461 11.0804L11.6001 10.8154L11.9111 10.4984C12.2561 10.1454 12.6131 9.78036 12.9801 9.45636C12.9921 9.44636 13.0041 9.43536 13.0161 9.42536C13.0461 9.11736 13.1771 8.81936 13.4151 8.58836C13.7301 8.28336 14.0631 7.99436 14.4061 7.71336C14.4021 7.71336 14.4001 7.70936 14.3961 7.70836C14.3071 7.69836 14.2191 7.69336 14.1301 7.69336C13.4351 7.69336 12.7871 7.98636 12.1821 8.28636C11.6011 8.59636 11.0361 8.96836 10.3931 9.46236C9.96607 9.78536 9.56807 10.1354 9.17107 10.4844C8.55707 11.0254 7.96107 11.5784 7.38907 12.1294L7.33407 12.1824L7.14607 12.3704C6.88107 12.6364 6.61707 12.8944 6.36207 13.1314C6.22807 13.2564 6.09207 13.3854 5.97107 13.4844C5.63807 13.7664 5.18907 13.9644 4.59107 14.0944C4.26007 14.1484 3.89307 14.1774 3.52007 14.1774C2.67707 14.1774 1.80607 14.0274 1.00207 13.7424C0.961072 13.7274 0.918072 13.7204 0.876072 13.7204C0.747072 13.7204 0.623072 13.7864 0.553072 13.9024C0.460072 14.0554 0.487072 14.2524 0.618072 14.3754C1.66707 15.3544 3.11207 15.8934 4.69007 15.8934H4.79007L4.79107 15.8914ZM8.06307 12.4414C8.31007 12.4414 8.51007 12.6414 8.51007 12.8884C8.51007 13.1354 8.31007 13.3354 8.06307 13.3354C7.81607 13.3354 7.61607 13.1354 7.61607 12.8884C7.61607 12.6414 7.81607 12.4414 8.06307 12.4414Z" />
<path d="M20.677 26.0252C20.526 26.0382 20.375 26.0512 20.218 26.0512C20.046 26.0512 19.87 26.0432 19.688 26.0282C18.605 25.9782 17.473 25.7742 16.378 25.5782L15.774 25.4702L14.79 25.2792C14.24 25.1722 13.661 25.0732 13.093 24.9692C13.058 24.9722 13.025 24.9832 12.989 24.9832C12.783 24.9832 12.583 24.9312 12.401 24.8432C12.174 24.8042 11.959 24.7572 11.73 24.7202C11.615 24.7712 11.5 24.8222 11.371 24.8642C11.346 24.8952 11.313 24.9182 11.298 24.9572C11.235 25.1252 11.298 25.3142 11.451 25.4102C12.576 26.1162 13.839 26.7082 15.312 27.2192C16.876 27.7552 18.225 28.0472 19.557 28.1372C19.711 28.1462 19.864 28.1502 20.02 28.1502C20.723 28.1502 21.373 28.0582 21.953 27.8772C22.379 27.7302 22.771 27.5552 23.137 27.3622C23.023 27.3082 22.919 27.2682 22.801 27.2102C22.056 26.8482 21.358 26.4422 20.677 26.0252ZM19.713 27.4842C19.466 27.4842 19.266 27.2842 19.266 27.0372C19.266 26.7902 19.466 26.5902 19.713 26.5902C19.96 26.5902 20.16 26.7902 20.16 27.0372C20.16 27.2842 19.96 27.4842 19.713 27.4842Z" />
<path d="M26.8801 23.4931C26.9181 23.4341 26.9401 23.3651 26.9401 23.2901C26.9401 23.0811 26.7741 22.9121 26.5651 22.9121H26.5591C26.4641 22.9121 26.3781 22.9471 26.3111 23.0041C25.8151 23.4271 25.3501 23.7881 24.8981 24.1171L25.0591 24.2271C25.3711 24.4421 25.6921 24.6561 26.0121 24.8551C26.3401 24.4221 26.6401 23.9711 26.8801 23.4931Z" />
<path d="M27.4271 26.5472C26.9961 26.4872 26.6081 26.3132 26.2371 26.1122C26.0901 26.0322 25.9451 25.9492 25.8021 25.8652C25.7891 25.8582 25.7771 25.8502 25.7641 25.8432C25.6361 25.7682 25.5091 25.6852 25.3821 25.6042C25.0871 25.4172 24.7951 25.2222 24.5111 25.0272L24.1391 24.7732L24.0411 24.7042L23.8401 24.5622C23.7671 24.5112 23.6881 24.4582 23.6151 24.4062C23.4711 24.3052 23.3181 24.2022 23.1731 24.1002C22.4111 23.5652 21.6441 23.0242 20.8531 22.4962C20.6831 22.3932 20.5341 22.2982 20.3851 22.2042C19.9681 21.9402 19.5371 21.6662 18.9831 21.4112C18.4201 21.1762 17.8161 21.0552 17.2211 21.0552C16.9711 21.0552 16.7231 21.0762 16.4831 21.1182C16.2531 21.1602 16.0421 21.2362 15.8231 21.2992C15.7731 21.4102 15.7181 21.5202 15.6361 21.6182C14.8561 22.5472 14.0011 23.3142 13.0311 23.9742C13.0121 23.9872 12.9931 23.9992 12.9741 24.0122C12.9791 24.0122 12.9841 24.0152 12.9901 24.0152C13.0271 24.0152 13.0611 23.9962 13.0971 23.9862C13.1261 23.9772 13.1561 23.9782 13.1831 23.9622C14.2511 23.3292 15.4841 22.9592 16.6551 22.9202C17.2461 22.9322 17.7261 23.0392 18.1021 23.2482C18.5071 23.4652 18.9991 23.7962 19.4751 24.1162L19.6911 24.2612L19.7561 24.3032C20.1291 24.5432 20.5161 24.7822 20.9001 25.0212C21.0941 25.1422 21.2811 25.2632 21.4781 25.3812C21.6671 25.4942 21.8701 25.5922 22.0621 25.7012C22.4461 25.9192 22.8251 26.1442 23.2271 26.3392C23.5421 26.4952 23.8321 26.6232 24.1171 26.7432C24.2941 26.8172 24.4671 26.8792 24.6371 26.9422C24.8151 27.0072 24.9961 27.0792 25.1701 27.1322C25.1791 27.1352 25.1881 27.1392 25.1961 27.1412C25.6791 27.2732 26.1831 27.3982 26.7011 27.3982C26.9871 27.3982 27.2461 27.3602 27.4911 27.2822C27.6591 27.2282 27.7681 27.0662 27.7531 26.8902C27.7381 26.7142 27.6031 26.5722 27.4281 26.5482L27.4271 26.5472ZM20.1821 23.7372C19.9351 23.7372 19.7351 23.5372 19.7351 23.2902C19.7351 23.0432 19.9351 22.8432 20.1821 22.8432C20.4291 22.8432 20.6291 23.0432 20.6291 23.2902C20.6291 23.5372 20.4291 23.7372 20.1821 23.7372Z" />
<path d="M18.2681 12.898C16.9581 13.805 15.7771 14.785 14.7951 15.624C14.2641 16.069 13.7391 16.531 13.2191 16.991C12.6611 17.484 12.1081 17.972 11.5511 18.433C10.6141 19.263 9.32507 19.666 8.07007 19.978C6.82907 20.253 5.78007 20.382 4.77907 20.382C4.50707 20.382 4.23307 20.372 3.95707 20.351C3.94707 20.351 3.93807 20.35 3.92807 20.35C3.75907 20.35 3.60907 20.463 3.56407 20.628C3.51607 20.802 3.59907 20.986 3.76107 21.067C4.75607 21.56 5.95107 21.81 7.31107 21.81C7.64807 21.81 8.00107 21.795 8.35907 21.764C8.40707 21.76 8.44807 21.748 8.49507 21.743C8.66107 21.643 8.83607 21.548 9.03307 21.467C9.32807 21.331 9.66507 21.242 10.0261 21.202C10.1111 21.189 10.1841 21.182 10.2491 21.179C10.2691 21.174 10.2891 21.169 10.3091 21.165C10.4101 21.145 10.5911 21.098 10.8591 21.001C11.4951 20.753 12.1461 20.44 12.8361 20.105C12.8551 20.089 12.8791 20.078 12.8981 20.062C13.9571 19.156 14.9921 18.129 16.0661 16.92C17.2021 15.642 18.0711 14.528 18.8001 13.417C18.8991 13.266 18.8771 13.065 18.7481 12.939C18.6751 12.868 18.5801 12.832 18.4841 12.832C18.4091 12.832 18.3341 12.854 18.2691 12.899L18.2681 12.898ZM12.3101 19.538C12.0631 19.538 11.8631 19.338 11.8631 19.091C11.8631 18.844 12.0631 18.644 12.3101 18.644C12.5571 18.644 12.7571 18.844 12.7571 19.091C12.7571 19.338 12.5571 19.538 12.3101 19.538Z" />
<path d="M15.6921 7.93703C15.5121 8.06903 15.3391 8.20603 15.1681 8.34303C14.9001 8.55803 14.6411 8.77903 14.3911 9.00803C14.2911 9.10003 14.1871 9.18703 14.0901 9.28103C13.9631 9.40503 13.9381 9.60003 14.0321 9.75103C14.0431 9.76903 14.0621 9.77703 14.0751 9.79203C14.1471 9.87503 14.2451 9.93003 14.3531 9.93003C14.3951 9.93003 14.4371 9.92303 14.4781 9.90903C15.3221 9.61403 16.1441 9.28803 16.9401 8.97203C17.3141 8.82303 17.6861 8.67603 18.0581 8.53303C18.1901 8.48703 18.3311 8.43503 18.4711 8.38303C18.9001 8.22503 19.3061 8.07503 19.7071 8.00503L21.5851 7.60903C23.8141 7.07403 26.4211 6.37103 28.9361 5.19903C29.0981 5.12303 29.1851 4.94503 29.1451 4.77103C29.1051 4.59903 28.9521 4.47803 28.7771 4.47803C28.7751 4.47803 28.7721 4.47803 28.7701 4.47803C26.0001 4.53203 23.3281 5.05403 21.0801 5.55703L19.2131 6.02903C18.5721 6.22403 17.9451 6.50803 17.2781 6.90103C16.7131 7.22803 16.1891 7.57303 15.6951 7.93603L15.6921 7.93703ZM21.5641 6.04803C21.8111 6.04803 22.0111 6.24803 22.0111 6.49503C22.0111 6.74203 21.8111 6.94203 21.5641 6.94203C21.3171 6.94203 21.1171 6.74203 21.1171 6.49503C21.1171 6.24803 21.3171 6.04803 21.5641 6.04803Z" />
<path d="M11.649 23.6861C11.718 23.6491 11.789 23.6141 11.857 23.5771L11.976 23.5121C12.042 23.4721 12.102 23.4261 12.167 23.3851C13.112 22.7891 13.945 22.0711 14.709 21.1981C14.77 21.1281 14.834 21.0651 14.895 20.9931C15 20.8681 15.001 20.6951 14.918 20.5571C14.911 20.5451 14.914 20.5311 14.906 20.5201C14.833 20.4241 14.721 20.3721 14.606 20.3721C14.552 20.3721 14.498 20.3841 14.447 20.4071C14.088 20.5741 13.734 20.7461 13.382 20.9171C13.356 20.9291 13.333 20.9401 13.307 20.9531C12.586 21.3031 11.9 21.6341 11.213 21.9021C10.938 22.0021 10.696 22.0741 10.502 22.1131C10.419 22.1351 10.378 22.1371 10.333 22.1411C10.285 22.1451 10.234 22.1491 10.175 22.1581C9.88504 22.1911 9.64104 22.2531 9.44204 22.3451C9.22204 22.4361 9.03404 22.5461 8.85804 22.6641C8.45004 22.9371 8.13704 23.2621 7.85704 23.5631L7.70304 23.7261C6.89504 24.6601 6.28904 25.7131 5.75504 26.6421L5.62004 26.8761C5.02404 28.0001 4.50504 28.6541 3.44804 28.9301C3.28204 28.9731 3.16604 29.1231 3.16504 29.2941C3.16504 29.4651 3.27904 29.6161 3.44404 29.6611C3.68004 29.7251 3.92804 29.7571 4.18104 29.7571C4.69504 29.7571 5.20004 29.6241 5.64204 29.3721C6.30304 29.0081 6.76704 28.4571 7.17504 27.9711C7.47404 27.5721 7.73504 27.2031 7.99004 26.8411C8.42504 26.2251 8.83604 25.6431 9.28804 25.1041C9.64704 24.6631 10.022 24.3141 10.293 24.1661C10.34 24.1371 10.36 24.1301 10.403 24.1161C10.409 24.1141 10.474 24.0911 10.481 24.0891L10.549 24.0811C10.652 24.0611 10.762 24.0281 10.87 23.9981C10.923 23.9831 10.979 23.9771 11.028 23.9571C11.194 23.9071 11.348 23.8401 11.497 23.7661C11.549 23.7401 11.598 23.7131 11.649 23.6861ZM8.23704 25.2101C7.99004 25.2101 7.79004 25.0101 7.79004 24.7631C7.79004 24.5161 7.99004 24.3161 8.23704 24.3161C8.48404 24.3161 8.68404 24.5161 8.68404 24.7631C8.68404 25.0101 8.48404 25.2101 8.23704 25.2101Z" />
<path d="M31.122 13.4941C31.122 13.4941 31.117 13.4941 31.115 13.4941C28.346 13.5481 25.673 14.0701 23.425 14.5731L21.558 15.0451C20.917 15.2401 20.29 15.5241 19.623 15.9171C18.402 16.6241 17.359 17.4031 16.438 18.2971C16.311 18.4211 16.286 18.6161 16.38 18.7671C16.45 18.8811 16.574 18.9471 16.702 18.9471C16.744 18.9471 16.786 18.9401 16.827 18.9261C17.671 18.6311 18.494 18.3051 19.29 17.9891C19.664 17.8411 20.036 17.6931 20.407 17.5501C20.539 17.5041 20.68 17.4521 20.82 17.4001C21.249 17.2421 21.655 17.0921 22.055 17.0221L23.933 16.6251C26.162 16.0901 28.769 15.3871 31.284 14.2151C31.446 14.1401 31.533 13.9611 31.493 13.7871C31.453 13.6151 31.3 13.4941 31.125 13.4941H31.122ZM23.637 16.0001C23.39 16.0001 23.19 15.8001 23.19 15.5531C23.19 15.3061 23.39 15.1061 23.637 15.1061C23.884 15.1061 24.084 15.3061 24.084 15.5531C24.084 15.8001 23.884 16.0001 23.637 16.0001Z" />
</svg>
