<svg width="32" height="32" viewBox="0 0 32 32"  xmlns="http://www.w3.org/2000/svg">
<path d="M21.805 23.5898C21.805 25.8498 19.475 27.6798 16.585 27.6798C13.695 27.6798 11.365 25.8498 11.365 23.5898C11.365 22.3598 12.055 21.2698 13.145 20.5298C13.975 21.2898 15.075 21.6798 16.315 21.6798C17.575 21.6798 18.865 21.2798 20.045 20.5398C21.125 21.2798 21.805 22.3698 21.805 23.5898Z" />
<path d="M30.155 7.08015C29.735 6.18015 28.855 5.55015 27.655 5.32015C26.415 5.07015 24.995 5.27015 23.665 5.89015C21.365 6.96015 19.905 9.06015 20.175 10.8802C20.215 11.1502 20.025 11.4002 19.755 11.4402C19.485 11.4902 19.225 11.3002 19.185 11.0302C19.155 10.8202 19.135 10.6002 19.145 10.3802C17.725 10.4502 16.155 11.1502 14.865 12.4202C14.845 12.4302 14.825 12.4502 14.805 12.4702C14.695 12.5802 14.585 12.6902 14.495 12.8102C14.365 12.9502 14.235 13.1002 14.135 13.2502C13.075 14.6102 12.585 16.1802 12.735 17.5302C12.745 17.7202 12.775 17.9102 12.825 18.0902C12.865 18.2602 12.915 18.4202 12.985 18.5802C13.075 18.8202 13.195 19.0402 13.345 19.2502C13.445 19.3902 13.555 19.5302 13.675 19.6502C13.685 19.6602 13.695 19.6702 13.705 19.6802C13.825 19.8002 13.945 19.9102 14.085 20.0002C14.705 20.4602 15.485 20.6802 16.315 20.6802C17.185 20.6802 18.115 20.4402 19.015 19.9701C19.195 19.8902 19.375 19.7902 19.545 19.6702C19.705 19.5802 19.865 19.4702 20.025 19.3502C20.335 19.1202 20.635 18.8702 20.915 18.5802C22.165 17.3302 22.875 15.8102 22.995 14.4102C22.425 14.3302 21.895 14.1702 21.405 13.9302C21.155 13.8102 21.055 13.5102 21.175 13.2602C21.295 13.0202 21.595 12.9202 21.845 13.0402C23.215 13.7102 25.155 13.6202 26.895 12.8102C28.225 12.1902 29.295 11.2402 29.905 10.1202C30.485 9.06015 30.575 7.97015 30.155 7.08015ZM17.465 18.5602C17.325 18.6402 17.165 18.6802 17.005 18.6802C16.795 18.6802 16.605 18.6102 16.435 18.5102C16.155 18.3202 15.965 18.0002 15.965 17.6502C15.965 17.0901 16.445 16.6102 17.005 16.6102C17.555 16.6102 18.035 17.0901 18.035 17.6502C18.035 18.0402 17.795 18.3902 17.465 18.5602ZM17.855 14.7102C17.575 14.7102 17.315 14.4502 17.315 14.1802C17.315 13.9002 17.575 13.6402 17.855 13.6402C18.125 13.6402 18.395 13.9002 18.395 14.1802C18.395 14.4502 18.125 14.7102 17.855 14.7102ZM26.695 9.18015C26.135 9.18015 25.655 8.69015 25.655 8.14015C25.655 7.59015 26.135 7.10015 26.695 7.10015C27.245 7.10015 27.725 7.59015 27.725 8.14015C27.725 8.69015 27.245 9.18015 26.695 9.18015Z" />
<path d="M6.55401 28.9C6.20401 28.97 5.85401 29 5.52401 29C3.75401 29 2.28401 28.11 2.02401 26.75C1.71401 25.15 3.23401 23.5 5.42401 23.08C5.77401 23.01 6.12401 22.98 6.45401 22.98C8.22401 22.98 9.69401 23.87 9.95401 25.23C10.264 26.83 8.74401 28.48 6.55401 28.9Z" />
<path d="M17.335 6.39C17.025 7 16.335 7.33 15.535 7.33C15.045 7.33 14.515 7.21 14.005 6.95C12.655 6.28 11.975 4.93 12.465 3.94C12.775 3.33 13.465 3 14.275 3C14.765 3 15.295 3.12 15.805 3.38C17.145 4.06 17.835 5.41 17.335 6.39Z" />
<path d="M11.775 16.1502C11.985 14.7902 12.635 13.4302 13.635 12.2802C12.655 10.8802 10.745 9.89017 8.49496 9.76017C8.40496 10.6702 7.97496 11.5102 7.28496 12.1002C7.07496 12.2802 6.76496 12.2502 6.58496 12.0402C6.52496 11.9702 6.48496 11.8902 6.48496 11.8002C6.43496 11.6402 6.49496 11.4602 6.63496 11.3402C7.10496 10.9402 7.40496 10.3802 7.48496 9.75017C7.50496 9.59017 7.51496 9.42017 7.49496 9.26017C7.50496 9.18017 7.49496 9.10017 7.48496 9.03017C7.47496 8.94017 7.45496 8.85017 7.43496 8.76017C7.15496 7.51017 6.03496 6.65017 4.82496 6.80017C3.53496 6.97017 2.62496 8.24017 2.80496 9.63017C2.83496 9.85017 2.88496 10.0602 2.96496 10.2602C3.02496 10.4202 3.09496 10.5602 3.18496 10.7002C3.26496 10.8402 3.36496 10.9702 3.47496 11.0902C3.72496 11.3702 4.02496 11.5802 4.37496 11.7202C4.53496 11.7902 4.64496 11.9402 4.67496 12.1002C4.69496 12.1902 4.68496 12.2802 4.65496 12.3702C4.57496 12.5602 4.38496 12.6802 4.18496 12.6802C4.12496 12.6802 4.06496 12.6702 4.00496 12.6502C3.50496 12.4502 3.07496 12.1402 2.72496 11.7502C2.00496 12.5102 1.58496 13.4302 1.58496 14.4202C1.58496 17.0102 4.44496 19.1102 7.96496 19.1102C9.41496 19.1102 10.755 18.7502 11.815 18.1602C11.685 17.5402 11.665 16.8602 11.775 16.1502ZM5.12496 15.3702C4.85496 15.3702 4.59496 15.1102 4.59496 14.8302C4.59496 14.5602 4.85496 14.3002 5.12496 14.3002C5.40496 14.3002 5.66496 14.5602 5.66496 14.8302C5.66496 15.1102 5.40496 15.3702 5.12496 15.3702Z" />
</svg>
