<svg width="32" height="32" viewBox="0 0 32 32"  xmlns="http://www.w3.org/2000/svg">
<path d="M16.08 6.48C16.08 7.71 15.08 8.71 13.84 8.71H10.53C9.30005 8.71 8.30005 7.71 8.30005 6.48C8.30005 5.25 9.30005 4.25 10.53 4.25H13.84C15.08 4.25 16.08 5.25 16.08 6.48Z" />
<path d="M24.52 18.1099C24.41 18.4699 24.14 18.8999 23.62 19.4199L21.28 21.7599C20.84 22.1999 20.27 22.4199 19.7 22.4199C19.13 22.4199 18.56 22.1999 18.12 21.7599C17.25 20.8899 17.25 19.4799 18.12 18.6099L20.46 16.2599C20.98 15.7399 21.41 15.4599 21.78 15.3599C21.99 16.0399 22.51 16.5699 22.91 16.9699C23.36 17.4199 23.85 17.9099 24.52 18.1099Z" />
<path d="M29.1201 13.9199L26.7801 16.2599C26.2601 16.7799 25.8301 17.0599 25.4601 17.1599C25.3501 17.1899 25.2401 17.1999 25.1401 17.1999C25.0701 17.1999 25.0001 17.1899 24.9401 17.1799C24.5201 17.1099 24.1701 16.7999 23.8001 16.4399L23.6201 16.2599C23.5601 16.1999 23.5001 16.1399 23.4401 16.0799C23.0801 15.7099 22.7701 15.3499 22.7001 14.9299C22.6701 14.7699 22.6801 14.5999 22.7201 14.4099C22.8301 14.0499 23.1001 13.6199 23.6201 13.0999L25.9601 10.7599C26.4001 10.3299 26.9701 10.1099 27.5401 10.1099C28.1101 10.1099 28.6801 10.3299 29.1201 10.7599C29.9901 11.6299 29.9901 13.0499 29.1201 13.9199Z" />
<path d="M25.03 27.3798C24.89 27.7298 24.57 28.1198 23.99 28.5798L21.38 30.6298C20.98 30.9498 20.49 31.0998 20.01 31.0998C19.35 31.0998 18.69 30.8098 18.25 30.2498C17.49 29.2798 17.66 27.8698 18.63 27.1098L21.24 25.0698C21.82 24.6098 22.28 24.3898 22.66 24.3398C22.78 25.0398 23.24 25.6198 23.59 26.0698C23.96 26.5398 24.4 27.0998 25.03 27.3798Z" />
<path d="M30.12 23.7898L27.51 25.8298C26.92 26.2898 26.47 26.5098 26.09 26.5598C26.03 26.5698 25.97 26.5698 25.91 26.5698C25.79 26.5698 25.67 26.5498 25.57 26.5198C25.22 26.4098 24.94 26.1498 24.67 25.8198C24.57 25.6998 24.48 25.5798 24.38 25.4498C24.28 25.3198 24.18 25.1998 24.09 25.0798C23.84 24.7298 23.65 24.3998 23.63 24.0398C23.61 23.8698 23.64 23.6998 23.71 23.5198C23.85 23.1598 24.17 22.7698 24.76 22.3198L27.37 20.2698C27.77 19.9498 28.26 19.7998 28.74 19.7998C29.4 19.7998 30.06 20.0898 30.5 20.6498C31.26 21.6198 31.09 23.0298 30.12 23.7898Z" />
<path d="M8.86002 28.7801C8.57002 29.0301 8.10002 29.2401 7.37002 29.3801L4.12002 30.0001C3.97002 30.0201 3.83002 30.0401 3.70002 30.0401C2.65002 30.0401 1.71002 29.2901 1.51002 28.2201C1.28002 27.0101 2.07002 25.8401 3.28002 25.6101L6.54002 24.9901C6.89002 24.9301 7.19002 24.8901 7.44002 24.8901C7.72002 24.8901 7.94002 24.9201 8.12002 24.9901C7.92002 25.6501 8.05002 26.3401 8.17002 26.9501C8.27002 27.4901 8.41002 28.2201 8.86002 28.7801Z" />
<path d="M15.01 27.93L11.76 28.54C11.41 28.61 11.11 28.64 10.85 28.64C10.58 28.64 10.36 28.61 10.17 28.55V28.54C9.99003 28.48 9.84003 28.39 9.73003 28.28C9.44003 28.01 9.32003 27.6 9.22003 27.14C9.20003 27.02 9.17003 26.9 9.15003 26.77C9.13003 26.67 9.11003 26.57 9.09003 26.47C9.01003 25.98 8.97003 25.53 9.14003 25.16C9.20003 25.01 9.30003 24.87 9.45003 24.75C9.74003 24.5 10.2 24.3 10.92 24.16L14.18 23.54C14.32 23.51 14.46 23.5 14.6 23.5C15.65 23.5 16.59 24.25 16.79 25.32C17.02 26.53 16.22 27.7 15.01 27.93Z" />
<path d="M31 3.1299C31 4.3599 30 5.3599 28.77 5.3599H25.45C24.22 5.3599 23.22 4.3599 23.22 3.1299C23.22 1.8999 24.22 0.899902 25.45 0.899902H28.77C30 0.899902 31 1.8999 31 3.1299Z" />
<path d="M6.03003 7.5599C5.81003 7.4899 5.55003 7.4499 5.27003 7.4499C4.87003 7.4499 4.47003 7.5199 4.08003 7.5999C3.53003 7.6999 2.81003 7.8399 2.25003 8.2799C1.99003 7.9899 1.79003 7.5299 1.66003 6.7999L1.04003 3.5499C0.810031 2.3399 1.60003 1.1699 2.82003 0.939902C2.96003 0.909902 3.10003 0.899902 3.24003 0.899902C4.29003 0.899902 5.22003 1.6399 5.43003 2.7099L6.04003 5.9699C6.18003 6.6999 6.16003 7.1999 6.03003 7.5599Z" />
<path d="M5.71999 16.2197C5.57999 16.2497 5.43999 16.2597 5.29999 16.2597C4.24999 16.2597 3.30999 15.5197 3.10999 14.4497L2.48999 11.1897C2.34999 10.4597 2.36999 9.94971 2.49999 9.59971C2.55999 9.40971 2.65999 9.25971 2.77999 9.14971C3.04999 8.86971 3.44999 8.74971 3.89999 8.64971C4.01999 8.62971 4.13999 8.59971 4.26999 8.57971C4.39999 8.55971 4.51999 8.52971 4.63999 8.50971C4.85999 8.46971 5.06999 8.44971 5.26999 8.44971C5.48999 8.44971 5.68999 8.47971 5.86999 8.56971C6.01999 8.62971 6.15999 8.72971 6.28999 8.87971C6.53999 9.16971 6.73999 9.62971 6.87999 10.3597L7.49999 13.6097C7.72999 14.8197 6.92999 15.9897 5.71999 16.2197Z" />
<path d="M12.19 20.2C12.19 21.43 11.19 22.43 9.95003 22.43H6.64003C5.41003 22.43 4.41003 21.43 4.41003 20.2C4.41003 18.96 5.41003 17.96 6.64003 17.96H9.95003C10.36 17.96 10.74 18.07 11.07 18.26C11.08 18.32 11.09 18.38 11.11 18.44C11.3 19.07 11.67 19.61 12.18 20.01C12.19 20.07 12.19 20.14 12.19 20.2Z" />
<path d="M18.2201 14.1298C18.2301 14.5098 18.0901 14.9898 17.7401 15.6398L16.1701 18.5598C15.7701 19.3098 15.0001 19.7398 14.2001 19.7398C13.8501 19.7398 13.4901 19.6498 13.1501 19.4698C13.1301 19.4598 13.1101 19.4498 13.0901 19.4298C12.4301 19.0598 12.0301 18.3898 11.9801 17.6798C11.9501 17.2698 12.0301 16.8398 12.2401 16.4498L13.8101 13.5298C14.1601 12.8698 14.4901 12.4898 14.8201 12.2998C15.2201 12.8898 15.8601 13.2398 16.3601 13.4998C16.9301 13.8098 17.5201 14.1298 18.2201 14.1298Z" />
<path d="M21.4201 8.79L19.8501 11.71C19.5001 12.37 19.1701 12.75 18.8401 12.94C18.6801 13.05 18.5201 13.1 18.3601 13.12C18.3101 13.13 18.2701 13.13 18.2201 13.13C17.8601 13.13 17.4901 12.96 17.1001 12.77C17.0101 12.72 16.9201 12.67 16.8301 12.62C16.7401 12.57 16.6501 12.52 16.5601 12.47C16.1201 12.23 15.7501 11.99 15.5601 11.62C15.4901 11.47 15.4501 11.31 15.4401 11.11C15.4301 10.73 15.5701 10.25 15.9201 9.6L17.4901 6.68C17.8901 5.93 18.6601 5.5 19.4601 5.5C19.8101 5.5 20.1701 5.59 20.5101 5.77C21.6001 6.35 22.0001 7.7 21.4201 8.79Z" />
</svg>
