<svg width="32" height="32" viewBox="0 0 32 32"  xmlns="http://www.w3.org/2000/svg">
<g clip-path="url(#clip0_2719_1075)">
<path d="M9.10007 25.5698C9.03007 25.3798 8.79007 24.6198 8.79007 23.6198C8.79007 22.4198 9.06007 21.3098 9.30007 20.5598C8.68007 20.2898 7.88007 19.8898 7.30007 19.5498C7.24007 19.9098 7.14007 20.2898 7.01007 20.6998C6.90007 21.0798 6.98007 21.3698 7.02007 21.4998C7.44007 22.6798 7.70007 24.6798 7.85007 25.4498C8.17007 25.4498 8.42007 25.8498 8.42007 26.3498H9.38007C9.38007 26.3498 9.19007 25.8298 9.10007 25.5698ZM20.1701 23.2998C20.1701 21.9498 20.5101 20.6798 21.1201 19.5798C20.7301 19.7998 20.3901 19.9698 20.1501 20.0698C19.9601 20.3198 19.8201 20.7098 19.6601 21.4698L19.6201 21.6298C19.5101 22.0898 19.2101 23.3098 19.3201 25.4198V25.4598C19.6101 25.5098 19.8201 25.8898 19.8201 26.3498H20.7801L20.4501 25.3898C20.2701 24.7298 20.1701 24.0198 20.1701 23.2998Z" />
<path d="M1.36006 14.5999C1.30006 15.0599 1.32006 15.4299 1.32006 15.4299C1.32006 15.7499 1.17006 15.8899 1.03006 15.8899C0.950064 15.8899 0.880064 15.8499 0.840064 15.7699C-0.0499363 13.4299 1.02006 11.8399 1.72006 11.1699C1.47006 11.9999 1.34006 12.9499 1.34006 13.9499C1.34006 14.1699 1.35006 14.3899 1.36006 14.5999Z" />
<path d="M26.35 7.5099C26.15 7.2899 25.93 7.0899 25.7 6.8999C25.53 6.7699 25.35 6.6399 25.17 6.5299C25.21 6.2899 25.2 6.0499 25.22 5.7799C25.22 5.6899 25.29 5.6499 25.39 5.6499C25.73 5.6499 26.49 6.2099 26.35 7.5099Z" />
<path d="M31.45 14.8001L31 15.7001C30.91 15.8701 30.74 15.9801 30.55 15.9801C30.5 15.9801 30.45 15.9701 30.39 15.9501C29.62 15.6901 28.78 15.5501 27.92 15.5501C26.98 15.5501 26.08 15.7101 25.24 16.0201C24.85 16.3501 24.41 16.6301 23.94 16.8301C23.77 16.9101 23.58 16.9801 23.4 17.0301C23.37 17.0401 23.35 17.0501 23.32 17.0601C23.28 17.0701 23.25 17.0901 23.21 17.1201C22.45 17.7101 20.25 18.9701 19.68 19.1801C19.61 19.2101 19.55 19.2501 19.49 19.3101C19.06 19.7501 18.87 20.3601 18.68 21.2601L18.65 21.3901C18.53 21.8901 18.21 23.2201 18.32 25.4701C18.33 25.6201 18.39 25.7501 18.5 25.8301C18.58 26.0601 18.71 26.3501 18.71 26.3501H17.75C17.75 25.8601 17.51 25.4601 17.19 25.4501C17.23 24.4801 17.25 23.1501 16.92 21.7901C16.86 21.5601 16.8 21.3301 16.72 21.1001C16.68 21.0001 16.64 20.8901 16.6 20.7601C16.6 20.7501 16.59 20.7301 16.59 20.7101C16.29 19.8001 15.86 18.1501 15.86 16.9601C15.86 16.6901 15.64 16.4601 15.36 16.4601C15.08 16.4601 14.86 16.6901 14.86 16.9601C14.86 18.1101 15.2 19.5401 15.48 20.5101C15.25 20.5201 15.03 20.5301 14.79 20.5301C12.98 20.5301 11.29 20.2301 9.82 19.6901C9.76 19.6701 9.70001 19.6501 9.64001 19.6201C8.86001 19.2701 7.83 18.7401 7.38 18.4501C7.33 18.4201 7.29001 18.3901 7.26 18.3701C7.25 18.3701 7.25 18.3601 7.24 18.3601V18.3501C7.93 17.6001 8.34 16.4301 8.49 15.4901C8.54 15.2201 8.35 14.9601 8.08 14.9201C7.81 14.8701 7.55 15.0601 7.5 15.3301C7.31 16.5201 6.76 17.6001 6.18 17.9601C6.16 17.9801 6.14 17.9901 6.12 18.0001C5.86 18.1401 5.56 18.3401 5.46 18.4301C4.88 18.9201 4.35 19.4601 3.96 20.1001C3.75 20.4401 3.55 20.8001 3.36 21.1701C3.18 21.5401 3.02 21.9001 2.88001 22.2501L2.87 22.2601C2.87 22.2601 2.87 22.2701 2.86 22.2801C2.62 22.9001 2.09 24.6801 2.37 25.5701C2.46 25.8301 2.66 26.3501 2.66 26.3501H1.7C1.7 25.8501 1.44 25.4501 1.13 25.4501V24.4901C1.13 23.1501 1.7 20.4801 2.3 19.0201C2.7 18.0501 2.77 17.0001 2.55 15.9801C2.45 15.5501 2.39 15.0901 2.36 14.6001C2.35 14.3901 2.34 14.1701 2.34 13.9501C2.34 13.7201 2.35 13.5001 2.37 13.2801C2.39 12.8401 2.45 12.4201 2.53 12.0301C2.61 11.6201 2.72 11.2501 2.84 10.9101C3.07 10.3101 3.37 9.83014 3.71 9.52014C3.99 9.27014 5.3 8.69014 6.02 8.19014C6.94 7.57014 8.12001 6.85014 9.06001 6.85014C9.57001 6.85014 10.05 6.95014 10.49 7.13014C11.05 7.36014 11.66 7.49014 12.26 7.49014C12.32 7.49014 12.37 7.49014 12.43 7.48014C13.54 6.64014 14.92 6.14014 16.43 6.14014C17.11 6.14014 17.77 6.24014 18.38 6.43014C18.92 6.60014 19.48 6.66014 20.05 6.66014C20.44 6.66014 20.84 6.63014 21.23 6.59014C21.41 6.57014 21.6 6.56014 21.79 6.56014C21.94 6.56014 22.09 6.57014 22.23 6.58014C21.87 7.71014 21.95 9.40014 22.29 9.98014C22.38 10.1301 22.55 10.2201 22.72 10.2201C22.8 10.2201 22.89 10.2001 22.97 10.1501C23.21 10.0101 23.29 9.71014 23.15 9.47014C23.14 9.45014 23.13 9.44014 23.13 9.42014C22.9 8.92014 22.97 7.39014 23.18 6.74014C23.22 6.61014 23.28 6.51014 23.33 6.47014C23.39 6.48014 23.61 6.62014 23.77 6.94014C23.79 6.97014 23.81 7.00014 23.82 7.03014C23.9 7.20014 24.14 7.82014 23.77 8.34014C23.65 8.52014 23.66 8.76014 23.79 8.93014C23.82 8.97014 23.85 9.01014 23.9 9.04014C24.13 9.19014 24.44 9.14014 24.6 8.91014C24.75 8.68014 24.86 8.44014 24.92 8.20014C24.96 8.01014 24.98 7.81014 24.98 7.62014V7.58014L25.25 7.83014L25.3 7.87014L25.32 7.89014L25.5 8.06014C25.79 8.36014 26.04 8.69014 26.22 9.06014C26.3 9.19014 26.36 9.32014 26.41 9.46014C26.56 9.82014 26.75 10.1901 26.97 10.5601C27.49 11.3801 28.21 12.1801 29.1 12.8801C29.78 13.4101 30.49 13.8301 31.2 14.1301C31.46 14.2401 31.57 14.5501 31.45 14.8001Z" />
</g>
<defs>
<clipPath id="clip0_2719_1075">
<rect width="32" height="32" fill="white"/>
</clipPath>
</defs>
</svg>
