<svg width="28" height="24" viewBox="0 0 28 24" fill="none" xmlns="http://www.w3.org/2000/svg">
<rect x="7" y="4" width="14" height="16" fill="var(--tertiary-contrast-3, #1660A5)"/>
<path d="M20 5C20 4.72386 20.2239 4.5 20.5 4.5H22C23.933 4.5 25.5 6.067 25.5 8V9.97247C25.5 10.8081 26.1713 11.4886 27.0068 11.5C27.2816 11.5038 27.5019 11.7286 27.5 12.0034C27.4981 12.2782 27.2748 12.5 27 12.5C26.1716 12.5 25.5 13.1716 25.5 14V15.5C25.5 17.7091 23.7091 19.5 21.5 19.5H20.5C20.2239 19.5 20 19.2761 20 19V5Z" fill="var(--tertiary-contrast-3, #1660A5)" stroke="var(--tertiary-contrast-3, #1660A5)" stroke-linejoin="round"/>
<path fill-rule="evenodd" clip-rule="evenodd" d="M21 18H20V17C21.1046 17 22 16.1046 22 15V14C22 13.2281 22.2915 12.5244 22.7704 11.9928C22.2911 11.4575 22 10.7506 22 9.97643V8.57855C22 7.70674 21.2933 7 20.4215 7H20V6H20.4215H21.4215C22.8455 6 24 7.15446 24 8.57855V9.97643C24 10.516 24.2113 11.0067 24.556 11.3697C24.9195 11.7525 25.4312 11.9933 26 12C25.431 12 24.9174 12.2376 24.5532 12.6191C24.2105 12.9781 24 13.4645 24 14V15C24 16.6569 22.6569 18 21 18Z" fill="var(--on-tertiary, #FFFFFF)"/>
<path d="M8 5C8 4.72386 7.77614 4.5 7.5 4.5H6C4.067 4.5 2.5 6.067 2.5 8V9.97247C2.5 10.8081 1.82868 11.4886 0.993165 11.5C0.718382 11.5038 0.498133 11.7286 0.500012 12.0034C0.50189 12.2782 0.725191 12.5 1 12.5C1.82843 12.5 2.5 13.1716 2.5 14V15.5C2.5 17.7091 4.29086 19.5 6.5 19.5H7.5C7.77614 19.5 8 19.2761 8 19V5Z" fill="var(--tertiary-contrast-3, #1660A5)" stroke="var(--tertiary-contrast-3, #1660A5)" stroke-linejoin="round"/>
<path fill-rule="evenodd" clip-rule="evenodd" d="M7 18H8V17C6.89543 17 6 16.1046 6 15V14C6 13.2281 5.70851 12.5244 5.2296 11.9928C5.70886 11.4575 6 10.7506 6 9.97643V8.57855C6 7.70674 6.70674 7 7.57855 7H8V6H7.57855H6.57855C5.15446 6 4 7.15446 4 8.57855V9.97643C4 10.516 3.7887 11.0067 3.44397 11.3697C3.08054 11.7525 2.56881 11.9933 2 12C2.56904 12 3.08258 12.2376 3.44678 12.6191C3.78952 12.9781 4 13.4645 4 14V15C4 16.6569 5.34315 18 7 18Z" fill="var(--on-tertiary, #FFFFFF)"/>
<path d="M8 6.5H20" stroke="var(--on-tertiary, #FFFFFF)" stroke-dasharray="1 10"/>
<path d="M8 17.5H20" stroke="var(--on-tertiary, #FFFFFF)" stroke-dasharray="1 10"/>
</svg>
