<svg width="15" height="14" viewBox="0 0 15 14" xmlns="http://www.w3.org/2000/svg">
<path fill-rule="evenodd" clip-rule="evenodd" d="M1.21289 7C1.21289 10.3137 3.89918 13 7.21289 13C10.5266 13 13.2129 10.3137 13.2129 7C13.2129 3.68629 10.5266 1 7.21289 1C3.89918 1 1.21289 3.68629 1.21289 7ZM7.21289 0C3.3469 0 0.212891 3.13401 0.212891 7C0.212891 10.866 3.3469 14 7.21289 14C11.0789 14 14.2129 10.866 14.2129 7C14.2129 3.13401 11.0789 0 7.21289 0Z"/>
<path fill-rule="evenodd" clip-rule="evenodd" d="M10.2129 7.6001H4.21289V6.4001H10.2129V7.6001Z"/>
</svg>
