<svg width="24" height="24" viewBox="0 0 24 24" fill="none" xmlns="http://www.w3.org/2000/svg">
<mask id="mask0_542_66166" style="mask-type:alpha" maskUnits="userSpaceOnUse" x="0" y="0" width="24" height="24">
<rect width="24" height="24" fill="#D9D9D9"/>
</mask>
<g mask="url(#mask0_542_66166)">
<path d="M3 9.91421L5.91421 7L18.0858 7L21 9.91421V14.1301L18.5401 17H5.91421L3 14.0858L3 9.91421Z" fill="#00315C" stroke="white" stroke-width="2"/>
<path d="M5.5 5H5.08579L4.79289 5.29289L1.29289 8.79289L1 9.08579V9.5V14.5V14.9142L1.29289 15.2071L4.79289 18.7071L5.08579 19H5.5H19H19.4599L19.7593 18.6508L22.7593 15.1508L23 14.8699V14.5V9.5V9.08579L22.7071 8.79289L19.2071 5.29289L18.9142 5H18.5H5.5Z" stroke="#00315C" stroke-width="2"/>
</g>
</svg>
