<svg width="21" height="20" viewBox="0 0 21 20" fill="none" xmlns="http://www.w3.org/2000/svg">
<mask id="mask0_3358_43270" style="mask-type:alpha" maskUnits="userSpaceOnUse" x="0" y="0" width="21" height="20">
<rect x="0.583374" width="20" height="20" fill="#D9D9D9"/>
</mask>
<g mask="url(#mask0_3358_43270)">
<path d="M7.25008 15H13.9167V13.3333H7.25008V15ZM7.25008 11.6666H13.9167V9.99996H7.25008V11.6666ZM5.58341 18.3333C5.12508 18.3333 4.73286 18.1702 4.40675 17.8441C4.08008 17.5175 3.91675 17.125 3.91675 16.6666V3.33329C3.91675 2.87496 4.08008 2.48246 4.40675 2.15579C4.73286 1.82968 5.12508 1.66663 5.58341 1.66663H12.2501L17.2501 6.66663V16.6666C17.2501 17.125 17.087 17.5175 16.7609 17.8441C16.4342 18.1702 16.0417 18.3333 15.5834 18.3333H5.58341ZM11.4167 7.49996H15.5834L11.4167 3.33329V7.49996Z" fill="#006782"/>
</g>
</svg>
