<svg id="Layer_1" data-name="Layer 1" xmlns="http://www.w3.org/2000/svg" xmlns:xlink="http://www.w3.org/1999/xlink" viewBox="0 0 105.315 23.306"><defs><style>.cls-1{fill:#0052af;}.cls-2{fill:url(#linear-gradient);}.cls-3{fill:url(#linear-gradient-2);}.cls-4{fill:url(#linear-gradient-3);}.cls-5{fill:url(#linear-gradient-4);}</style><linearGradient id="linear-gradient" x1="90.898" y1="92.585" x2="137.231" y2="102.918" gradientUnits="userSpaceOnUse"><stop offset="0" stop-color="#9cdaff"/><stop offset="1" stop-color="#0052af"/></linearGradient><linearGradient id="linear-gradient-2" x1="46.739" y1="95.182" x2="90.906" y2="106.682" xlink:href="#linear-gradient"/><linearGradient id="linear-gradient-3" x1="70.725" y1="83.967" x2="113.175" y2="113.283" gradientUnits="userSpaceOnUse"><stop offset="0" stop-color="#9cdaff"/><stop offset="0.086" stop-color="#87c8f4"/><stop offset="0.304" stop-color="#579edc"/><stop offset="0.511" stop-color="#317dc8"/><stop offset="0.702" stop-color="#1665ba"/><stop offset="0.871" stop-color="#0657b2"/><stop offset="1" stop-color="#0052af"/></linearGradient><linearGradient id="linear-gradient-4" x1="92.112" y1="99.65" x2="50.025" y2="98.324" gradientUnits="userSpaceOnUse"><stop offset="0" stop-color="#0052af"/><stop offset="1" stop-color="#9cdaff"/></linearGradient></defs><title>transformation_arrow</title><g id="ARROW"><polygon class="cls-1" points="90.315 0 105.315 11.653 90.315 23.306 90.315 0"/><path class="cls-2" d="M139.149,105.268h-29.1a27.526,27.526,0,0,1-17.206-5.574,27.5,27.5,0,0,1,17.206-5.574h29.1Z" transform="translate(-47.849 -88.041)"/><path class="cls-3" d="M92.846,99.694a27.485,27.485,0,0,0-17.2-5.574h-27.3v11.149h27.3A27.514,27.514,0,0,0,92.846,99.694Z" transform="translate(-47.849 -88.041)"/><path class="cls-4" d="M139.149,105.769h-29.1A27.9,27.9,0,0,1,92.56,100.1a26.982,26.982,0,0,0-16.915-5.48h-27.8v-1h27.8a27.908,27.908,0,0,1,17.5,5.668,26.972,26.972,0,0,0,16.91,5.481h29.1Z" transform="translate(-47.849 -88.041)"/><path class="cls-5" d="M139.149,94.62h-29.1a26.982,26.982,0,0,0-16.915,5.48,27.9,27.9,0,0,1-17.493,5.668h-27.8V93.62h1v11.149h26.8a26.972,26.972,0,0,0,16.91-5.481,27.908,27.908,0,0,1,17.5-5.668h29.1Z" transform="translate(-47.849 -88.041)"/></g></svg>