<svg width="28" height="22" viewBox="0 0 28 22" xmlns="http://www.w3.org/2000/svg">
  <path
    d="M26.095 4.4108C26.017 4.4178 25.864 4.3618 25.685 4.3258C25.506 4.2848 25.308 4.2508 25.103 4.2258C24.69 4.1728 24.255 4.1558 23.828 4.1678C22.972 4.1988 22.144 4.3608 21.476 4.6458C20.802 4.9338 20.319 5.3218 19.983 5.7898C19.896 5.9058 19.819 6.0308 19.746 6.1618L19.638 6.3728L19.492 6.6698C19.298 7.0788 19.11 7.5218 18.925 7.9778C18.177 9.8158 17.461 11.8428 16.484 13.8548C16.246 14.3608 15.979 14.8658 15.696 15.3688C15.416 15.8738 15.106 16.3798 14.769 16.8778C14.426 17.3768 14.059 17.8778 13.638 18.3618C13.215 18.8458 12.739 19.3208 12.194 19.7628C11.648 20.2008 11.021 20.6068 10.304 20.9068C9.54599 21.2198 8.90699 21.3598 8.25099 21.4568C7.59799 21.5498 6.94799 21.5808 6.28999 21.5558C5.63299 21.5278 4.96499 21.4428 4.28999 21.2598C3.61599 21.0738 2.92699 20.8008 2.27899 20.3578C1.62999 19.9278 1.04399 19.2988 0.663991 18.5808C0.571991 18.3998 0.484991 18.2188 0.417991 18.0328L0.364991 17.8948L0.329991 17.7738L0.260991 17.5308C0.217991 17.3678 0.166991 17.2118 0.133991 17.0428C0.103991 16.8718 0.0759913 16.7018 0.0499913 16.5318C-0.0300087 15.8438 -0.0320087 15.1178 0.154991 14.4138C0.327991 13.7128 0.651991 13.0558 1.07599 12.5078C1.49999 11.9578 2.01299 11.5108 2.58099 11.1748C2.86699 11.0088 3.16199 10.8618 3.47799 10.7478C3.77499 10.6308 4.17799 10.5428 4.39699 10.5108C4.91399 10.4208 5.42299 10.3268 5.92299 10.2188C6.92299 10.0078 7.89699 9.7318 8.78099 9.2608C9.66599 8.7968 10.441 8.0918 11.014 7.1838C10.866 7.6968 10.645 8.1958 10.35 8.6658C10.052 9.1328 9.67899 9.5598 9.26199 9.9378C8.84599 10.3208 8.37699 10.6398 7.89699 10.9268C7.41499 11.2138 6.91799 11.4658 6.41699 11.6968C5.91499 11.9258 5.40899 12.1248 4.90899 12.3238L4.72099 12.3978L4.67399 12.4158C4.65999 12.4218 4.65199 12.4268 4.64099 12.4328L4.57899 12.4648C4.53799 12.4868 4.49699 12.5028 4.45599 12.5288L4.33199 12.6068C4.16599 12.7098 4.00799 12.8398 3.85999 12.9738C3.56699 13.2498 3.32599 13.5678 3.16699 13.8998C3.00599 14.2318 2.92899 14.5728 2.91099 14.9108C2.88399 15.2468 2.96299 15.5948 3.06999 15.9418C3.10299 16.0298 3.13399 16.1168 3.16199 16.2038C3.19499 16.2908 3.24699 16.3798 3.28599 16.4678L3.34799 16.5998L3.37799 16.6658L3.40699 16.7078C3.44199 16.7658 3.48399 16.8148 3.52199 16.8648C3.68999 17.0508 3.87999 17.1838 4.13999 17.2938C4.39399 17.4058 4.71899 17.4798 5.07699 17.5168C5.79499 17.5888 6.64899 17.4968 7.41599 17.2678C7.79699 17.1618 8.17899 17.0018 8.37899 16.8688C8.62099 16.7218 8.86599 16.5098 9.11099 16.2498C9.35799 15.9918 9.60299 15.6888 9.83799 15.3458C10.069 14.9968 10.304 14.6288 10.523 14.2328C10.631 14.0298 10.741 13.8328 10.846 13.6208C10.955 13.4158 11.061 13.2018 11.165 12.9878C11.371 12.5548 11.575 12.1128 11.781 11.6598C12.598 9.8428 13.38 7.9108 14.382 5.8998C14.639 5.3958 14.909 4.8858 15.215 4.3638L15.455 3.9688C15.546 3.8258 15.662 3.6588 15.767 3.5068C15.991 3.1998 16.236 2.9048 16.505 2.6308C17.046 2.0848 17.674 1.6228 18.34 1.2828C19.006 0.939797 19.702 0.710797 20.389 0.583797C21.767 0.328798 23.094 0.428797 24.328 0.757797C24.946 0.926797 25.544 1.1588 26.124 1.4678C26.414 1.6288 26.699 1.8098 26.983 2.0248C27.055 2.0808 27.126 2.1388 27.195 2.1978C27.266 2.2618 27.338 2.3298 27.407 2.3958C27.478 2.4648 27.551 2.5468 27.619 2.6228C27.69 2.7058 27.762 2.8058 27.828 2.8968C28.119 3.3008 28.027 3.8638 27.623 4.1548C27.487 4.2528 27.333 4.3068 27.177 4.3208L26.093 4.4138L26.095 4.4108Z"
    />
</svg>
