<svg width="30" height="29" viewBox="0 0 30 29" xmlns="http://www.w3.org/2000/svg">
  <path
    d="M16.8649 28.4142L14.9619 27.9082L14.1279 26.4642C14.1279 26.4642 15.3649 24.6082 15.3189 21.3462C15.2999 20.0992 15.1689 18.6742 15.1029 17.3062C15.3369 17.3152 15.5809 17.3252 15.8249 17.3252C16.0779 17.3252 16.3219 17.3252 16.5839 17.3062C16.5929 17.6812 16.6309 18.0842 16.6589 18.4972C16.7709 19.6972 16.9309 21.0282 17.1089 22.3592C17.1179 22.4152 17.1179 22.4812 17.1279 22.5372C16.3029 24.7682 15.7219 26.7552 16.1719 26.8772C17.2309 27.1682 16.8649 28.4142 16.8649 28.4142Z"
  />
  <path
    d="M29.933 5.65432C29.624 6.17032 29.127 7.06932 28.377 7.06932H27.13C26.221 7.06932 25.49 7.74432 25.49 8.57832C25.49 8.73732 25.574 8.95332 25.574 9.39432C25.574 10.8283 25.536 12.0843 24.505 12.8723C23.896 13.3313 23.465 13.6503 23.155 14.4003C23.061 14.6253 22.611 15.0093 22.143 15.3563C21.731 15.6753 21.402 16.0313 21.187 16.4813C21.103 16.6403 21.037 16.8183 20.99 17.0063C20.803 17.7003 19.162 27.1583 20.268 27.1583C21.365 27.1583 21.337 28.4613 21.337 28.4613H19.368L18.187 27.2803C18.187 27.2803 18.581 25.3493 18.037 22.2743V22.2553C17.971 21.7213 17.896 21.1963 17.84 20.6803C17.737 19.8183 17.643 18.9833 17.578 18.2243C17.559 17.9623 17.541 17.7083 17.531 17.4743C17.512 17.2493 17.503 17.0333 17.493 16.8273C17.493 16.7243 17.484 16.6303 17.484 16.5363C17.475 16.0113 17.493 15.5703 17.55 15.2243L17.906 14.4933L18.843 12.5533C18.955 12.3283 18.862 12.0473 18.627 11.9253C18.402 11.8133 18.121 11.9163 18.008 12.1413L17.183 13.8383L16.677 14.8693C16.649 14.9063 16.64 14.9533 16.63 14.9913C16.564 15.3573 16.536 15.8253 16.546 16.3603C16.312 16.3793 16.068 16.3883 15.824 16.3883C15.571 16.3883 15.318 16.3793 15.074 16.3693C13.255 16.2753 11.662 15.8633 10.631 15.2723C10.322 15.0943 9.97499 15.0103 9.62799 15.0103C9.14099 15.0103 8.66199 15.1883 8.30599 15.5353C8.26899 13.9883 8.08099 13.0043 8.06199 12.9103C8.00599 12.6573 7.75299 12.4983 7.50899 12.5443C7.25599 12.6003 7.08699 12.8533 7.14299 13.1063C7.15199 13.1533 8.20199 18.3933 5.72799 24.0833C5.69999 24.1583 5.66199 24.2243 5.63399 24.2993C5.61499 24.3463 5.60599 24.3933 5.59599 24.4403C5.04299 26.1743 5.97999 27.1583 6.28999 27.1583C7.39599 27.1583 7.35899 28.4613 7.35899 28.4613H5.39999L3.68499 24.8243C3.56299 24.5623 3.53499 24.2713 3.59099 23.9993L3.81599 22.4243L4.18199 21.2333C4.20999 21.1673 4.20999 21.0923 4.20099 21.0173C3.91999 19.5453 3.50699 18.7493 3.09499 17.9703C2.60799 17.0233 2.13899 16.1423 1.98899 13.9863C1.96999 13.7243 1.73599 13.5273 1.48299 13.5553C1.22999 13.5743 1.03299 13.7893 1.05199 14.0523C1.22099 16.3953 1.75499 17.4173 2.27099 18.4023C2.64599 19.1333 3.01199 19.8173 3.25499 21.0743L2.98299 21.9833C0.62099 23.9523 1.47399 26.7923 1.83899 26.9043C2.89799 27.2233 2.48599 28.4603 2.48599 28.4603L0.60199 27.8983L0.0109901 22.8923C-0.0260099 22.6113 0.0299901 22.3303 0.16999 22.0763L1.15399 20.3233C1.50099 17.0893 -0.93601 14.5213 0.96699 11.0623C0.98599 10.1903 1.10799 9.45932 1.37899 8.86832C1.24799 8.76532 1.13499 8.63432 1.03199 8.50232C0.90999 8.37132 0.81599 8.23032 0.73199 8.08032C-0.34601 6.35532 -0.14901 3.80532 1.55699 2.49332C3.34699 1.04032 5.47499 0.993318 7.52799 1.14332C8.65299 1.22732 9.50599 2.21232 9.42199 3.33732C9.33799 4.46232 8.36299 5.31532 7.22899 5.23132C6.09499 5.02532 4.60399 4.65932 3.62899 5.18432C3.15999 5.41832 3.01999 5.85932 3.09499 6.30932C3.12299 6.45932 3.16999 6.60932 3.24499 6.75932C3.31099 6.90032 3.39499 7.04032 3.49799 7.16232C4.13499 6.97532 4.90399 6.89032 5.83199 6.89032C6.76899 6.89032 7.85699 6.97432 9.13199 7.14332H9.97599C18.394 7.14332 18.366 6.01832 20.447 3.13132L20.456 3.14032C21.028 2.44632 21.984 1.96832 23.099 1.85632C23.165 1.69732 23.24 1.52832 23.343 1.36932C23.437 1.21032 23.54 1.04132 23.662 0.882318C23.878 0.610318 24.149 0.357318 24.468 0.170318C25.265 -0.288682 25.096 0.245318 24.927 0.995318C24.899 1.14532 24.861 1.29532 24.843 1.45432C24.815 1.60432 24.796 1.77332 24.787 1.92332C25.274 2.01732 25.537 2.19532 25.865 2.37332C26.568 2.75732 27.055 3.33932 27.271 3.99532C27.458 4.54832 27.937 4.86732 28.283 4.86732H29.474C29.868 4.86732 30.13 5.30832 29.933 5.65432Z"
  />
</svg>
