<svg width="32" height="32" viewBox="0 0 32 32" xmlns="http://www.w3.org/2000/svg">
  <path fill-rule="evenodd" clip-rule="evenodd"
        d="M18.0701 7.0249C15.7821 9.7239 13.2621 13.6829 12.0971 15.5459C11.7341 15.5669 11.3371 15.5249 10.9671 15.3879C9.58308 14.8809 8.54208 13.3329 10.8371 11.0389C12.2621 9.6139 15.7961 7.9839 18.0701 7.0249Z"
  />
  <path fill-rule="evenodd" clip-rule="evenodd"
        d="M23.4061 15.2241C23.4471 17.8821 23.6731 18.6151 22.7831 19.8751C21.7761 21.2791 16.7211 22.2661 16.3721 21.3961C16.2901 21.2041 16.2421 20.5811 16.1801 20.0261C16.6251 19.7311 17.1871 19.3751 17.8031 18.9921C19.4611 17.9511 21.6661 16.5811 23.4061 15.2251V15.2241Z"
  />
  <path fill-rule="evenodd" clip-rule="evenodd"
        d="M10.22 20.1901C10.364 20.4161 10.665 20.4851 10.898 20.3341C11.371 20.0261 11.713 19.7381 12.049 19.4021C12.391 19.0601 12.707 18.6761 13.131 18.1691L13.645 17.5591C13.83 17.3471 14.138 16.9431 14.549 16.4221C16.659 13.7231 22.131 6.73012 26.33 4.36712C26.577 4.98312 27.008 5.48312 27.515 5.86712C25.063 10.0321 18.446 15.2101 15.576 17.4501C15.055 17.8611 14.651 18.1691 14.439 18.3541L13.829 18.8681C12.836 19.6971 12.288 20.1491 11.664 21.1011C11.513 21.3341 11.582 21.6351 11.808 21.7791C12.034 21.9231 12.335 21.8541 12.472 21.6351C13.02 20.7991 13.499 20.4021 14.445 19.6081L15.068 19.0941C15.274 18.9161 15.657 18.6151 16.171 18.2101C18.061 16.7311 21.541 14.0041 24.459 11.0861C26.021 9.52412 27.425 7.90112 28.315 6.39412C28.767 6.65412 29.233 6.86012 29.644 7.02412C28.829 8.44212 27.692 9.97612 26.062 11.6061C25.24 12.4281 24.062 13.4281 23.61 13.8121C23.535 13.8741 23.459 13.9351 23.384 13.9971C21.617 15.4631 19.13 17.0181 17.281 18.1681C16.808 18.4631 16.377 18.7301 16 18.9691V18.9551C15.952 18.9891 15.904 19.0241 15.849 19.0511C15.849 19.0511 15.746 19.1261 15.589 19.2431C15.37 19.3801 15.178 19.5171 15.02 19.6331C14.965 19.6741 14.904 19.7221 14.849 19.7631L14.842 19.7701C14.52 19.9961 14.219 20.2291 14.089 20.3591C12.335 22.1131 11.842 24.9071 11.842 24.9071C11.157 26.9621 13.178 30.9961 9.93805 31.4691C7.28005 31.8531 6.71205 28.2431 5.23205 26.7631C3.75205 25.2831 0.145046 24.7181 0.528046 22.0601C1.00105 18.8201 5.03505 20.8411 7.09005 20.1561C7.09005 20.1561 9.88505 19.6631 11.638 17.9091C11.843 17.7041 12.083 17.3821 12.316 17.0121L12.535 16.6561L12.638 16.4981C13.72 14.7721 16.885 9.71712 19.453 6.91512C19.706 6.62012 19.905 6.42212 20.015 6.31212L20.022 6.30512L20.125 6.20212L20.392 5.93512C22.591 3.73612 24.646 2.40712 26.42 1.62012C26.187 2.25012 26.091 2.83912 26.125 3.38012C21.707 5.70212 16.179 12.7641 13.789 15.8261C13.385 16.3401 13.083 16.7231 12.905 16.9291L12.391 17.5521C11.59 18.5041 11.199 18.9771 10.363 19.5251C10.137 19.6691 10.075 19.9631 10.219 20.1891L10.22 20.1901Z"
  />
  <path fill-rule="evenodd" clip-rule="evenodd"
        d="M31.495 0.503889C31.536 1.73689 31.317 3.72289 30.105 6.16889C29.557 5.93589 28.927 5.66189 28.379 5.30589C27.865 4.95689 27.427 4.53189 27.215 3.96389C27.167 3.84789 27.14 3.72389 27.119 3.59389C27.003 2.91589 27.194 2.10789 27.66 1.17589C27.667 1.15489 27.681 1.14189 27.674 1.12089L27.681 1.11389L27.804 1.07289C29.345 0.572889 30.619 0.476889 31.496 0.504889L31.495 0.503889Z"
  />
</svg>
