<svg width="28" height="32" viewBox="0 0 28 32" xmlns="http://www.w3.org/2000/svg">
  <path
    d="M24.249 11.1448C24.002 11.1448 23.749 11.0998 23.489 11.0098C21.838 10.4358 22.011 9.00276 22.095 8.31376C22.111 8.18676 22.132 8.01276 22.124 7.95876C22.024 7.76776 21.857 7.57576 21.68 7.37176C21.325 6.96276 20.923 6.49876 20.923 5.62276C20.923 5.18476 21.051 4.82276 21.228 4.53076C20.666 4.53076 19.948 5.43276 19.539 5.91076C18.628 6.95576 14.047 12.1658 12.186 12.1658C11.53 12.1658 11.101 12.0858 10.78 11.9118C9.96296 11.3758 9.46696 10.4918 9.23996 9.20576C8.66396 5.91076 6.76196 5.21476 5.27496 5.21476C5.23496 5.21476 3.73496 5.22776 2.50196 6.46076C1.36396 7.58576 0.787964 8.87776 0.787964 11.2618C0.805964 11.5928 0.884964 12.1498 0.978964 12.5008C1.07896 12.8758 1.22996 12.7958 1.45796 12.5418C1.45796 12.5418 2.00096 11.9198 2.48796 11.3628C2.70596 11.1128 3.21296 10.2968 3.31296 10.1488C3.75796 9.49176 4.28696 9.11276 4.89696 9.02476C5.31696 8.96476 5.70496 9.05376 6.04396 9.20876C6.05796 9.21576 6.07096 9.22276 6.08496 9.22976C6.56496 9.45976 6.94196 9.81876 7.14396 10.0878C7.30496 10.3018 7.26096 10.6048 7.04696 10.7658C6.83196 10.9268 6.52896 10.8828 6.36896 10.6688C6.13896 10.3628 5.57096 9.90876 5.03496 9.98376C4.60796 10.0448 4.19996 10.4328 3.86596 11.1198C3.69096 11.4788 3.57996 11.9948 3.55596 12.2178C3.38796 13.7798 3.42196 16.7198 5.32996 18.9038L5.55796 19.1718C6.76296 20.5518 7.01796 20.8328 9.10696 22.2658C9.19396 22.3198 9.26196 22.3778 9.33496 22.4398C9.66296 21.3608 10.296 20.4058 11.245 19.5908C11.448 19.4188 11.755 19.4418 11.928 19.6438C12.102 19.8458 12.079 20.1518 11.876 20.3268C10.646 21.3818 10.029 22.7118 10.04 24.2848C10.681 24.2378 12.114 23.9358 14.102 22.3658C14.19 22.2968 14.308 22.2598 14.41 22.2618C14.419 22.2618 16.712 22.0888 17.531 15.6358C17.565 15.3698 17.824 15.1868 18.072 15.2158C18.338 15.2498 18.526 15.4918 18.492 15.7578C17.666 22.2658 15.32 23.1128 14.586 23.2168C13.692 23.9088 12.894 24.3678 12.208 24.6738C12.224 24.8938 12.262 25.2658 12.403 25.9808C12.567 26.8118 12.816 27.6228 12.95 27.9578V30.8778C12.883 30.9578 12.816 31.0648 12.696 31.1988C12.616 31.2928 12.361 31.3458 12.442 31.4398C12.777 31.5068 14.397 31.5198 14.665 31.4668C14.759 31.4398 14.812 31.4268 14.719 31.3198C14.679 31.3068 14.693 31.2848 14.732 31.2878C14.908 31.3018 15.155 31.3198 15.429 31.3198C15.978 31.3328 16.594 31.3198 16.755 31.2928C16.809 31.2928 16.916 31.2528 16.809 31.1458C16.394 31.0388 16.072 30.8248 15.831 30.6638V28.2128C16.174 27.5628 16.538 26.2748 16.731 25.1158C16.17 25.7868 15.768 26.2288 15.073 26.9208C15.006 27.2308 14.929 27.5338 14.84 27.8138C14.902 27.9638 14.965 28.1058 15.027 28.2128V30.7438C14.96 30.8238 14.893 30.9048 14.786 31.0248C14.719 31.1188 14.493 31.2368 14.474 31.2298C14.192 31.1138 13.956 30.9768 13.768 30.8508V28.1328C13.755 28.0478 13.755 27.9598 13.791 27.8738C14.205 26.8758 14.424 24.9258 14.469 24.3228C14.488 24.0548 14.719 23.8518 14.987 23.8748C15.254 23.8948 15.454 24.1268 15.434 24.3928C15.434 24.4018 15.408 24.7388 15.349 25.2258C15.427 25.1418 15.504 25.0578 15.583 24.9688C15.634 24.9108 15.685 24.8518 15.738 24.7898C15.844 24.6658 15.951 24.5408 16.058 24.4088C16.114 24.3388 16.173 24.2698 16.232 24.1998C16.412 23.9818 16.607 23.7438 16.843 23.4558C16.845 23.4538 16.847 23.4528 16.848 23.4518C17.947 22.1288 19.29 20.6598 21.013 19.8278C23.25 18.7428 25.634 16.3458 25.634 12.8628C25.634 12.0758 25.487 11.4128 25.266 10.8548C25.223 10.8798 25.186 10.9108 25.142 10.9328C24.857 11.0738 24.558 11.1448 24.249 11.1448Z"
    />
  <path
    d="M22.5349 3.53698C22.7449 3.56698 22.9119 3.73198 22.9439 3.94198C22.9759 4.15198 22.8679 4.35898 22.6759 4.45198C22.6469 4.46698 21.8919 4.85398 21.8919 5.62298C21.8919 6.13698 22.0989 6.37598 22.4119 6.73698C22.6129 6.96798 22.8389 7.22898 23.0139 7.58798C23.1289 7.82798 23.0949 8.10698 23.0569 8.42998C22.9589 9.24398 22.9579 9.79698 23.8069 10.095C24.8509 10.461 25.5049 9.50198 25.4989 8.99498C25.4909 8.31198 25.2839 8.11198 25.0829 7.76398C24.9739 7.58298 24.9119 7.26298 24.8209 6.99898C24.3389 6.82398 23.8439 6.38598 23.8439 5.58098C23.8439 5.08898 24.0839 4.30198 25.5029 4.15698C25.7889 3.96398 25.9679 3.65598 25.9679 3.29898C25.9679 2.61598 25.4859 1.20998 25.2049 1.08898C25.1249 1.08898 24.9509 1.28998 24.7089 1.66498C24.5619 1.87898 24.4549 2.03998 24.3069 2.11998C24.1999 2.17398 24.0929 2.17398 23.9859 2.13298C23.8789 2.10598 23.7979 2.02598 23.7449 1.91898L23.6509 1.66498C23.5299 1.36998 23.2359 0.646977 22.9809 0.525977C22.8869 0.632977 22.7529 0.887977 22.6729 1.02198C22.4859 1.34298 22.3649 1.54398 22.2179 1.65198C22.0709 1.75898 21.8699 1.75898 21.7219 1.63898C21.6279 1.55898 21.4809 1.38498 21.3069 1.18398C21.1459 0.982977 20.7979 0.567977 20.6639 0.500977C20.5839 0.567977 20.4099 1.10398 20.3429 1.33098C20.2629 1.57198 20.1819 1.79998 20.0889 1.95998C20.0349 2.05398 19.9549 2.12098 19.8479 2.14698C19.7539 2.17398 19.6339 2.15998 19.5399 2.10698C19.4059 2.03998 19.3119 1.90598 19.1919 1.73198C18.9109 1.31698 18.7229 1.12898 18.4419 1.19598C18.2139 1.28998 17.9199 2.36098 17.9199 3.07098C17.9199 3.65998 18.4159 4.15598 19.0179 4.15598C19.1789 4.15598 19.3359 4.10898 19.4729 4.04898C20.4949 3.60198 21.7269 3.41898 22.5369 3.53698H22.5349Z"
    />
  <path
    d="M24.812 5.62979C24.812 6.11579 25.21 6.13779 25.291 6.13779H27.213C26.845 5.52479 26.091 5.27479 25.609 5.17679C25.532 5.16079 25.237 5.17479 25.169 5.19779C24.935 5.27679 24.812 5.40379 24.812 5.62979Z"
    />
</svg>
