<svg width="32" height="32" viewBox="0 0 32 32"  xmlns="http://www.w3.org/2000/svg">
<path d="M31.4999 25.8509C31.4999 26.3289 31.0999 26.4849 30.8749 26.4949C10.8899 26.4949 8.68395 26.1239 5.44495 23.9089L7.87495 22.0449C8.26495 22.3079 9.04595 22.8159 9.60195 23.0309C14.7249 25.0609 26.7569 25.0219 30.8749 25.1879C31.0799 25.1979 31.4999 25.3719 31.4999 25.8509Z" />
<path d="M27.616 21.977C27.616 22.445 26.748 22.826 25.684 22.826C25.108 22.826 24.25 22.758 23.888 22.582C23.585 22.426 23.4 22.065 23.4 22.065C21.995 21.421 20.531 19.264 19.877 18.269C20.892 18.581 22.668 19.03 23.185 19.157C23.331 19.323 23.546 19.499 23.8 19.655C23.995 19.987 24.278 20.475 24.512 20.816C24.707 21.099 25.107 21.128 25.42 21.128H25.683C26.747 21.128 27.616 21.509 27.616 21.977Z" />
<path d="M19.458 12.785L21.898 14.815L22.942 15.293C23.313 14.727 23.596 14.102 23.771 13.439C24.122 12.327 25.157 11.517 26.386 11.517H26.786C27.781 11.517 28.601 11.263 29.265 10.883C28.397 9.68302 29.421 7.40902 29.607 7.03802C28.407 6.57002 26.777 6.07202 24.894 5.91602C24.982 6.11102 24.992 6.33602 24.904 6.54002L24.299 7.99402C24.221 8.18902 24.055 8.34502 23.86 8.41402C23.782 8.44302 23.704 8.45302 23.616 8.45302C23.499 8.45302 23.372 8.42402 23.265 8.36502C22.689 8.03302 21.499 7.25302 21.304 6.13002C20.435 6.34502 19.713 6.67602 19.069 7.07702C18.542 7.40902 17.937 7.57502 17.342 7.57502C16.922 7.57502 16.503 7.48702 16.112 7.32102C15.566 7.09702 13.643 6.34502 11.243 6.34502C8.51998 6.34502 5.19298 7.30102 2.52898 11.068C0.29298 14.239 -0.0390201 17.849 1.25898 19.615C2.05898 20.923 2.90798 21.85 3.55198 22.455C3.69798 22.592 3.84498 22.709 3.96198 22.816V22.826C4.37198 23.148 4.62598 23.304 4.62598 23.304L4.65498 23.285L6.90898 21.548L7.25098 21.285C7.14398 21.226 7.03598 21.148 6.93898 21.07H6.92898L6.91898 21.06C6.72398 20.904 6.56798 20.767 6.40198 20.592C5.57298 19.743 5.06498 18.572 5.06498 17.294C5.06498 17.021 5.28898 16.806 5.55298 16.806C5.72898 16.806 5.88498 16.894 5.97298 17.04C6.01198 17.108 6.04098 17.196 6.04098 17.294C6.04098 19.021 7.21198 20.485 8.80298 20.934C9.12498 21.032 9.46698 21.08 9.82798 21.08C9.89598 21.08 9.97398 21.06 10.043 21.051L10.199 21.032C10.355 21.022 10.482 21.071 10.589 21.169C10.599 21.179 10.608 21.189 10.618 21.198C10.716 21.315 10.755 21.481 10.725 21.637V21.647C10.725 21.715 10.715 22.037 10.715 22.086C10.715 22.369 11.808 22.818 13.457 22.818C14.745 22.818 15.35 22.233 15.35 22.057C15.252 21.862 14.247 21.325 12.969 21.325C12.764 21.325 12.588 21.227 12.481 21.062C12.452 21.023 12.432 20.984 12.413 20.945C12.364 20.828 12.345 20.711 12.345 20.584C12.335 20.36 12.404 20.125 12.53 19.95C12.54 19.911 12.569 19.872 12.598 19.843C13.252 19.14 13.613 18.243 13.613 17.296C13.613 15.881 12.832 14.593 11.583 13.939C11.495 13.9 11.437 13.832 11.398 13.763C11.3 13.626 11.291 13.441 11.369 13.285C11.496 13.041 11.798 12.953 12.033 13.08C13.604 13.9 14.59 15.52 14.59 17.296C14.59 17.862 14.492 18.418 14.297 18.935C15.175 18.467 16.19 18.096 17.849 18.096C18.269 18.096 18.688 18.047 19.079 17.95C18.669 17.726 18.347 17.345 18.171 16.877C18.073 16.633 18.191 16.35 18.444 16.252C18.522 16.223 18.61 16.213 18.688 16.232C18.854 16.252 19.01 16.359 19.078 16.525C19.195 16.837 19.429 17.081 19.712 17.179C20.258 17.384 21.8 17.794 22.757 18.048C23.079 18.126 23.333 18.194 23.46 18.224C23.47 18.234 23.479 18.234 23.489 18.234C23.538 18.244 23.577 18.253 23.626 18.263C23.763 18.312 23.87 18.419 23.919 18.556C24.007 18.663 24.241 18.81 24.524 18.966C25.188 19.337 26.173 19.756 26.466 19.776C26.564 19.688 26.808 18.966 26.808 18.478C26.769 18.322 26.262 17.873 25.979 17.766C25.95 17.747 25.93 17.737 25.901 17.727L23.247 16.517L22.788 16.302L22.31 16.087L21.432 15.687C21.393 15.668 21.364 15.638 21.325 15.609L19.061 13.726L18.837 13.531C18.632 13.365 18.603 13.053 18.778 12.848C18.953 12.643 19.256 12.614 19.461 12.789L19.458 12.785ZM27.743 7.94502C26.582 8.98902 26.152 7.66202 26.152 7.66202C27.167 6.63702 27.743 7.94502 27.743 7.94502Z" />
<path d="M30.3 7.896C30.076 8.472 29.851 9.252 29.9 9.818C30.261 9.476 30.759 8.949 31.09 8.296L30.3 7.896Z" />
<path d="M23.947 6.30491L23.508 7.36891C23.069 7.09591 22.386 6.57891 22.278 5.93391C22.249 5.79691 22.249 5.66091 22.288 5.51391C22.307 5.50391 22.327 5.50391 22.356 5.50391C22.493 5.50391 22.805 5.59191 23.283 5.86491C23.478 5.97191 23.693 6.11991 23.947 6.30491Z" />
<path d="M31.09 8.296C30.758 8.95 30.261 9.477 29.9 9.818C29.851 9.252 30.076 8.471 30.3 7.896L31.09 8.296Z" />
</svg>
