<svg width="32" height="32" viewBox="0 0 32 32"  xmlns="http://www.w3.org/2000/svg">
<path d="M29.487 18.4878C29.438 18.5948 29.292 18.6338 29.087 18.6338C28.404 18.6338 27.086 18.1658 27.028 18.1658C27.0213 18.1658 27.018 18.1691 27.018 18.1758C27.018 18.3028 28.677 19.6688 28.17 19.9028C28.151 19.9028 28.131 19.9128 28.111 19.9128C27.604 19.9128 25.583 18.0678 25.398 18.0678C24.842 18.0578 24.198 17.9998 23.514 17.8828C22.909 17.7758 22.353 17.6388 21.865 17.4828C21.582 17.3848 20.733 17.0338 20.567 16.8968C20.547 16.8768 20.518 16.8578 20.489 16.8288C20.411 16.7308 20.313 16.5848 20.226 16.4288C20.128 16.2628 20.041 16.0968 20.001 15.9898C19.982 15.9608 19.982 15.9408 19.972 15.9218C19.845 15.5708 19.777 15.1608 19.777 14.7308C19.777 14.5068 19.836 14.1938 19.836 14.1938C20.139 13.9988 20.392 13.8128 20.588 13.6378C20.686 13.5598 20.783 13.4818 20.861 13.4138C21.493 12.8578 22.227 12.7798 22.296 12.7798C22.638 13.2088 22.872 13.8828 22.891 14.6338V14.7318C22.891 14.8688 22.881 14.9958 22.871 15.1218C22.852 15.2978 22.822 15.4728 22.783 15.6288C22.754 15.7558 22.715 15.8728 22.676 15.9898C23.037 16.0188 23.418 16.0678 23.818 16.1358C24.482 16.2528 25.087 16.4088 25.604 16.5748V16.5848C25.789 16.5848 27.478 14.7498 28.005 14.7498C28.044 14.7498 28.073 14.7598 28.093 14.7788C28.503 15.0518 27.078 16.4868 27.156 16.5358H27.185C27.419 16.5358 28.678 16.0088 29.264 16.0088C29.41 16.0088 29.508 16.0378 29.547 16.1258C29.771 16.6918 27.322 17.2578 27.302 17.3558C27.292 17.4438 29.683 18.0678 29.488 18.4878H29.487Z" />
<path d="M25.232 7.18699C24.051 6.76699 22.646 6.51399 21.133 6.51399C20.479 6.51399 19.845 6.56299 19.24 6.65099C18.83 6.70999 18.41 6.73899 17.991 6.73899C17.454 6.73899 16.927 6.68999 16.39 6.59299C15.726 6.47599 15.024 6.41699 14.292 6.41699C13.628 6.41699 12.945 6.46599 12.252 6.57299C11.091 6.74899 9.99699 7.06099 9.01199 7.48999C6.15199 8.70999 4.18099 10.838 3.95599 13.073C6.38999 12.31 7.96699 12.985 8.59199 13.395C8.87499 13.571 9.12899 13.785 9.36299 14.039C9.41199 14.088 9.46099 14.137 9.49999 14.195C9.56799 14.273 9.63699 14.361 9.70499 14.449C9.86099 14.673 9.81199 14.976 9.59799 15.132C9.50999 15.2 9.41299 15.23 9.31499 15.23C9.15899 15.23 9.01199 15.162 8.91499 15.025C8.71999 14.762 8.49499 14.527 8.24199 14.342C7.71499 13.942 6.41499 13.427 3.96699 14.118C3.81099 14.167 2.84199 14.391 2.04399 15.436C1.80999 15.739 1.47799 16.295 1.25299 16.959C1.14599 17.271 1.05799 17.613 1.02799 17.964C0.998995 18.198 0.988995 18.432 1.01799 18.667V18.677C1.04699 19.038 1.13499 19.399 1.32099 19.741C1.33999 19.78 1.36999 19.829 1.39899 19.868C1.69199 20.376 2.12099 20.854 2.44299 21.068C2.47199 21.097 2.50199 21.117 2.53099 21.136C3.41899 21.907 5.18599 21.956 7.77199 21.956C9.17699 21.956 10.866 22.961 12.506 23.937C13.843 24.737 15.317 25.616 16.185 25.586C14.828 23.8 12.652 22.863 12.008 22.619C11.754 22.521 11.627 22.238 11.725 21.985C11.823 21.732 12.096 21.614 12.35 21.702C13.072 21.975 15.473 23.01 16.966 25.011C17.041 24.823 17.107 24.589 17.147 24.311C17.147 24.311 17.083 24.221 17.054 24.172C16.117 22.776 14.565 21.586 12.994 21.068C12.74 20.98 12.604 20.707 12.682 20.453C12.77 20.199 13.043 20.053 13.297 20.141C14.693 20.59 16.079 21.527 17.103 22.669C16.791 21.673 15.795 20.59 14.517 19.624C14.341 19.487 14.156 19.36 13.97 19.224C13.96 19.234 13.941 19.234 13.931 19.234C13.36 20.053 11.247 20.103 10.271 20.142C9.86099 20.162 8.48499 20.23 8.48499 20.23C8.31899 20.24 8.16299 20.24 8.00699 20.24C7.20699 20.24 6.49399 20.152 5.86999 20.006C5.01099 19.83 4.31799 19.537 3.82999 19.225C3.66399 19.118 3.52699 19.02 3.40999 18.913C3.21499 18.737 3.19499 18.425 3.37099 18.22C3.55599 18.015 3.85899 18.005 4.06399 18.181C4.52299 18.591 5.76199 19.206 7.71399 19.255C7.71399 19.255 8.27999 19.265 8.57299 19.245C8.57299 19.245 9.98799 19.177 10.242 19.167C11.452 19.128 12.243 19.079 12.731 18.884C12.887 18.835 13.014 18.757 13.112 18.669C13.229 18.562 13.317 18.425 13.366 18.249C13.386 18.181 13.405 18.112 13.415 18.034C13.435 17.927 13.444 17.819 13.454 17.712C13.464 17.595 13.473 17.468 13.473 17.361C13.473 16.863 13.375 16.434 13.18 16.063C13.102 15.878 13.151 15.624 13.424 15.526C13.444 15.506 13.473 15.506 13.492 15.497C13.736 15.438 13.951 15.536 14.117 15.79C14.41 16.424 14.527 17.215 14.38 18.181C14.37 18.22 14.37 18.249 14.361 18.279C14.332 18.435 14.302 18.562 14.244 18.689C14.429 18.66 14.615 18.621 14.791 18.582C16.187 18.26 17.455 17.743 18.539 17.079C18.754 16.952 18.978 16.786 19.212 16.601C19.114 16.406 19.056 16.259 19.046 16.25C18.89 15.772 18.802 15.274 18.802 14.747C18.148 15.05 17.328 15.313 16.303 15.499C16.274 15.509 16.244 15.509 16.215 15.509C15.981 15.509 15.776 15.343 15.737 15.109C15.688 14.845 15.864 14.592 16.127 14.543C17.62 14.27 18.596 13.84 19.26 13.411C19.26 13.411 19.904 12.952 20.119 12.767C20.139 12.748 20.49 12.435 20.568 12.367C21.062 11.969 21.763 11.818 22.51 11.83C23.037 11.859 23.564 12.035 24.052 12.347C24.276 12.484 24.345 12.786 24.198 13.011C24.071 13.226 23.817 13.294 23.603 13.206C23.749 13.596 23.837 14.026 23.857 14.465C25.448 14.114 26.765 13.499 27.605 12.698C29.645 12.151 31.001 11.214 31.001 10.151C31.001 8.71599 28.541 7.51599 25.233 7.19399L25.232 7.18699ZM26.511 9.96899C25.984 9.96899 25.554 9.53999 25.554 9.02199C25.554 8.49499 25.983 8.06499 26.511 8.06499C27.039 8.06499 27.458 8.49399 27.458 9.02199C27.458 9.53899 27.038 9.96899 26.511 9.96899Z" />
<path d="M7.07896 7.36182C4.55096 8.87482 2.95996 11.0998 2.94096 13.4618C2.68696 13.5888 2.45296 13.7258 2.23796 13.8818C1.80896 13.6478 1.49596 13.3258 1.35996 12.9158C0.529961 10.4468 3.37996 7.57582 7.07896 7.36182Z" />
</svg>
