<svg width="44" height="44" viewBox="0 0 44 44" xmlns="http://www.w3.org/2000/svg">
  <style>
    path {
      fill: #006781;
    }
    @media (prefers-color-scheme: dark) {
      path {
        fill: #5bd4ff;
      }
    }
  </style>
  <path opacity="0.25"
        d="M21.9999 4.6027V7.49449L10.697 14.0205C10.3147 14.2417 9.99717 14.5595 9.77632 14.942C9.55546 15.3245 9.439 15.7584 9.43859 16.2001V29.2522L6.93437 30.6993C6.55172 30.9198 6.1178 31.0358 5.67615 31.0357C5.23451 31.0355 4.80068 30.9191 4.4182 30.6983C4.03572 30.4775 3.71805 30.16 3.49706 29.7776C3.27608 29.3952 3.15955 28.9614 3.15918 28.5198V12.5759C3.15875 12.134 3.27486 11.6999 3.4958 11.3172C3.71674 10.9345 4.03469 10.6169 4.41758 10.3964L18.2247 2.42315C18.6073 2.20238 19.0413 2.08619 19.483 2.08624C19.9248 2.0863 20.3587 2.2026 20.7413 2.42346C21.1239 2.64433 21.4416 2.96198 21.6625 3.3445C21.8834 3.72703 21.9998 4.16096 21.9999 4.6027Z"
        />
  <path opacity="0.5"
        d="M28.2794 8.22944V11.1238L22 14.7479V7.49454L24.5042 6.04991C24.8868 5.82888 25.3208 5.71247 25.7626 5.7124C26.2045 5.71233 26.6385 5.8286 27.0212 6.04951C27.4038 6.27043 27.7216 6.58819 27.9424 6.97086C28.1633 7.35353 28.2795 7.78761 28.2794 8.22944Z"
        />
  <path opacity="0.5"
        d="M15.7179 25.628V32.8789L13.2137 34.3235C12.8311 34.5446 12.3971 34.6609 11.9552 34.661C11.5134 34.6611 11.0793 34.5448 10.6967 34.3239C10.314 34.103 9.99631 33.7852 9.77544 33.4026C9.55457 33.0199 9.43836 32.5858 9.43848 32.144V29.2521L15.7179 25.628Z"
        />
  <path opacity="0.63"
        d="M21.9998 7.49451V14.7479L16.9763 17.6473C16.594 17.8685 16.2765 18.1862 16.0556 18.5687C15.8348 18.9513 15.7183 19.3851 15.7179 19.8268V25.628L9.43848 29.2522V16.2001C9.43889 15.7584 9.55536 15.3246 9.77621 14.942C9.99706 14.5595 10.3146 14.2417 10.6969 14.0206L21.9998 7.49451Z"
        />
  <path opacity="0.75"
        d="M34.5612 22.0013V27.8C34.5608 28.2417 34.4444 28.6755 34.2235 29.058C34.0026 29.4406 33.6852 29.7583 33.3028 29.9795L28.2793 32.8789V27.08C28.2791 26.6382 28.3953 26.2041 28.6162 25.8215C28.8371 25.4389 29.155 25.1212 29.5377 24.9005L34.5612 22.0013Z"
        />
  <path opacity="0.75"
        d="M34.5612 11.8561V14.7479L28.2793 18.3746V11.1237L30.786 9.67654C31.1686 9.45564 31.6026 9.33936 32.0444 9.33936C32.4862 9.33935 32.9202 9.45563 33.3028 9.67652C33.6854 9.89741 34.0031 10.2151 34.224 10.5977C34.4449 10.9803 34.5612 11.4143 34.5612 11.8561Z"
        />
  <path opacity="0.75"
        d="M21.9999 29.2521V36.503L19.4932 37.9501C19.1106 38.171 18.6766 38.2873 18.2348 38.2873C17.7931 38.2873 17.359 38.171 16.9764 37.9501C16.5938 37.7292 16.2761 37.4115 16.0552 37.0289C15.8343 36.6464 15.718 36.2124 15.718 35.7706V32.8788L21.9999 29.2521Z"
        />
  <path opacity="0.88"
        d="M28.2793 11.1237V18.3746L23.2583 21.274C22.8755 21.4945 22.5575 21.8121 22.3366 22.1948C22.1156 22.5775 21.9995 23.0116 21.9999 23.4535V29.2522L15.718 32.8789V25.628L20.7415 22.7261C21.1241 22.5052 21.4417 22.1875 21.6626 21.8049C21.8835 21.4223 21.9998 20.9884 21.9999 20.5466V14.7479L28.2793 11.1237Z"
        />
  <path
    d="M21.9999 14.7479V20.5466C21.9998 20.9883 21.8835 21.4223 21.6626 21.8048C21.4417 22.1874 21.1241 22.5051 20.7415 22.7261L15.718 25.628V19.8268C15.7184 19.3851 15.8349 18.9512 16.0558 18.5687C16.2766 18.1862 16.5941 17.8684 16.9764 17.6472L21.9999 14.7479Z"
    />
  <path
    d="M40.8407 15.4828V16.9198C40.8406 17.362 40.7243 17.7963 40.5035 18.1793C40.2826 18.5622 39.9649 18.8804 39.5823 19.1019L34.5613 22.0013L29.5378 24.9006C29.1551 25.1213 28.8372 25.439 28.6163 25.8216C28.3954 26.2042 28.2792 26.6383 28.2794 27.0802V38.6775C28.2795 39.1193 28.1633 39.5534 27.9424 39.936C27.7215 40.3186 27.4037 40.6363 27.021 40.8571L25.7752 41.5769C25.3926 41.7977 24.9586 41.9139 24.5169 41.9138C24.0751 41.9137 23.6412 41.7974 23.2586 41.5766C22.8761 41.3557 22.5584 41.0381 22.3374 40.6555C22.1165 40.273 22.0001 39.8391 22 39.3973V23.4535C21.9996 23.0116 22.1157 22.5774 22.3366 22.1948C22.5576 21.8121 22.8755 21.4945 23.2584 21.2739L28.2794 18.3746L34.5613 14.7479L37.0655 13.3007C37.4484 13.0802 37.8825 12.9643 38.3243 12.9646C38.7662 12.9649 39.2001 13.0815 39.5826 13.3026C39.9652 13.5237 40.2828 13.8415 40.5036 14.2242C40.7244 14.6069 40.8407 15.0409 40.8407 15.4828Z"
    />
</svg>
