<svg width="24" height="24" viewBox="0 0 24 24" xmlns="http://www.w3.org/2000/svg">
<path d="M18.8154 5.9333L20.0584 5.9333L16.4231 9.54672C16.0398 9.93005 15.6064 10.2217 15.1231 10.4217C14.6398 10.6217 14.1314 10.7217 13.5981 10.7217L5.82647 10.864H2.58998C2.03998 10.8608 1.59004 11.3108 1.58997 11.864C1.58997 12.4108 2.04 12.864 2.59 12.864H5.82647L13.5981 12.7217C14.1314 12.7217 14.6398 12.8217 15.1231 13.0217C15.6064 13.2217 16.0398 13.5134 16.4231 13.8967L20.2105 17.6613L20.3317 17.7837L18.8154 17.7837C18.5561 17.7837 18.3294 17.8808 18.1352 18.075C17.9405 18.2697 17.8431 18.5085 17.8431 18.7913C17.8431 19.0506 17.9433 19.2804 18.1437 19.4807C18.344 19.6811 18.5738 19.7812 18.8331 19.7812H22.5101C22.6515 19.7812 22.7783 19.7548 22.8905 19.7021C23.0022 19.6488 23.1052 19.575 23.1995 19.4807C23.2938 19.3864 23.3675 19.2834 23.4208 19.1717C23.4736 19.0595 23.5 18.9327 23.5 18.7913V15.1143C23.5 14.8551 23.406 14.6253 23.2179 14.4249C23.0288 14.2246 22.7929 14.1244 22.5101 14.1244C22.2508 14.1244 22.021 14.2246 21.8206 14.4249C21.6203 14.6253 21.5201 14.8551 21.5201 15.1143L21.5055 16.1541L17.0731 11.7217L21.4749 7.31995L21.5024 7.28241L21.5201 8.60263C21.5201 8.8619 21.6203 9.09171 21.8206 9.29206C22.021 9.49241 22.2508 9.59258 22.5101 9.59258C22.7929 9.59258 23.0288 9.49241 23.2179 9.29206C23.406 9.09171 23.5 8.86191 23.5 8.60263V4.92568C23.5 4.78426 23.4736 4.65745 23.4208 4.54525C23.3675 4.43353 23.2938 4.33053 23.1995 4.23625C23.1052 4.14197 23.0022 4.06819 22.8905 4.01492C22.7783 3.96213 22.6515 3.93573 22.5101 3.93573H18.8331C18.5738 3.93573 18.344 4.0359 18.1437 4.23625C17.9433 4.43659 17.8431 4.6664 17.8431 4.92568C17.8431 5.20852 17.9405 5.44729 18.1352 5.64198C18.3294 5.83619 18.5561 5.9333 18.8154 5.9333Z"/>
</svg>
