<svg width="25" height="25" viewBox="0 0 25 25" fill="none" xmlns="http://www.w3.org/2000/svg">
<mask id="mask0_658_75528" style="mask-type:alpha" maskUnits="userSpaceOnUse" x="0" y="0" width="25" height="25">
<rect x="0.686401" y="0.177734" width="24" height="24" fill="#D9D9D9"/>
</mask>
<g mask="url(#mask0_658_75528)">
<path d="M8.68652 8.17773L16.6865 16.1777M16.6865 8.17773L8.68652 16.1777" stroke="var(--negative,#BA1A1A)" stroke-width="2" stroke-linecap="round"/>
<path fill-rule="evenodd" clip-rule="evenodd" d="M8.15087 11.1777L1.6864 11.1777C1.13412 11.1777 0.686401 11.6254 0.686401 12.1777C0.686401 12.73 1.13412 13.1777 1.6864 13.1777L8.15087 13.1777L9.15087 12.1777L8.15087 11.1777ZM17.2219 13.1777H23.6864C24.2387 13.1777 24.6864 12.73 24.6864 12.1777C24.6864 11.6254 24.2387 11.1777 23.6864 11.1777L17.2219 11.1777L16.2219 12.1777L17.2219 13.1777Z" fill="var(--on-surface,#001F24)"/>
</g>
</svg>
