<svg width="24" height="24" viewBox="0 0 24 24" xmlns="http://www.w3.org/2000/svg">
  <path d="M6.10041 7.68881C5.58632 7.89063 5.33318 8.47099 5.535 8.98508L6.32908 11.0078H2.5896C2.03731 11.0078 1.5896 11.4556 1.5896 12.0078C1.5896 12.5601 2.03731 13.0078 2.5896 13.0078H7.11423L8.18488 15.7351C8.3867 16.2492 8.96706 16.5023 9.48115 16.3005C9.99524 16.0987 10.2484 15.5183 10.0466 15.0042L7.39668 8.25423C7.19486 7.74014 6.6145 7.48699 6.10041 7.68881Z"/>
  <path d="M17.3295 7.92719C17.72 7.53667 18.3532 7.53667 18.7437 7.92719L22.1172 11.3007C22.5077 11.6912 22.5077 12.3244 22.1172 12.7149L18.7437 16.0884C18.3532 16.4789 17.72 16.4789 17.3295 16.0884C16.939 15.6979 16.939 15.0647 17.3295 14.6742L18.9959 13.0078H14.2408L15.0246 15.0042C15.2264 15.5183 14.9733 16.0987 14.4592 16.3005C13.9451 16.5023 13.3647 16.2492 13.1629 15.7351L10.513 8.98508C10.3112 8.47099 10.5643 7.89063 11.0784 7.68881C11.5925 7.48699 12.1729 7.74014 12.3747 8.25423L13.4557 11.0078H18.9959L17.3295 9.34141C16.939 8.95088 16.939 8.31772 17.3295 7.92719Z"/>
</svg>
