<svg width="24" height="24" viewBox="0 0 24 24" xmlns="http://www.w3.org/2000/svg">
  <path
    d="M10.4357 6.72998C9.39561 6.72998 8.89083 7.54918 8.89083 8.16843C8.89083 8.72072 8.44312 9.16843 7.89083 9.16843C7.33855 9.16843 6.89083 8.72072 6.89083 8.16843C6.89083 6.67876 8.0706 4.72998 10.4357 4.72998C11.5351 4.72998 12.4434 5.12144 13.0708 5.8016C13.6841 6.46656 13.9588 7.33071 13.9588 8.16873C13.9588 9.76832 13.0809 10.619 12.462 11.2187L12.3945 11.2843C12.0731 11.5969 11.8504 11.8262 11.6902 12.0964C11.5456 12.3403 11.4357 12.6491 11.4357 13.121C11.4357 13.6733 10.988 14.121 10.4357 14.121C9.8834 14.121 9.43569 13.6733 9.43569 13.121C9.43569 12.2923 9.64114 11.631 9.96965 11.0767C10.2826 10.5487 10.6906 10.1515 11 9.85063C11.6412 9.2269 11.9588 8.9048 11.9588 8.16873C11.9588 7.75411 11.8232 7.39889 11.6007 7.15763C11.3921 6.93158 11.0389 6.72998 10.4357 6.72998Z"
  />
  <path
    d="M10.4155 15.3829C9.86317 15.3829 9.41546 15.8307 9.41546 16.3829C9.41546 16.9352 9.86317 17.3829 10.4155 17.3829H10.4374C10.9897 17.3829 11.4374 16.9352 11.4374 16.3829C11.4374 15.8307 10.9897 15.3829 10.4374 15.3829H10.4155Z"
  />
  <path
    d="M19.5557 13.0007H14.9459C15.2341 12.3915 15.4029 11.7147 15.422 11.0007H19.5557L18.0409 9.48593C17.6503 9.09541 17.6503 8.46225 18.0408 8.07172C18.4313 7.68118 19.0645 7.68117 19.455 8.07169L22.677 11.2936C22.8646 11.4811 22.9699 11.7354 22.9699 12.0007C22.9699 12.2659 22.8646 12.5202 22.677 12.7078L19.4551 15.9298C19.0645 16.3203 18.4314 16.3203 18.0408 15.9298C17.6503 15.5392 17.6503 14.9061 18.0408 14.5156L19.5557 13.0007Z"
  />
  <path
    d="M2.59002 11.0007L5.42557 11.0007C5.44463 11.7147 5.6134 12.3915 5.90164 13.0007H2.59002C2.03773 13.0007 1.58997 12.553 1.58997 12.0007C1.58997 11.4484 2.03773 11.0007 2.59002 11.0007Z"
  />
</svg>
